<svg width="600" height="346" viewBox="0 0 600 346" fill="none" xmlns="http://www.w3.org/2000/svg">
<path d="M39.7789 213.999C42.6049 212.825 45.3223 212.238 47.9309 212.238C50.1047 212.238 52.3438 213.042 54.6481 214.651C55.9089 215.52 57.3219 217.216 58.8871 219.738C59.9305 221.477 61.2566 224.629 62.8652 229.194L70.8215 251.758C72.6475 256.802 74.4953 260.801 76.3648 263.758C78.2778 266.758 80.0169 268.997 81.582 270.475C83.1472 271.997 84.7776 273.062 86.4732 273.671C88.1688 274.279 89.5601 274.584 90.647 274.584C91.7774 274.584 92.7774 274.497 93.6469 274.323L93.7121 274.975C91.6252 275.671 89.5818 276.018 87.5819 276.018C85.5819 276.018 83.582 275.497 81.582 274.453C79.5821 273.453 77.7126 272.04 75.9735 270.214C72.2345 266.432 69.0607 260.671 66.4521 252.932L63.9087 245.498H46.0396L41.5398 257.106C41.3224 257.628 41.2137 258.149 41.2137 258.671C41.2137 259.193 41.4311 259.758 41.8658 260.367C42.3441 260.932 43.0615 261.215 44.0179 261.215H44.5397V261.867H31.4314V261.215H32.0183C33.0618 261.215 34.0835 260.91 35.0834 260.301C36.0834 259.649 36.9095 258.693 37.5616 257.432L53.735 218.694C51.3873 215.346 48.4743 213.672 44.9962 213.672C43.431 213.672 41.7571 213.999 39.9746 214.651L39.7789 213.999ZM46.757 243.541H63.2565L58.1045 228.346C57.1045 225.433 56.1915 223.15 55.3654 221.498L46.757 243.541ZM129.184 216.868C128.097 216.868 127.162 217.259 126.379 218.042C125.597 218.781 125.184 219.694 125.14 220.781V254.432C125.14 256.954 125.293 259.345 125.597 261.606L125.727 262.78H125.14L89.5979 224.824V257.302C89.5979 258.389 89.9892 259.323 90.7718 260.106C91.5544 260.845 92.4891 261.215 93.5761 261.215H94.8152V261.867H81.3808V261.215H82.6199C83.7068 261.215 84.6416 260.845 85.4241 260.106C86.2067 259.323 86.598 258.367 86.598 257.236V223.39C86.598 220.737 86.4458 218.368 86.1415 216.281L86.0111 215.238H86.6632L122.206 253.193V220.846C122.162 219.716 121.749 218.781 120.967 218.042C120.184 217.259 119.249 216.868 118.162 216.868H116.923V216.216H130.358V216.868H129.184ZM171.692 222.02C171.692 220.977 171.323 220.085 170.584 219.346C169.845 218.564 168.975 218.151 167.975 218.107H155.584V257.171C155.628 258.302 156.041 259.258 156.823 260.041C157.649 260.823 158.628 261.215 159.758 261.215H160.606V261.867H146.324V261.215H147.171C148.302 261.215 149.258 260.823 150.041 260.041C150.867 259.258 151.302 258.323 151.345 257.236V218.107H138.954C137.911 218.151 137.02 218.564 136.28 219.346C135.585 220.085 135.237 220.977 135.237 222.02V223.129L134.585 223.194V214.977C135.237 215.238 136.367 215.498 137.976 215.759C139.585 216.02 141.063 216.151 142.411 216.151H164.454C166.584 216.151 168.345 215.998 169.736 215.694C171.171 215.346 172.04 215.107 172.345 214.977V223.194L171.692 223.129V222.02ZM209.267 261.215C210.398 261.215 211.354 260.823 212.137 260.041C212.963 259.215 213.398 258.258 213.441 257.171V240.28H186.768V257.171C186.768 258.302 187.181 259.258 188.007 260.041C188.833 260.823 189.811 261.215 190.942 261.215H191.789V261.867H177.507V261.215H178.355C179.486 261.215 180.442 260.823 181.225 260.041C182.051 259.258 182.485 258.302 182.529 257.171V220.911C182.485 219.781 182.051 218.824 181.225 218.042C180.442 217.259 179.486 216.868 178.355 216.868H177.507V216.216H191.789V216.868H190.942C189.811 216.868 188.833 217.259 188.007 218.042C187.224 218.824 186.811 219.781 186.768 220.911V238.324H213.441V220.911C213.398 219.346 212.702 218.172 211.354 217.39C210.702 217.042 210.006 216.868 209.267 216.868H208.419V216.216H222.702V216.868H221.854C220.723 216.868 219.745 217.281 218.919 218.107C218.137 218.89 217.723 219.846 217.68 220.977V257.171C217.723 258.302 218.137 259.258 218.919 260.041C219.745 260.823 220.723 261.215 221.854 261.215H222.702V261.867H208.419V261.215H209.267ZM234.959 221.89C239.611 217.498 245.632 215.303 253.023 215.303C260.458 215.303 266.501 217.498 271.153 221.89C275.805 226.237 278.131 231.955 278.131 239.041C278.131 246.128 275.805 251.867 271.153 256.258C266.501 260.606 260.458 262.78 253.023 262.78C245.632 262.78 239.611 260.606 234.959 256.258C230.306 251.867 227.98 246.128 227.98 239.041C227.98 231.955 230.306 226.237 234.959 221.89ZM238.48 254.823C242.176 258.823 247.023 260.823 253.023 260.823C259.023 260.823 263.849 258.823 267.501 254.823C271.197 250.824 273.044 245.563 273.044 239.041C273.044 232.52 271.197 227.259 267.501 223.259C263.849 219.259 259.023 217.259 253.023 217.259C247.023 217.259 242.176 219.259 238.48 223.259C234.828 227.259 233.002 232.52 233.002 239.041C233.002 245.563 234.828 250.824 238.48 254.823ZM331.39 216.868C330.303 216.868 329.368 217.259 328.585 218.042C327.803 218.781 327.39 219.694 327.346 220.781V254.432C327.346 256.954 327.499 259.345 327.803 261.606L327.933 262.78H327.346L291.804 224.824V257.302C291.804 258.389 292.195 259.323 292.978 260.106C293.76 260.845 294.695 261.215 295.782 261.215H297.021V261.867H283.587V261.215H284.826C285.913 261.215 286.848 260.845 287.63 260.106C288.413 259.323 288.804 258.367 288.804 257.236V223.39C288.804 220.737 288.652 218.368 288.348 216.281L288.217 215.238H288.869L324.412 253.193V220.846C324.368 219.716 323.955 218.781 323.173 218.042C322.39 217.259 321.455 216.868 320.368 216.868H319.129V216.216H332.564V216.868H331.39ZM379.377 216.868H378.464C377.159 216.868 375.92 217.238 374.746 217.977C373.616 218.672 372.659 219.564 371.877 220.651L359.029 241.519V257.106C359.029 258.236 359.421 259.215 360.203 260.041C361.029 260.823 362.029 261.215 363.203 261.215H363.986V261.867H349.769V261.215H350.617C351.747 261.215 352.703 260.823 353.486 260.041C354.312 259.258 354.747 258.302 354.79 257.171V241.454L342.334 220.651C341.682 219.607 340.747 218.716 339.53 217.977C338.356 217.238 337.117 216.868 335.813 216.868H334.9V216.216H350.943V216.868H350.095C349.138 216.868 348.399 217.303 347.878 218.172C347.617 218.651 347.486 219.129 347.486 219.607C347.486 220.042 347.595 220.477 347.812 220.911L357.595 239.172L368.029 220.846C368.246 220.411 368.355 219.977 368.355 219.542C368.355 219.107 368.203 218.651 367.899 218.172C367.377 217.303 366.638 216.868 365.681 216.868H364.899V216.216H379.377V216.868ZM412.254 261.215H413.102V261.867H398.819V261.215H399.667C400.798 261.215 401.754 260.823 402.537 260.041C403.363 259.215 403.798 258.236 403.841 257.106V220.911C403.798 219.781 403.363 218.824 402.537 218.042C401.754 217.259 400.798 216.868 399.667 216.868H398.819V216.216H413.102V216.868H412.254C411.123 216.868 410.145 217.259 409.319 218.042C408.537 218.824 408.123 219.781 408.08 220.911V257.106C408.08 258.236 408.493 259.215 409.319 260.041C410.145 260.823 411.123 261.215 412.254 261.215ZM457.448 271.649V272.301C455.796 272.692 454.144 272.888 452.492 272.888C445.361 272.888 438.449 269.323 431.753 262.193L410.167 239.172L425.558 219.868C425.906 219.433 426.079 219.042 426.079 218.694C426.079 218.346 426.014 218.042 425.884 217.781C425.536 217.129 424.906 216.803 423.993 216.803H423.34V216.216H437.101V216.803H436.84C433.971 216.803 431.623 217.825 429.797 219.868L414.602 237.411L436.775 261.084C439.644 264.171 442.862 266.693 446.427 268.649C450.035 270.649 453.709 271.649 457.448 271.649ZM443.293 261.215C444.423 261.215 445.38 260.823 446.162 260.041C446.988 259.215 447.423 258.236 447.467 257.106V220.911C447.423 219.781 446.988 218.824 446.162 218.042C445.38 217.259 444.423 216.868 443.293 216.868H442.445V216.216H456.727V216.868H455.879C454.749 216.868 453.771 217.259 452.945 218.042C452.162 218.824 451.749 219.781 451.706 220.911V257.106C451.706 258.236 452.119 259.215 452.945 260.041C453.771 260.823 454.749 261.215 455.879 261.215H456.727V261.867H442.445V261.215H443.293ZM511.305 216.868C510.218 216.868 509.284 217.259 508.501 218.042C507.718 218.781 507.305 219.694 507.262 220.781V254.432C507.262 256.954 507.414 259.345 507.718 261.606L507.849 262.78H507.262L471.72 224.824V257.302C471.72 258.389 472.111 259.323 472.893 260.106C473.676 260.845 474.611 261.215 475.698 261.215H476.937V261.867H463.502V261.215H464.742C465.828 261.215 466.763 260.845 467.546 260.106C468.328 259.323 468.72 258.367 468.72 257.236V223.39C468.72 220.737 468.567 218.368 468.263 216.281L468.133 215.238H468.785L504.327 253.193V220.846C504.284 219.716 503.871 218.781 503.088 218.042C502.306 217.259 501.371 216.868 500.284 216.868H499.045V216.216H512.479V216.868H511.305ZM541.454 262.78C534.497 262.736 528.845 260.541 524.498 256.193C520.193 251.845 518.041 246.128 518.041 239.041C518.041 231.955 520.193 226.237 524.498 221.89C528.845 217.498 534.497 215.303 541.454 215.303C547.454 215.303 552.736 216.781 557.301 219.738L558.605 228.933H558.018C557.062 225.194 555.127 222.324 552.214 220.324C549.345 218.281 545.758 217.259 541.454 217.259C535.932 217.259 531.454 219.259 528.019 223.259C524.628 227.259 522.933 232.52 522.933 239.041C522.933 245.563 524.628 250.824 528.019 254.823C531.454 258.78 535.932 260.78 541.454 260.823C544.28 260.823 546.954 260.323 549.475 259.323C552.04 258.323 554.279 256.932 556.192 255.149V243.606C556.192 242.65 555.888 241.932 555.279 241.454C554.714 240.933 553.91 240.672 552.866 240.672H551.823V240.02H564.605V240.672H563.627C562.54 240.672 561.714 240.933 561.149 241.454C560.584 241.932 560.323 242.65 560.366 243.606V254.367C559.236 255.845 557.888 257.171 556.323 258.345C554.758 259.519 552.649 260.562 549.997 261.475C547.388 262.345 544.541 262.78 541.454 262.78Z" fill="#EDEDED"/>
<path d="M478.529 197.867L300.148 32.4945L119.648 197.867M566.161 194.518L538.263 166.859V113.949H510.364V139.2L454.568 83.883L406.451 131.045M32.0183 194.518L144.726 83.883L192.367 131.242" stroke="#EDEDED" stroke-width="8"/>
<line x1="164.445" y1="311.617" x2="32.7866" y2="311.617" stroke="#EDEDED" stroke-width="8"/>
<path d="M188.705 290.945V293.86H177.381V290.945H188.705ZM178.29 282.038V303.367H174.613V282.038H178.29ZM191.532 282.038V303.367H187.87V282.038H191.532ZM202.038 282.038L206.989 292.219L211.94 282.038H216.012L208.834 295.515V303.367H205.128V295.515L197.951 282.038H202.038ZM230.942 295.412H225.39V292.497H230.942C231.909 292.497 232.69 292.341 233.286 292.029C233.881 291.716 234.316 291.286 234.589 290.74C234.873 290.183 235.014 289.548 235.014 288.835C235.014 288.161 234.873 287.532 234.589 286.946C234.316 286.35 233.881 285.871 233.286 285.51C232.69 285.149 231.909 284.968 230.942 284.968H226.518V303.367H222.841V282.038H230.942C232.592 282.038 233.994 282.331 235.146 282.917C236.308 283.494 237.192 284.294 237.797 285.32C238.403 286.335 238.706 287.497 238.706 288.806C238.706 290.183 238.403 291.365 237.797 292.351C237.192 293.337 236.308 294.094 235.146 294.621C233.994 295.149 232.592 295.412 230.942 295.412ZM263.508 292.117V293.288C263.508 294.9 263.298 296.345 262.878 297.624C262.458 298.904 261.858 299.993 261.077 300.891C260.305 301.789 259.377 302.478 258.293 302.956C257.209 303.425 256.008 303.66 254.69 303.66C253.381 303.66 252.185 303.425 251.101 302.956C250.027 302.478 249.094 301.789 248.303 300.891C247.512 299.993 246.897 298.904 246.458 297.624C246.028 296.345 245.813 294.9 245.813 293.288V292.117C245.813 290.505 246.028 289.065 246.458 287.795C246.887 286.516 247.493 285.427 248.274 284.529C249.065 283.62 249.998 282.932 251.072 282.463C252.156 281.985 253.352 281.745 254.661 281.745C255.979 281.745 257.18 281.985 258.264 282.463C259.348 282.932 260.281 283.62 261.062 284.529C261.843 285.427 262.444 286.516 262.864 287.795C263.293 289.065 263.508 290.505 263.508 292.117ZM259.832 293.288V292.087C259.832 290.896 259.714 289.846 259.48 288.938C259.255 288.02 258.918 287.253 258.469 286.638C258.03 286.013 257.488 285.544 256.843 285.232C256.199 284.91 255.471 284.748 254.661 284.748C253.85 284.748 253.127 284.91 252.493 285.232C251.858 285.544 251.316 286.013 250.867 286.638C250.427 287.253 250.09 288.02 249.856 288.938C249.622 289.846 249.504 290.896 249.504 292.087V293.288C249.504 294.48 249.622 295.535 249.856 296.453C250.09 297.37 250.432 298.147 250.881 298.782C251.34 299.407 251.887 299.88 252.522 300.203C253.157 300.515 253.879 300.671 254.69 300.671C255.51 300.671 256.238 300.515 256.873 300.203C257.507 299.88 258.044 299.407 258.484 298.782C258.923 298.147 259.255 297.37 259.48 296.453C259.714 295.535 259.832 294.48 259.832 293.288ZM279.727 282.038V303.367H276.08V282.038H279.727ZM286.421 282.038V284.968H269.444V282.038H286.421ZM307.826 290.945V293.86H296.502V290.945H307.826ZM297.411 282.038V303.367H293.734V282.038H297.411ZM310.653 282.038V303.367H306.991V282.038H310.653ZM333.493 300.452V303.367H322.169V300.452H333.493ZM323.209 282.038V303.367H319.533V282.038H323.209ZM332.013 290.945V293.816H322.169V290.945H332.013ZM333.419 282.038V284.968H322.169V282.038H333.419ZM325.539 276.208L328.395 280.618H325.451L321.54 276.208H325.539ZM352.29 300.525L357.9 304.978L355.512 307.073L350.004 302.663L352.29 300.525ZM357.944 292.117V293.288C357.944 294.9 357.734 296.345 357.314 297.624C356.894 298.904 356.293 299.993 355.512 300.891C354.731 301.789 353.798 302.478 352.714 302.956C351.63 303.425 350.429 303.66 349.111 303.66C347.802 303.66 346.606 303.425 345.522 302.956C344.448 302.478 343.515 301.789 342.724 300.891C341.933 299.993 341.318 298.904 340.878 297.624C340.449 296.345 340.234 294.9 340.234 293.288V292.117C340.234 290.505 340.449 289.065 340.878 287.795C341.308 286.516 341.914 285.427 342.695 284.529C343.486 283.62 344.418 282.932 345.493 282.463C346.577 281.985 347.773 281.745 349.082 281.745C350.4 281.745 351.601 281.985 352.685 282.463C353.779 282.932 354.716 283.62 355.498 284.529C356.279 285.427 356.879 286.516 357.299 287.795C357.729 289.065 357.944 290.505 357.944 292.117ZM354.252 293.288V292.087C354.252 290.896 354.135 289.846 353.901 288.938C353.676 288.02 353.339 287.253 352.89 286.638C352.451 286.013 351.909 285.544 351.264 285.232C350.629 284.91 349.902 284.748 349.082 284.748C348.281 284.748 347.563 284.91 346.928 285.232C346.293 285.544 345.751 286.013 345.302 286.638C344.853 287.253 344.511 288.02 344.277 288.938C344.042 289.846 343.925 290.896 343.925 292.087V293.288C343.925 294.48 344.042 295.535 344.277 296.453C344.511 297.37 344.853 298.147 345.302 298.782C345.761 299.407 346.308 299.88 346.943 300.203C347.587 300.515 348.31 300.671 349.111 300.671C349.931 300.671 350.659 300.515 351.293 300.203C351.928 299.88 352.465 299.407 352.905 298.782C353.344 298.147 353.676 297.37 353.901 296.453C354.135 295.535 354.252 294.48 354.252 293.288ZM378.147 282.038H381.809V296.291C381.809 297.912 381.458 299.27 380.754 300.364C380.051 301.457 379.094 302.283 377.883 302.839C376.682 303.386 375.339 303.66 373.855 303.66C372.322 303.66 370.955 303.386 369.753 302.839C368.552 302.283 367.605 301.457 366.912 300.364C366.228 299.27 365.886 297.912 365.886 296.291V282.038H369.548V296.291C369.548 297.317 369.724 298.161 370.076 298.826C370.427 299.48 370.925 299.963 371.57 300.276C372.214 300.588 372.976 300.745 373.855 300.745C374.734 300.745 375.491 300.588 376.125 300.276C376.77 299.963 377.268 299.48 377.62 298.826C377.971 298.161 378.147 297.317 378.147 296.291V282.038ZM404.268 300.452V303.367H392.945V300.452H404.268ZM393.985 282.038V303.367H390.308V282.038H393.985ZM402.789 290.945V293.816H392.945V290.945H402.789ZM404.195 282.038V284.968H392.945V282.038H404.195ZM422.992 297.873C422.992 297.434 422.923 297.043 422.787 296.702C422.66 296.36 422.43 296.047 422.098 295.764C421.766 295.481 421.297 295.207 420.692 294.944C420.096 294.67 419.334 294.392 418.407 294.109C417.391 293.796 416.454 293.45 415.594 293.069C414.745 292.678 414.002 292.229 413.368 291.721C412.733 291.203 412.24 290.613 411.888 289.949C411.537 289.275 411.361 288.498 411.361 287.62C411.361 286.75 411.542 285.959 411.903 285.246C412.274 284.534 412.796 283.918 413.47 283.401C414.154 282.873 414.959 282.468 415.887 282.185C416.815 281.892 417.84 281.745 418.963 281.745C420.545 281.745 421.908 282.038 423.05 282.624C424.203 283.21 425.086 283.996 425.702 284.983C426.327 285.969 426.639 287.058 426.639 288.249H422.992C422.992 287.546 422.84 286.926 422.538 286.389C422.245 285.842 421.795 285.412 421.19 285.1C420.594 284.787 419.837 284.631 418.919 284.631C418.05 284.631 417.328 284.763 416.751 285.027C416.175 285.29 415.746 285.647 415.462 286.096C415.179 286.545 415.038 287.053 415.038 287.62C415.038 288.02 415.13 288.386 415.316 288.718C415.501 289.04 415.785 289.343 416.166 289.626C416.546 289.9 417.025 290.159 417.601 290.403C418.177 290.647 418.856 290.881 419.637 291.106C420.819 291.457 421.849 291.848 422.728 292.278C423.607 292.698 424.339 293.176 424.925 293.713C425.511 294.25 425.951 294.861 426.244 295.544C426.537 296.218 426.683 296.985 426.683 297.844C426.683 298.743 426.502 299.553 426.141 300.276C425.78 300.989 425.262 301.599 424.588 302.107C423.924 302.605 423.124 302.991 422.186 303.264C421.258 303.528 420.223 303.66 419.081 303.66C418.055 303.66 417.044 303.523 416.048 303.249C415.062 302.976 414.164 302.561 413.353 302.004C412.542 301.438 411.898 300.735 411.419 299.895C410.941 299.045 410.702 298.054 410.702 296.921H414.378C414.378 297.615 414.496 298.205 414.73 298.694C414.974 299.182 415.311 299.582 415.741 299.895C416.17 300.198 416.668 300.422 417.235 300.569C417.811 300.715 418.426 300.788 419.081 300.788C419.94 300.788 420.658 300.666 421.234 300.422C421.82 300.178 422.259 299.836 422.552 299.397C422.845 298.957 422.992 298.45 422.992 297.873Z" fill="#EDEDED"/>
<path d="M196.607 317.038H199.888L206.055 333.489L212.208 317.038H215.489L207.344 338.367H204.737L196.607 317.038ZM195.113 317.038H198.233L198.775 331.277V338.367H195.113V317.038ZM213.863 317.038H216.998V338.367H213.321V331.277L213.863 317.038ZM242.87 327.117V328.288C242.87 329.9 242.66 331.345 242.24 332.624C241.82 333.904 241.219 334.993 240.438 335.891C239.667 336.789 238.739 337.478 237.655 337.956C236.571 338.425 235.37 338.66 234.051 338.66C232.743 338.66 231.547 338.425 230.463 337.956C229.388 337.478 228.456 336.789 227.665 335.891C226.874 334.993 226.258 333.904 225.819 332.624C225.389 331.345 225.174 329.9 225.174 328.288V327.117C225.174 325.505 225.389 324.065 225.819 322.795C226.249 321.516 226.854 320.427 227.635 319.529C228.426 318.62 229.359 317.932 230.433 317.463C231.517 316.985 232.714 316.745 234.022 316.745C235.34 316.745 236.542 316.985 237.626 317.463C238.71 317.932 239.642 318.62 240.423 319.529C241.205 320.427 241.805 321.516 242.225 322.795C242.655 324.065 242.87 325.505 242.87 327.117ZM239.193 328.288V327.087C239.193 325.896 239.076 324.846 238.841 323.938C238.617 323.02 238.28 322.253 237.831 321.638C237.391 321.013 236.849 320.544 236.205 320.232C235.56 319.91 234.833 319.748 234.022 319.748C233.212 319.748 232.489 319.91 231.854 320.232C231.219 320.544 230.677 321.013 230.228 321.638C229.789 322.253 229.452 323.02 229.217 323.938C228.983 324.846 228.866 325.896 228.866 327.087V328.288C228.866 329.48 228.983 330.535 229.217 331.453C229.452 332.37 229.794 333.147 230.243 333.782C230.702 334.407 231.249 334.88 231.883 335.203C232.518 335.515 233.241 335.671 234.051 335.671C234.872 335.671 235.599 335.515 236.234 335.203C236.869 334.88 237.406 334.407 237.845 333.782C238.285 333.147 238.617 332.37 238.841 331.453C239.076 330.535 239.193 329.48 239.193 328.288ZM251.047 317.038H258.59C260.212 317.038 261.593 317.283 262.736 317.771C263.879 318.259 264.753 318.982 265.358 319.939C265.973 320.886 266.281 322.058 266.281 323.454C266.281 324.519 266.086 325.456 265.695 326.267C265.304 327.078 264.753 327.761 264.04 328.318C263.327 328.865 262.477 329.289 261.491 329.592L260.378 330.134H253.595L253.566 327.219H258.649C259.528 327.219 260.26 327.063 260.846 326.75C261.432 326.438 261.872 326.013 262.165 325.476C262.467 324.929 262.619 324.314 262.619 323.63C262.619 322.888 262.472 322.244 262.179 321.697C261.896 321.14 261.457 320.715 260.861 320.422C260.265 320.12 259.508 319.968 258.59 319.968H254.723V338.367H251.047V317.038ZM263.219 338.367L258.21 328.786L262.062 328.772L267.145 338.176V338.367H263.219ZM282.221 317.038V338.367H278.574V317.038H282.221ZM288.916 317.038V319.968H271.938V317.038H288.916ZM312.195 327.468V335.613C311.892 336.013 311.419 336.453 310.774 336.931C310.139 337.4 309.295 337.805 308.24 338.147C307.185 338.489 305.872 338.66 304.299 338.66C302.962 338.66 301.736 338.435 300.623 337.986C299.509 337.527 298.547 336.858 297.737 335.979C296.936 335.1 296.316 334.031 295.877 332.771C295.437 331.501 295.217 330.056 295.217 328.435V326.955C295.217 325.344 295.418 323.909 295.818 322.649C296.228 321.379 296.814 320.305 297.576 319.426C298.338 318.547 299.255 317.883 300.33 317.434C301.414 316.975 302.639 316.745 304.006 316.745C305.755 316.745 307.2 317.038 308.342 317.624C309.495 318.201 310.383 319.001 311.008 320.027C311.633 321.052 312.029 322.224 312.195 323.542H308.591C308.474 322.8 308.245 322.136 307.903 321.55C307.571 320.964 307.092 320.505 306.467 320.173C305.852 319.831 305.051 319.661 304.065 319.661C303.215 319.661 302.468 319.822 301.824 320.144C301.179 320.466 300.642 320.94 300.213 321.565C299.793 322.19 299.475 322.952 299.26 323.85C299.046 324.748 298.938 325.774 298.938 326.926V328.435C298.938 329.607 299.06 330.647 299.304 331.555C299.558 332.463 299.92 333.23 300.388 333.855C300.867 334.48 301.448 334.953 302.131 335.276C302.815 335.588 303.587 335.745 304.446 335.745C305.286 335.745 305.974 335.676 306.511 335.539C307.048 335.393 307.473 335.222 307.786 335.027C308.108 334.822 308.357 334.626 308.533 334.441V330.207H304.094V327.468H312.195ZM329.073 319.88L322.701 338.367H318.848L326.876 317.038H329.337L329.073 319.88ZM334.405 338.367L328.018 319.88L327.74 317.038H330.215L338.272 338.367H334.405ZM334.097 330.456V333.371H322.496V330.456H334.097ZM361.302 327.468V335.613C361 336.013 360.526 336.453 359.881 336.931C359.247 337.4 358.402 337.805 357.347 338.147C356.293 338.489 354.979 338.66 353.407 338.66C352.069 338.66 350.843 338.435 349.73 337.986C348.617 337.527 347.655 336.858 346.844 335.979C346.044 335.1 345.423 334.031 344.984 332.771C344.545 331.501 344.325 330.056 344.325 328.435V326.955C344.325 325.344 344.525 323.909 344.925 322.649C345.336 321.379 345.922 320.305 346.683 319.426C347.445 318.547 348.363 317.883 349.437 317.434C350.521 316.975 351.747 316.745 353.114 316.745C354.862 316.745 356.307 317.038 357.45 317.624C358.602 318.201 359.491 319.001 360.116 320.027C360.741 321.052 361.136 322.224 361.302 323.542H357.699C357.582 322.8 357.352 322.136 357.01 321.55C356.678 320.964 356.2 320.505 355.575 320.173C354.96 319.831 354.159 319.661 353.172 319.661C352.323 319.661 351.576 319.822 350.931 320.144C350.287 320.466 349.75 320.94 349.32 321.565C348.9 322.19 348.583 322.952 348.368 323.85C348.153 324.748 348.046 325.774 348.046 326.926V328.435C348.046 329.607 348.168 330.647 348.412 331.555C348.666 332.463 349.027 333.23 349.496 333.855C349.974 334.48 350.555 334.953 351.239 335.276C351.922 335.588 352.694 335.745 353.553 335.745C354.393 335.745 355.082 335.676 355.619 335.539C356.156 335.393 356.581 335.222 356.893 335.027C357.215 334.822 357.464 334.626 357.64 334.441V330.207H353.202V327.468H361.302ZM383.835 335.452V338.367H372.511V335.452H383.835ZM373.551 317.038V338.367H369.875V317.038H373.551ZM382.355 325.945V328.816H372.511V325.945H382.355ZM383.761 317.038V319.968H372.511V317.038H383.761ZM402.558 332.873C402.558 332.434 402.49 332.043 402.353 331.702C402.226 331.36 401.997 331.047 401.665 330.764C401.333 330.481 400.864 330.207 400.258 329.944C399.663 329.67 398.901 329.392 397.973 329.109C396.958 328.796 396.02 328.45 395.161 328.069C394.311 327.678 393.569 327.229 392.934 326.721C392.299 326.203 391.806 325.613 391.455 324.949C391.103 324.275 390.927 323.498 390.927 322.62C390.927 321.75 391.108 320.959 391.469 320.246C391.84 319.534 392.363 318.918 393.037 318.401C393.72 317.873 394.526 317.468 395.454 317.185C396.381 316.892 397.407 316.745 398.53 316.745C400.112 316.745 401.474 317.038 402.617 317.624C403.769 318.21 404.653 318.996 405.268 319.983C405.893 320.969 406.206 322.058 406.206 323.249H402.558C402.558 322.546 402.407 321.926 402.104 321.389C401.811 320.842 401.362 320.412 400.756 320.1C400.161 319.787 399.404 319.631 398.486 319.631C397.617 319.631 396.894 319.763 396.318 320.027C395.742 320.29 395.312 320.647 395.029 321.096C394.746 321.545 394.604 322.053 394.604 322.62C394.604 323.02 394.697 323.386 394.882 323.718C395.068 324.04 395.351 324.343 395.732 324.626C396.113 324.9 396.591 325.159 397.168 325.403C397.744 325.647 398.422 325.881 399.204 326.106C400.385 326.457 401.416 326.848 402.295 327.278C403.173 327.698 403.906 328.176 404.492 328.713C405.078 329.25 405.517 329.861 405.81 330.544C406.103 331.218 406.25 331.985 406.25 332.844C406.25 333.743 406.069 334.553 405.708 335.276C405.346 335.989 404.829 336.599 404.155 337.107C403.491 337.605 402.69 337.991 401.753 338.264C400.825 338.528 399.79 338.66 398.647 338.66C397.622 338.66 396.611 338.523 395.615 338.249C394.629 337.976 393.73 337.561 392.92 337.004C392.109 336.438 391.464 335.735 390.986 334.895C390.507 334.045 390.268 333.054 390.268 331.921H393.945C393.945 332.615 394.062 333.205 394.297 333.694C394.541 334.182 394.878 334.582 395.307 334.895C395.737 335.198 396.235 335.422 396.801 335.569C397.378 335.715 397.993 335.788 398.647 335.788C399.506 335.788 400.224 335.666 400.8 335.422C401.386 335.178 401.826 334.836 402.119 334.397C402.412 333.957 402.558 333.45 402.558 332.873Z" fill="#EDEDED"/>
<line x1="568.103" y1="311.617" x2="436.445" y2="311.617" stroke="#EDEDED" stroke-width="8"/>
</svg>
