<svg width="602" height="196" viewBox="0 0 602 196" fill="none" xmlns="http://www.w3.org/2000/svg">
<path d="M14.4402 47.0247C15.7091 93.5186 64.772 87.1784 64.772 87.1784C26.706 73.2301 25.8603 57.1688 25.8603 57.1688L36.4341 53.7873L65.618 70.694L74.923 91.4052L73.2312 117.188L62.6977 129.868L48.2766 138.744L41.5095 141.28L40.2405 136.208L45.3161 115.075L62.6571 107.044C26.706 105.776 33.8963 148.888 33.8963 148.888C75.7687 151.847 81.6903 94.7864 81.6903 94.7864L97.7626 113.322V98.3969C97.7626 98.3969 91.841 93.5186 70.6934 68.1582C54.8325 49.138 31.1208 46.7605 20.2561 46.7605C16.6346 46.7605 14.4402 47.0247 14.4402 47.0247Z" fill="url(#paint0_linear_201_12966)"/>
<path d="M124.832 68.159C103.685 93.5194 97.7634 98.3976 97.7634 98.3976V113.323L113.835 94.7872C113.835 94.7872 119.757 151.848 161.63 148.889C161.63 148.889 168.82 105.777 132.869 107.045L150.21 115.076L155.285 136.209L154.016 141.281L147.249 138.745L132.828 129.869L122.295 117.189L120.603 91.4059L129.908 70.6948L159.092 53.7881L169.666 57.1696C169.666 57.1696 168.82 73.2309 130.754 87.1792C130.754 87.1792 179.817 93.5194 181.086 47.0255C181.086 47.0255 178.891 46.7613 175.27 46.7613C164.405 46.7613 140.693 49.1388 124.832 68.159Z" fill="url(#paint1_linear_201_12966)"/>
<path d="M132.445 64.3543C111.298 82.1065 97.763 106.199 97.763 106.199C97.763 106.199 84.2285 82.1065 63.0807 64.3543C41.9328 46.6019 15.2866 49.138 15.2866 49.138C15.3192 49.4219 15.3539 49.7035 15.3902 49.9828C20.0758 85.8781 55.8904 83.7972 55.8904 83.7972C21.208 66.8902 25.8607 57.1689 25.8607 57.1689C25.8607 57.1689 66.4642 58.4367 72.3856 89.2917C80.2718 130.385 42.7788 138.322 42.7788 138.322C45.7394 112.116 62.6575 107.044 62.6575 107.044C30.5129 104.085 33.4736 145.507 33.4736 145.507C33.4736 145.507 42.7788 149.734 60.966 136.631C85.5274 118.936 81.6907 94.7865 81.6907 94.7865L97.763 113.322L113.835 94.7865C113.835 94.7865 109.998 118.936 134.56 136.631C152.747 149.734 162.052 145.507 162.052 145.507C162.052 145.507 165.013 104.085 132.868 107.044C132.868 107.044 149.787 112.116 152.747 138.322C152.747 138.322 115.254 130.385 123.14 89.2917C129.062 58.4367 169.666 57.1689 169.666 57.1689C169.666 57.1689 174.318 66.8902 139.635 83.7972C139.635 83.7972 175.45 85.8781 180.136 49.9828C180.172 49.7035 180.207 49.4219 180.239 49.138C180.239 49.138 178.922 49.0127 176.644 49.0127C168.669 49.0125 148.895 50.5459 132.445 64.3543Z" fill="#FFF8F5"/>
<path d="M202.424 120.788L210.423 68.1048C210.666 66.7311 211.15 66.0039 211.797 66.0039C212.443 66.0039 212.928 66.4079 213.979 68.5088L236.038 114.081L258.016 67.9432C258.662 66.6503 259.066 66.0039 259.793 66.0039C260.521 66.0039 261.005 66.8119 261.248 68.5088L268.601 118.445C269.328 123.535 270.136 125.878 272.56 126.606C274.903 127.333 276.52 127.414 277.57 127.414C278.297 127.414 278.863 127.494 278.863 127.979C278.863 128.626 277.893 128.868 276.762 128.868C274.742 128.868 263.591 128.626 260.359 128.383C258.501 128.222 258.016 127.979 258.016 127.494C258.016 127.09 258.339 126.848 258.905 126.606C259.389 126.444 259.632 125.394 259.309 123.131L254.46 87.5781H254.137L236.522 124.262C234.664 128.06 234.26 128.787 233.533 128.787C232.805 128.787 231.997 127.171 230.705 124.747C228.765 121.03 222.382 108.667 221.412 106.405C220.685 104.708 215.837 94.5271 213.009 88.4669H212.686L208.484 120.626C208.322 122.081 208.242 123.131 208.242 124.424C208.242 125.959 209.292 126.686 210.666 127.01C212.12 127.333 213.251 127.414 214.059 127.414C214.706 127.414 215.271 127.575 215.271 127.979C215.271 128.706 214.544 128.868 213.332 128.868C209.938 128.868 206.302 128.626 204.848 128.626C203.313 128.626 199.434 128.868 196.848 128.868C196.04 128.868 195.394 128.706 195.394 127.979C195.394 127.575 195.879 127.414 196.687 127.414C197.333 127.414 197.899 127.414 199.111 127.171C201.373 126.686 202.02 123.535 202.424 120.788Z" fill="#FFF8F5"/>
<path d="M311.029 129.757C290.344 129.757 281.94 115.051 281.94 102.85C281.94 91.1334 290.182 75.9426 311.756 75.9426C329.694 75.9426 340.845 85.8813 340.845 101.638C340.845 117.394 329.371 129.757 311.029 129.757ZM313.938 126.04C318.948 126.04 330.26 123.697 330.26 104.143C330.26 88.9517 321.129 79.5787 309.655 79.5787C301.737 79.5787 292.444 83.7804 292.444 100.749C292.444 114.889 300.525 126.04 313.938 126.04Z" fill="#FFF8F5"/>
<path d="M357.723 91.4566L358.531 119.495C358.692 124.828 359.581 126.444 360.955 126.929C362.167 127.333 363.54 127.414 364.672 127.414C365.48 127.414 365.884 127.737 365.884 128.141C365.884 128.706 365.237 128.868 364.268 128.868C359.662 128.868 356.349 128.626 355.056 128.626C354.41 128.626 351.016 128.868 347.38 128.868C346.41 128.868 345.764 128.787 345.764 128.141C345.764 127.737 346.249 127.414 346.895 127.414C347.865 127.414 349.158 127.333 350.127 127.09C351.986 126.606 352.228 124.747 352.309 118.768L352.955 78.0434C352.955 76.6698 353.44 75.7002 354.167 75.7002C355.056 75.7002 356.026 76.7506 357.238 77.9626C358.127 78.8515 368.792 89.7598 379.135 99.86C383.983 104.627 393.437 114.324 394.488 115.293H394.811L394.084 84.75C394.003 80.5483 393.356 79.3363 391.66 78.6899C390.609 78.2858 388.912 78.2858 387.943 78.2858C387.054 78.2858 386.811 77.9626 386.811 77.5586C386.811 76.993 387.539 76.9122 388.589 76.9122C392.306 76.9122 396.104 77.0738 397.639 77.0738C398.447 77.0738 401.113 76.9122 404.588 76.9122C405.558 76.9122 406.204 76.993 406.204 77.5586C406.204 77.9626 405.8 78.2858 404.992 78.2858C404.265 78.2858 403.699 78.2858 402.81 78.5283C400.871 79.0939 400.305 80.3059 400.225 84.1844L399.417 127.494C399.417 129.03 398.851 129.676 398.285 129.676C397.073 129.676 396.104 128.949 395.376 128.222C390.932 124.101 382.044 115.616 374.61 108.425C366.853 100.991 359.339 92.6686 357.965 91.4566H357.723Z" fill="#FFF8F5"/>
<path d="M441.823 111.576H425.097C424.693 111.576 424.612 111.657 424.451 112.061L420.653 121.273C419.926 122.969 419.603 124.666 419.603 125.474C419.603 126.686 420.249 127.414 422.431 127.414H423.481C424.37 127.414 424.532 127.737 424.532 128.141C424.532 128.706 424.128 128.868 423.4 128.868C421.057 128.868 417.744 128.626 415.482 128.626C414.754 128.626 410.957 128.868 407.24 128.868C406.351 128.868 405.947 128.706 405.947 128.141C405.947 127.737 406.189 127.414 406.755 127.414C407.401 127.414 408.209 127.333 408.856 127.333C412.088 126.848 413.3 124.747 414.754 121.273L433.339 78.0434C434.147 76.1042 434.713 75.2962 435.44 75.2962C436.49 75.2962 436.813 75.9426 437.541 77.4778C439.238 81.2755 451.115 109.395 455.64 119.818C458.388 126.04 460.408 126.929 461.701 127.171C462.751 127.333 463.559 127.414 464.367 127.414C465.013 127.414 465.337 127.656 465.337 128.141C465.337 128.706 464.933 128.868 462.266 128.868C459.761 128.868 454.59 128.868 448.611 128.706C447.318 128.626 446.51 128.626 446.51 128.141C446.51 127.737 446.671 127.494 447.399 127.414C447.883 127.333 448.368 126.686 448.045 125.878L442.55 112.061C442.389 111.657 442.146 111.576 441.823 111.576ZM426.552 107.779H440.288C440.611 107.779 440.692 107.617 440.611 107.375L433.905 89.9214C433.824 89.679 433.743 89.275 433.581 89.275C433.339 89.275 433.258 89.679 433.177 89.9214L426.309 107.294C426.148 107.617 426.309 107.779 426.552 107.779Z" fill="#FFF8F5"/>
<path d="M473.08 108.91V96.7896C473.08 86.3661 473.08 84.4268 473 82.2452C472.838 79.9019 472.192 79.1747 469.929 78.5283C469.364 78.3666 468.151 78.2858 467.101 78.2858C466.374 78.2858 465.889 78.0434 465.889 77.5586C465.889 77.0738 466.455 76.9122 467.505 76.9122C471.222 76.9122 475.747 77.0738 477.201 77.0738C479.625 77.0738 486.09 76.9122 488.271 76.9122C492.796 76.9122 497.968 77.3162 501.765 79.8211C503.785 81.1947 506.775 84.6692 506.775 89.275C506.775 94.3655 503.866 98.8904 496.917 104.466C503.22 112.223 508.229 118.445 512.512 122.727C516.471 126.686 518.976 127.01 520.107 127.252C520.835 127.414 521.239 127.414 521.804 127.414C522.37 127.414 522.693 127.818 522.693 128.141C522.693 128.706 522.208 128.868 521.319 128.868H514.532C510.573 128.868 508.633 128.464 506.775 127.494C503.704 125.959 501.038 122.727 497.079 117.394C494.251 113.677 491.261 109.072 490.372 108.021C489.968 107.617 489.564 107.536 489.079 107.536L482.696 107.375C482.373 107.375 482.13 107.536 482.13 107.94V108.91C482.13 115.293 482.211 120.626 482.534 123.535C482.777 125.555 483.1 126.848 485.282 127.171C486.332 127.333 487.867 127.414 488.756 127.414C489.322 127.414 489.645 127.818 489.645 128.141C489.645 128.626 489.079 128.868 488.19 128.868C484.07 128.868 478.171 128.626 477.121 128.626C475.747 128.626 471.222 128.868 468.394 128.868C467.505 128.868 467.02 128.626 467.02 128.141C467.02 127.818 467.263 127.414 468.152 127.414C469.202 127.414 470.01 127.333 470.656 127.171C472.111 126.848 472.515 125.555 472.757 123.535C473.08 120.626 473.08 115.212 473.08 108.91ZM482.13 81.6795V102.123C482.13 102.85 482.292 103.092 482.777 103.335C484.312 103.819 486.413 103.981 488.19 103.981C491.019 103.981 491.988 103.739 493.2 102.85C495.382 101.314 497.806 98.3248 497.806 92.6686C497.806 82.9724 491.18 80.4675 486.978 80.4675C485.201 80.4675 483.504 80.5483 482.777 80.7099C482.292 80.8715 482.13 81.1139 482.13 81.6795Z" fill="#FFF8F5"/>
<path d="M537.766 96.7896V99.86H538.09C540.514 97.2744 550.856 87.0933 552.957 84.75C554.977 82.4876 556.513 80.8715 556.513 79.6595C556.513 78.9323 556.189 78.4474 555.543 78.2858C554.896 78.1242 554.573 77.9626 554.573 77.5586C554.573 77.0738 554.977 76.9122 555.704 76.9122C557.24 76.9122 561.118 77.0738 563.058 77.0738C565.239 77.0738 569.199 76.9122 571.38 76.9122C572.107 76.9122 572.592 77.0738 572.592 77.5586C572.592 78.0434 572.188 78.2858 571.542 78.2858C570.491 78.2858 568.714 78.6091 567.421 79.0939C565.158 79.9019 562.896 81.3563 559.906 84.1844C557.644 86.2853 547.059 96.3047 544.877 98.8096C547.382 102.042 561.361 116.586 564.108 119.172C567.259 122 570.007 124.99 573.804 126.525C575.905 127.414 577.36 127.414 578.168 127.414C578.733 127.414 579.137 127.737 579.137 128.141C579.137 128.626 578.733 128.868 577.44 128.868H571.219C569.118 128.868 567.825 128.868 566.29 128.706C562.492 128.383 560.149 126.929 557.078 124.262C554.008 121.596 540.352 105.759 538.817 103.658L538.09 102.688H537.766V108.91C537.766 115.212 537.766 120.626 537.928 123.616C538.09 125.555 538.736 126.848 540.514 127.171C541.483 127.333 543.099 127.414 543.988 127.414C544.554 127.414 544.958 127.818 544.958 128.141C544.958 128.626 544.392 128.868 543.584 128.868C539.625 128.868 534.534 128.626 532.757 128.626C531.141 128.626 526.616 128.868 523.788 128.868C522.899 128.868 522.414 128.626 522.414 128.141C522.414 127.818 522.656 127.414 523.545 127.414C524.596 127.414 525.404 127.333 526.05 127.171C527.505 126.848 527.909 125.555 528.151 123.535C528.474 120.626 528.474 115.212 528.474 108.91V96.7896C528.474 86.3661 528.474 84.4268 528.393 82.2452C528.232 79.9019 527.585 79.1747 525.323 78.5283C524.757 78.3666 523.545 78.2858 522.495 78.2858C521.768 78.2858 521.283 78.0434 521.283 77.5586C521.283 77.0738 521.848 76.9122 522.899 76.9122C526.616 76.9122 531.141 77.0738 532.837 77.0738C534.534 77.0738 539.625 76.9122 541.968 76.9122C543.019 76.9122 543.503 77.0738 543.503 77.5586C543.503 78.0434 543.099 78.2858 542.534 78.2858C541.807 78.2858 541.402 78.3666 540.514 78.5283C538.574 78.8515 538.009 79.8211 537.847 82.2452C537.766 84.4268 537.766 86.3661 537.766 96.7896Z" fill="#FFF8F5"/>
<defs>
<linearGradient id="paint0_linear_201_12966" x1="14.4403" y1="97.8801" x2="97.7625" y2="97.8801" gradientUnits="userSpaceOnUse">
<stop stop-color="#141414"/>
<stop offset="1" stop-color="#838383"/>
</linearGradient>
<linearGradient id="paint1_linear_201_12966" x1="97.7634" y1="97.8809" x2="181.086" y2="97.8809" gradientUnits="userSpaceOnUse">
<stop stop-color="#141414"/>
<stop offset="1" stop-color="#838383"/>
</linearGradient>
</defs>
</svg>
