<svg width="601" height="98" viewBox="0 0 601 98" fill="none" xmlns="http://www.w3.org/2000/svg">
<path d="M72.8409 84.6705C71.3307 86.1807 68.8822 86.1807 67.372 84.6705C65.8618 83.1603 65.8618 80.7118 67.372 79.2016L87.6203 58.9533C92.9433 53.6303 92.9433 45 87.6203 39.6769L66.8152 18.8718C65.2781 17.3347 65.2781 14.8425 66.8152 13.3053C68.3524 11.7682 70.8446 11.7682 72.3817 13.3053L93.1868 34.1104C98.5099 39.4334 107.14 39.4334 112.463 34.1104L133.722 12.8515C135.232 11.3413 137.681 11.3413 139.191 12.8515C140.701 14.3617 140.701 16.8102 139.191 18.3204L117.932 39.5793C112.609 44.9023 112.609 53.5326 117.932 58.8557L138.638 79.562C140.176 81.0991 140.176 83.5914 138.638 85.1285C137.101 86.6656 134.609 86.6656 133.072 85.1285L112.366 64.4222C107.043 59.0992 98.4122 59.0992 93.0892 64.4222L72.8409 84.6705ZM159.845 55.6363C156.021 59.4607 149.82 59.4607 145.996 55.6363C142.171 51.8119 142.171 45.6114 145.996 41.787C149.82 37.9627 156.021 37.9627 159.845 41.787C163.669 45.6114 163.669 51.8119 159.845 55.6363ZM106.016 81.9965C104.478 83.534 101.986 83.534 100.448 81.9965C98.9106 80.4589 98.9106 77.9661 100.448 76.4286C101.986 74.8911 104.478 74.8911 106.016 76.4286C107.554 77.9661 107.554 80.4589 106.016 81.9965ZM60.4683 55.6363C56.644 59.4607 50.4434 59.4607 46.6191 55.6363C42.7947 51.8119 42.7947 45.6114 46.6191 41.787C50.4434 37.9627 56.644 37.9627 60.4683 41.787C64.2927 45.6114 64.2927 51.8119 60.4683 55.6363Z" stroke="#F4F4F4" stroke-width="3.8375"/>
<path d="M210.49 73.6238C207.396 73.6238 204.715 73.1082 202.447 72.077C200.178 71.0459 198.425 69.5817 197.188 67.6844C195.992 65.7458 195.373 63.4773 195.332 60.8789H203.066C203.066 62.7349 203.726 64.1991 205.045 65.2715C206.406 66.3027 208.242 66.8182 210.552 66.8182C212.779 66.8182 214.511 66.3027 215.749 65.2715C217.027 64.2404 217.667 62.8174 217.667 61.0026C217.667 59.4765 217.213 58.1566 216.305 57.043C215.439 55.8881 214.181 55.1045 212.531 54.692L207.335 53.269C203.787 52.3616 201.045 50.7324 199.106 48.3814C197.209 46.0304 196.26 43.1845 196.26 39.8436C196.26 37.2863 196.837 35.0591 197.992 33.1618C199.147 31.2645 200.776 29.8003 202.88 28.7691C205.025 27.738 207.541 27.2224 210.428 27.2224C214.8 27.2224 218.265 28.3567 220.822 30.6252C223.379 32.8524 224.678 35.8634 224.72 39.658H216.986C216.986 37.8844 216.409 36.5027 215.254 35.5128C214.099 34.4816 212.47 33.9661 210.366 33.9661C208.345 33.9661 206.778 34.4404 205.664 35.389C204.55 36.3377 203.994 37.6782 203.994 39.4105C203.994 40.9778 204.406 42.3183 205.231 43.4319C206.097 44.5043 207.335 45.2674 208.943 45.7211L214.326 47.2059C217.914 48.1133 220.657 49.7425 222.554 52.0935C224.451 54.4033 225.4 57.2699 225.4 60.6932C225.4 63.2505 224.781 65.519 223.544 67.4988C222.307 69.4373 220.574 70.9428 218.347 72.0152C216.12 73.0876 213.501 73.6238 210.49 73.6238Z" fill="#F4F4F4"/>
<path d="M247.649 73.6238C244.761 73.6238 242.225 73.0876 240.039 72.0152C237.894 70.9015 236.224 69.3548 235.027 67.375C233.831 65.354 233.233 62.9824 233.233 60.2602V51.7223C233.233 48.9589 233.831 46.5872 235.027 44.6074C236.224 42.6277 237.894 41.1016 240.039 40.0292C242.225 38.9156 244.761 38.3587 247.649 38.3587C251.938 38.3587 255.362 39.4724 257.919 41.6996C260.476 43.8857 261.816 46.876 261.94 50.6706H254.207C254.083 48.897 253.444 47.5359 252.289 46.5872C251.175 45.5973 249.628 45.1024 247.649 45.1024C245.586 45.1024 243.957 45.6798 242.761 46.8347C241.565 47.9483 240.967 49.5569 240.967 51.6604V60.2602C240.967 62.3637 241.565 63.9929 242.761 65.1478C243.957 66.3027 245.586 66.8801 247.649 66.8801C249.628 66.8801 251.175 66.4058 252.289 65.4571C253.444 64.4672 254.083 63.0855 254.207 61.3119H261.94C261.816 65.1065 260.476 68.1175 257.919 70.3447C255.362 72.5307 251.938 73.6238 247.649 73.6238Z" fill="#F4F4F4"/>
<path d="M270.701 73.0051V65.9521H282.58V45.9686H272.248V38.9774H290.004V65.9521H300.522V73.0051H270.701ZM285.674 33.2855C284.106 33.2855 282.869 32.8937 281.961 32.11C281.054 31.2851 280.6 30.1921 280.6 28.831C280.6 27.4699 281.054 26.3975 281.961 25.6138C282.869 24.7889 284.106 24.3765 285.674 24.3765C287.241 24.3765 288.478 24.7889 289.386 25.6138C290.293 26.3975 290.747 27.4699 290.747 28.831C290.747 30.1921 290.293 31.2851 289.386 32.11C288.478 32.8937 287.241 33.2855 285.674 33.2855Z" fill="#F4F4F4"/>
<path d="M307.86 73.0051V38.9774H315.408V45.4736H317.512L315.408 47.2678C315.408 44.4631 316.212 42.2771 317.821 40.7097C319.471 39.1424 321.719 38.3587 324.565 38.3587C327.906 38.3587 330.566 39.4724 332.546 41.6996C334.567 43.9269 335.577 46.9172 335.577 50.6706V73.0051H327.844V51.4748C327.844 49.4126 327.307 47.8246 326.235 46.711C325.163 45.5973 323.657 45.0405 321.719 45.0405C319.821 45.0405 318.316 45.618 317.202 46.7728C316.13 47.9277 315.594 49.5775 315.594 51.7223V73.0051H307.86Z" fill="#F4F4F4"/>
<path d="M362.466 73.0051C359.207 73.0051 356.65 72.0977 354.794 70.2829C352.979 68.468 352.072 65.9727 352.072 62.7968V45.9686H342.854V38.9774H352.072V29.3878H359.867V38.9774H372.922V45.9686H359.867V62.7968C359.867 64.9416 360.919 66.0139 363.023 66.0139H372.303V73.0051H362.466Z" fill="#F4F4F4"/>
<path d="M381.992 73.0051V65.9521H393.871V45.9686H383.539V38.9774H401.295V65.9521H411.813V73.0051H381.992ZM396.964 33.2855C395.397 33.2855 394.16 32.8937 393.252 32.11C392.345 31.2851 391.891 30.1921 391.891 28.831C391.891 27.4699 392.345 26.3975 393.252 25.6138C394.16 24.7889 395.397 24.3765 396.964 24.3765C398.532 24.3765 399.769 24.7889 400.676 25.6138C401.584 26.3975 402.037 27.4699 402.037 28.831C402.037 30.1921 401.584 31.2851 400.676 32.11C399.769 32.8937 398.532 33.2855 396.964 33.2855Z" fill="#F4F4F4"/>
<path d="M438.144 73.0051C435.917 73.0051 433.958 72.5514 432.267 71.644C430.617 70.7366 429.318 69.4579 428.369 67.8081C427.421 66.1171 426.946 64.1785 426.946 61.9925V34.8322H416.057V27.8411H434.68V61.9925C434.68 63.2299 435.03 64.2197 435.732 64.9622C436.474 65.6633 437.464 66.0139 438.701 66.0139H448.971V73.0051H438.144Z" fill="#F4F4F4"/>
<path d="M475.241 73.0051C473.014 73.0051 471.055 72.5514 469.364 71.644C467.714 70.7366 466.415 69.4579 465.466 67.8081C464.518 66.1171 464.043 64.1785 464.043 61.9925V34.8322H453.154V27.8411H471.777V61.9925C471.777 63.2299 472.127 64.2197 472.828 64.9622C473.571 65.6633 474.561 66.0139 475.798 66.0139H486.068V73.0051H475.241Z" fill="#F4F4F4"/>
<path d="M503.367 73.6238C499.861 73.6238 497.098 72.6957 495.077 70.8397C493.056 68.9836 492.045 66.4883 492.045 63.3536C492.045 60.0127 493.159 57.4348 495.386 55.62C497.614 53.8052 500.769 52.8978 504.852 52.8978H513.328V49.99C513.328 48.3402 512.792 47.0616 511.72 46.1542C510.647 45.2055 509.183 44.7312 507.327 44.7312C505.636 44.7312 504.234 45.1024 503.12 45.8448C502.006 46.5872 501.346 47.5978 501.14 48.8764H493.592C493.963 45.6592 495.407 43.102 497.923 41.2047C500.439 39.3074 503.656 38.3587 507.574 38.3587C511.74 38.3587 515.019 39.4105 517.412 41.514C519.845 43.5763 521.062 46.381 521.062 49.9281V73.0051H513.576V67.0657H512.338L513.576 65.3952C513.576 67.9112 512.648 69.9116 510.792 71.3965C508.936 72.8813 506.461 73.6238 503.367 73.6238ZM505.904 67.8081C508.09 67.8081 509.864 67.2513 511.225 66.1377C512.627 65.024 513.328 63.5804 513.328 61.8069V57.6617H504.976C503.409 57.6617 502.151 58.1154 501.202 59.0228C500.253 59.9302 499.779 61.1263 499.779 62.6112C499.779 64.2197 500.315 65.4984 501.388 66.447C502.501 67.3544 504.007 67.8081 505.904 67.8081Z" fill="#F4F4F4"/>
<path d="M531.493 73.0051V38.9774H538.794V45.4736H540.712L538.423 49.4332C538.423 45.7623 539.248 42.9989 540.897 41.1428C542.547 39.2868 544.981 38.3587 548.198 38.3587C551.869 38.3587 554.756 39.493 556.859 41.7615C558.963 44.03 560.015 47.1647 560.015 51.1655V53.6402H551.91V51.7223C551.91 49.5363 551.333 47.8452 550.178 46.6491C549.064 45.453 547.517 44.8549 545.537 44.8549C543.516 44.8549 541.949 45.453 540.836 46.6491C539.763 47.8452 539.227 49.5363 539.227 51.7223V73.0051H531.493Z" fill="#F4F4F4"/>
</svg>
