<svg width="500" height="500" viewBox="0 0 500 500" fill="none" xmlns="http://www.w3.org/2000/svg">
<rect width="500" height="500" fill="#F4F4F4"/>
<path d="M55.7757 249.951C57.8919 249.072 59.9267 248.633 61.88 248.633C63.5079 248.633 65.1845 249.235 66.91 250.44C67.8542 251.091 68.9123 252.36 70.0843 254.249C70.8656 255.551 71.8586 257.911 73.0632 261.33L79.0211 278.227C80.3884 282.003 81.7721 284.998 83.172 287.212C84.6045 289.459 85.9068 291.135 87.0788 292.242C88.2508 293.382 89.4717 294.179 90.7414 294.635C92.0111 295.091 93.0529 295.319 93.8668 295.319C94.7133 295.319 95.4621 295.254 96.1132 295.123L96.1621 295.612C94.5994 296.133 93.0692 296.393 91.5716 296.393C90.074 296.393 88.5764 296.002 87.0788 295.221C85.5812 294.472 84.1813 293.414 82.879 292.047C80.0791 289.214 77.7025 284.901 75.7491 279.106L73.8446 273.538H60.4638L57.0942 282.231C56.9315 282.622 56.8501 283.012 56.8501 283.403C56.8501 283.794 57.0128 284.217 57.3384 284.673C57.6965 285.096 58.2337 285.308 58.95 285.308H59.3406V285.796H49.5248V285.308H49.9644C50.7457 285.308 51.5108 285.08 52.2596 284.624C53.0084 284.136 53.627 283.419 54.1153 282.475L66.2263 253.467C64.4683 250.96 62.287 249.707 59.6825 249.707C58.5104 249.707 57.257 249.951 55.9222 250.44L55.7757 249.951ZM61.001 272.073H73.3562L69.4983 260.695C68.7495 258.514 68.0658 256.804 67.4472 255.567L61.001 272.073ZM122.724 252.1C121.91 252.1 121.21 252.393 120.624 252.979C120.038 253.532 119.729 254.216 119.696 255.03V280.229C119.696 282.117 119.81 283.908 120.038 285.601L120.136 286.48H119.696L93.0813 258.058V282.377C93.0813 283.191 93.3743 283.891 93.9603 284.477C94.5463 285.031 95.2463 285.308 96.0602 285.308H96.9881V285.796H86.9281V285.308H87.856C88.6699 285.308 89.3698 285.031 89.9559 284.477C90.5419 283.891 90.8349 283.175 90.8349 282.329V256.983C90.8349 254.997 90.7209 253.223 90.493 251.66L90.3954 250.879H90.8837L117.499 279.301V255.079C117.466 254.232 117.157 253.532 116.571 252.979C115.985 252.393 115.285 252.1 114.471 252.1H113.543V251.612H123.603V252.1H122.724ZM154.556 255.958C154.556 255.176 154.279 254.509 153.725 253.956C153.172 253.37 152.521 253.06 151.772 253.028H142.493V282.28C142.526 283.126 142.835 283.843 143.421 284.429C144.04 285.015 144.772 285.308 145.619 285.308H146.254V285.796H135.559V285.308H136.194C137.04 285.308 137.756 285.015 138.342 284.429C138.961 283.843 139.286 283.143 139.319 282.329V253.028H130.04C129.259 253.06 128.592 253.37 128.038 253.956C127.517 254.509 127.257 255.176 127.257 255.958V256.788L126.769 256.837V250.684C127.257 250.879 128.103 251.074 129.308 251.27C130.513 251.465 131.619 251.563 132.629 251.563H149.135C150.73 251.563 152.049 251.449 153.09 251.221C154.165 250.96 154.816 250.781 155.044 250.684V256.837L154.556 256.788V255.958ZM182.692 285.308C183.539 285.308 184.255 285.015 184.841 284.429C185.46 283.81 185.785 283.094 185.818 282.28V269.632H165.844V282.28C165.844 283.126 166.154 283.843 166.772 284.429C167.391 285.015 168.123 285.308 168.97 285.308H169.605V285.796H158.91V285.308H159.545C160.391 285.308 161.107 285.015 161.693 284.429C162.312 283.843 162.638 283.126 162.67 282.28V255.128C162.638 254.281 162.312 253.565 161.693 252.979C161.107 252.393 160.391 252.1 159.545 252.1H158.91V251.612H169.605V252.1H168.97C168.123 252.1 167.391 252.393 166.772 252.979C166.186 253.565 165.877 254.281 165.844 255.128V268.167H185.818V255.128C185.785 253.956 185.264 253.077 184.255 252.491C183.767 252.23 183.246 252.1 182.692 252.1H182.058V251.612H192.752V252.1H192.117C191.271 252.1 190.538 252.409 189.92 253.028C189.334 253.614 189.025 254.33 188.992 255.176V282.28C189.025 283.126 189.334 283.843 189.92 284.429C190.538 285.015 191.271 285.308 192.117 285.308H192.752V285.796H182.058V285.308H182.692ZM201.931 255.86C205.414 252.572 209.923 250.928 215.458 250.928C221.025 250.928 225.55 252.572 229.034 255.86C232.517 259.116 234.259 263.397 234.259 268.704C234.259 274.01 232.517 278.308 229.034 281.596C225.55 284.852 221.025 286.48 215.458 286.48C209.923 286.48 205.414 284.852 201.931 281.596C198.447 278.308 196.705 274.01 196.705 268.704C196.705 263.397 198.447 259.116 201.931 255.86ZM204.568 280.522C207.335 283.517 210.965 285.015 215.458 285.015C219.951 285.015 223.564 283.517 226.299 280.522C229.066 277.527 230.45 273.587 230.45 268.704C230.45 263.82 229.066 259.881 226.299 256.886C223.564 253.891 219.951 252.393 215.458 252.393C210.965 252.393 207.335 253.891 204.568 256.886C201.833 259.881 200.466 263.82 200.466 268.704C200.466 273.587 201.833 277.527 204.568 280.522ZM274.14 252.1C273.327 252.1 272.627 252.393 272.041 252.979C271.455 253.532 271.145 254.216 271.113 255.03V280.229C271.113 282.117 271.227 283.908 271.455 285.601L271.552 286.48H271.113L244.498 258.058V282.377C244.498 283.191 244.791 283.891 245.377 284.477C245.963 285.031 246.663 285.308 247.477 285.308H248.405V285.796H238.345V285.308H239.272C240.086 285.308 240.786 285.031 241.372 284.477C241.958 283.891 242.251 283.175 242.251 282.329V256.983C242.251 254.997 242.137 253.223 241.909 251.66L241.812 250.879H242.3L268.915 279.301V255.079C268.883 254.232 268.573 253.532 267.987 252.979C267.401 252.393 266.701 252.1 265.887 252.1H264.96V251.612H275.019V252.1H274.14ZM310.074 252.1H309.39C308.414 252.1 307.486 252.377 306.607 252.93C305.76 253.451 305.044 254.118 304.458 254.932L294.838 270.559V282.231C294.838 283.077 295.131 283.81 295.717 284.429C296.335 285.015 297.084 285.308 297.963 285.308H298.549V285.796H287.903V285.308H288.538C289.384 285.308 290.101 285.015 290.687 284.429C291.305 283.843 291.631 283.126 291.663 282.28V270.511L282.336 254.932C281.848 254.151 281.148 253.484 280.236 252.93C279.357 252.377 278.429 252.1 277.452 252.1H276.769V251.612H288.782V252.1H288.147C287.431 252.1 286.878 252.425 286.487 253.077C286.292 253.435 286.194 253.793 286.194 254.151C286.194 254.477 286.275 254.802 286.438 255.128L293.763 268.801L301.577 255.079C301.74 254.753 301.821 254.428 301.821 254.102C301.821 253.777 301.707 253.435 301.479 253.077C301.088 252.425 300.535 252.1 299.819 252.1H299.233V251.612H310.074V252.1ZM334.693 285.308H335.328V285.796H324.633V285.308H325.268C326.115 285.308 326.831 285.015 327.417 284.429C328.035 283.81 328.361 283.077 328.394 282.231V255.128C328.361 254.281 328.035 253.565 327.417 252.979C326.831 252.393 326.115 252.1 325.268 252.1H324.633V251.612H335.328V252.1H334.693C333.847 252.1 333.114 252.393 332.496 252.979C331.91 253.565 331.6 254.281 331.568 255.128V282.231C331.568 283.077 331.877 283.81 332.496 284.429C333.114 285.015 333.847 285.308 334.693 285.308ZM368.536 293.121V293.609C367.299 293.902 366.062 294.049 364.824 294.049C359.485 294.049 354.309 291.379 349.295 286.04L333.131 268.801L344.656 254.346C344.916 254.021 345.046 253.728 345.046 253.467C345.046 253.207 344.997 252.979 344.9 252.784C344.639 252.295 344.167 252.051 343.484 252.051H342.995V251.612H353.299V252.051H353.104C350.955 252.051 349.197 252.816 347.83 254.346L336.451 267.483L353.055 285.21C355.204 287.521 357.613 289.41 360.283 290.875C362.985 292.372 365.736 293.121 368.536 293.121ZM357.936 285.308C358.782 285.308 359.499 285.015 360.085 284.429C360.703 283.81 361.029 283.077 361.061 282.231V255.128C361.029 254.281 360.703 253.565 360.085 252.979C359.499 252.393 358.782 252.1 357.936 252.1H357.301V251.612H367.996V252.1H367.361C366.515 252.1 365.782 252.393 365.164 252.979C364.578 253.565 364.268 254.281 364.236 255.128V282.231C364.236 283.077 364.545 283.81 365.164 284.429C365.782 285.015 366.515 285.308 367.361 285.308H367.996V285.796H357.301V285.308H357.936ZM408.865 252.1C408.051 252.1 407.351 252.393 406.765 252.979C406.179 253.532 405.87 254.216 405.838 255.03V280.229C405.838 282.117 405.952 283.908 406.179 285.601L406.277 286.48H405.838L379.223 258.058V282.377C379.223 283.191 379.516 283.891 380.102 284.477C380.688 285.031 381.388 285.308 382.202 285.308H383.129V285.796H373.069V285.308H373.997C374.811 285.308 375.511 285.031 376.097 284.477C376.683 283.891 376.976 283.175 376.976 282.329V256.983C376.976 254.997 376.862 253.223 376.634 251.66L376.537 250.879H377.025L403.64 279.301V255.079C403.607 254.232 403.298 253.532 402.712 252.979C402.126 252.393 401.426 252.1 400.612 252.1H399.684V251.612H409.744V252.1H408.865ZM431.441 286.48C426.232 286.447 422 284.803 418.744 281.547C415.521 278.292 413.909 274.01 413.909 268.704C413.909 263.397 415.521 259.116 418.744 255.86C422 252.572 426.232 250.928 431.441 250.928C435.934 250.928 439.89 252.035 443.308 254.249L444.285 261.134H443.845C443.129 258.334 441.68 256.186 439.499 254.688C437.35 253.158 434.664 252.393 431.441 252.393C427.306 252.393 423.953 253.891 421.381 256.886C418.842 259.881 417.572 263.82 417.572 268.704C417.572 273.587 418.842 277.527 421.381 280.522C423.953 283.484 427.306 284.982 431.441 285.015C433.557 285.015 435.56 284.64 437.448 283.891C439.369 283.143 441.045 282.101 442.478 280.766V272.122C442.478 271.406 442.25 270.869 441.794 270.511C441.371 270.12 440.769 269.925 439.987 269.925H439.206V269.436H448.777V269.925H448.045C447.231 269.925 446.612 270.12 446.189 270.511C445.766 270.869 445.571 271.406 445.603 272.122V280.18C444.757 281.287 443.748 282.28 442.575 283.159C441.403 284.038 439.824 284.819 437.839 285.503C435.885 286.154 433.753 286.48 431.441 286.48Z" fill="#0D0D0D"/>
<path d="M384.322 237.796L250.745 113.961L115.583 237.796M449.942 235.288L429.051 214.577V174.956H408.16V193.865L366.379 152.442L330.348 187.758M49.9641 235.288L134.362 152.442L170.037 187.906" stroke="#0D0D0D" stroke-width="1.87206"/>
<line x1="148.402" y1="322.87" x2="49.9644" y2="322.87" stroke="#0D0D0D" stroke-width="1.87206"/>
<path d="M166.569 307.528V309.711H158.089V307.528H166.569ZM158.769 300.859V316.83H156.016V300.859H158.769ZM168.686 300.859V316.83H165.943V300.859H168.686ZM176.553 300.859L180.26 308.482L183.968 300.859H187.017L181.642 310.95V316.83H178.867V310.95L173.492 300.859H176.553ZM198.197 310.873H194.039V308.691H198.197C198.921 308.691 199.506 308.574 199.952 308.34C200.398 308.106 200.723 307.784 200.928 307.374C201.14 306.957 201.246 306.482 201.246 305.948C201.246 305.444 201.14 304.972 200.928 304.533C200.723 304.087 200.398 303.729 199.952 303.458C199.506 303.188 198.921 303.052 198.197 303.052H194.884V316.83H192.131V300.859H198.197C199.433 300.859 200.482 301.078 201.345 301.517C202.215 301.948 202.877 302.548 203.33 303.316C203.784 304.076 204.01 304.946 204.01 305.926C204.01 306.957 203.784 307.842 203.33 308.581C202.877 309.319 202.215 309.886 201.345 310.281C200.482 310.676 199.433 310.873 198.197 310.873ZM222.583 308.405V309.283C222.583 310.489 222.426 311.572 222.112 312.53C221.797 313.488 221.347 314.303 220.762 314.976C220.185 315.649 219.49 316.164 218.678 316.522C217.867 316.873 216.967 317.049 215.98 317.049C215 317.049 214.104 316.873 213.292 316.522C212.488 316.164 211.79 315.649 211.197 314.976C210.605 314.303 210.144 313.488 209.815 312.53C209.493 311.572 209.333 310.489 209.333 309.283V308.405C209.333 307.199 209.493 306.12 209.815 305.169C210.137 304.211 210.59 303.396 211.175 302.723C211.768 302.043 212.466 301.528 213.27 301.177C214.082 300.818 214.978 300.639 215.958 300.639C216.945 300.639 217.845 300.818 218.656 301.177C219.468 301.528 220.166 302.043 220.751 302.723C221.336 303.396 221.786 304.211 222.101 305.169C222.422 306.12 222.583 307.199 222.583 308.405ZM219.83 309.283V308.383C219.83 307.491 219.742 306.705 219.567 306.025C219.399 305.338 219.146 304.764 218.81 304.303C218.481 303.835 218.075 303.484 217.592 303.25C217.11 303.009 216.565 302.888 215.958 302.888C215.351 302.888 214.81 303.009 214.334 303.25C213.859 303.484 213.453 303.835 213.117 304.303C212.788 304.764 212.536 305.338 212.36 306.025C212.185 306.705 212.097 307.491 212.097 308.383V309.283C212.097 310.175 212.185 310.965 212.36 311.652C212.536 312.34 212.791 312.921 213.128 313.396C213.472 313.864 213.881 314.219 214.356 314.46C214.832 314.694 215.373 314.811 215.98 314.811C216.594 314.811 217.139 314.694 217.614 314.46C218.09 314.219 218.492 313.864 218.821 313.396C219.15 312.921 219.399 312.34 219.567 311.652C219.742 310.965 219.83 310.175 219.83 309.283ZM234.728 300.859V316.83H231.997V300.859H234.728ZM239.741 300.859V303.052H227.028V300.859H239.741ZM255.769 307.528V309.711H247.29V307.528H255.769ZM247.97 300.859V316.83H245.217V300.859H247.97ZM257.886 300.859V316.83H255.144V300.859H257.886ZM274.989 314.647V316.83H266.51V314.647H274.989ZM267.289 300.859V316.83H264.536V300.859H267.289ZM273.881 307.528V309.678H266.51V307.528H273.881ZM274.934 300.859V303.052H266.51V300.859H274.934ZM269.033 296.493L271.172 299.795H268.967L266.038 296.493H269.033ZM289.065 314.702L293.266 318.036L291.478 319.605L287.353 316.303L289.065 314.702ZM293.299 308.405V309.283C293.299 310.489 293.141 311.572 292.827 312.53C292.513 313.488 292.063 314.303 291.478 314.976C290.893 315.649 290.194 316.164 289.383 316.522C288.571 316.873 287.672 317.049 286.684 317.049C285.704 317.049 284.809 316.873 283.997 316.522C283.193 316.164 282.494 315.649 281.902 314.976C281.309 314.303 280.849 313.488 280.52 312.53C280.198 311.572 280.037 310.489 280.037 309.283V308.405C280.037 307.199 280.198 306.12 280.52 305.169C280.841 304.211 281.295 303.396 281.88 302.723C282.472 302.043 283.171 301.528 283.975 301.177C284.787 300.818 285.682 300.639 286.662 300.639C287.65 300.639 288.549 300.818 289.361 301.177C290.18 301.528 290.882 302.043 291.467 302.723C292.052 303.396 292.502 304.211 292.816 305.169C293.138 306.12 293.299 307.199 293.299 308.405ZM290.534 309.283V308.383C290.534 307.491 290.447 306.705 290.271 306.025C290.103 305.338 289.851 304.764 289.514 304.303C289.185 303.835 288.779 303.484 288.297 303.25C287.821 303.009 287.277 302.888 286.662 302.888C286.063 302.888 285.525 303.009 285.05 303.25C284.575 303.484 284.169 303.835 283.832 304.303C283.496 304.764 283.24 305.338 283.065 306.025C282.889 306.705 282.801 307.491 282.801 308.383V309.283C282.801 310.175 282.889 310.965 283.065 311.652C283.24 312.34 283.496 312.921 283.832 313.396C284.176 313.864 284.586 314.219 285.061 314.46C285.544 314.694 286.085 314.811 286.684 314.811C287.299 314.811 287.843 314.694 288.319 314.46C288.794 314.219 289.196 313.864 289.525 313.396C289.854 312.921 290.103 312.34 290.271 311.652C290.447 310.965 290.534 310.175 290.534 309.283ZM308.427 300.859H311.17V311.532C311.17 312.745 310.906 313.762 310.38 314.581C309.853 315.4 309.137 316.018 308.23 316.435C307.33 316.844 306.325 317.049 305.213 317.049C304.065 317.049 303.041 316.844 302.142 316.435C301.243 316.018 300.533 315.4 300.014 314.581C299.502 313.762 299.246 312.745 299.246 311.532V300.859H301.988V311.532C301.988 312.299 302.12 312.932 302.383 313.429C302.647 313.919 303.019 314.281 303.502 314.515C303.985 314.749 304.555 314.866 305.213 314.866C305.871 314.866 306.438 314.749 306.914 314.515C307.396 314.281 307.769 313.919 308.032 313.429C308.296 312.932 308.427 312.299 308.427 311.532V300.859ZM327.987 314.647V316.83H319.508V314.647H327.987ZM320.287 300.859V316.83H317.534V300.859H320.287ZM326.879 307.528V309.678H319.508V307.528H326.879ZM327.932 300.859V303.052H319.508V300.859H327.932ZM342.008 312.716C342.008 312.387 341.957 312.095 341.854 311.839C341.759 311.583 341.588 311.349 341.339 311.137C341.09 310.925 340.739 310.72 340.286 310.522C339.84 310.318 339.269 310.109 338.575 309.897C337.814 309.663 337.112 309.404 336.469 309.118C335.832 308.826 335.277 308.489 334.801 308.109C334.326 307.722 333.957 307.279 333.693 306.782C333.43 306.277 333.299 305.696 333.299 305.038C333.299 304.387 333.434 303.795 333.704 303.261C333.982 302.727 334.374 302.266 334.878 301.879C335.39 301.484 335.993 301.18 336.688 300.968C337.383 300.749 338.151 300.639 338.991 300.639C340.176 300.639 341.196 300.859 342.052 301.297C342.915 301.736 343.577 302.325 344.037 303.063C344.505 303.802 344.739 304.617 344.739 305.509H342.008C342.008 304.983 341.895 304.519 341.668 304.116C341.449 303.707 341.112 303.385 340.659 303.151C340.213 302.917 339.646 302.8 338.959 302.8C338.308 302.8 337.767 302.899 337.335 303.096C336.904 303.294 336.582 303.561 336.37 303.897C336.158 304.233 336.052 304.614 336.052 305.038C336.052 305.338 336.121 305.612 336.26 305.861C336.399 306.102 336.611 306.329 336.896 306.541C337.182 306.745 337.54 306.939 337.971 307.122C338.403 307.305 338.911 307.48 339.496 307.648C340.381 307.912 341.152 308.204 341.811 308.526C342.469 308.84 343.017 309.199 343.456 309.601C343.895 310.003 344.224 310.46 344.443 310.972C344.663 311.477 344.772 312.051 344.772 312.694C344.772 313.367 344.637 313.974 344.366 314.515C344.096 315.049 343.708 315.506 343.204 315.886C342.706 316.259 342.107 316.548 341.405 316.753C340.71 316.95 339.935 317.049 339.079 317.049C338.311 317.049 337.555 316.947 336.809 316.742C336.07 316.537 335.397 316.226 334.79 315.809C334.183 315.385 333.701 314.859 333.342 314.23C332.984 313.594 332.805 312.851 332.805 312.003H335.558C335.558 312.522 335.646 312.965 335.821 313.33C336.004 313.696 336.257 313.996 336.578 314.23C336.9 314.457 337.273 314.625 337.697 314.734C338.129 314.844 338.589 314.899 339.079 314.899C339.723 314.899 340.26 314.808 340.692 314.625C341.13 314.442 341.46 314.186 341.679 313.857C341.898 313.528 342.008 313.148 342.008 312.716Z" fill="#0D0D0D"/>
<path d="M172.486 327.068H174.943L179.561 339.386L184.168 327.068H186.625L180.526 343.039H178.574L172.486 327.068ZM171.367 327.068H173.703L174.109 337.73V343.039H171.367V327.068ZM185.407 327.068H187.755V343.039H185.001V337.73L185.407 327.068ZM207.128 334.614V335.492C207.128 336.698 206.971 337.781 206.657 338.739C206.342 339.697 205.892 340.512 205.307 341.185C204.73 341.858 204.035 342.373 203.223 342.731C202.412 343.082 201.512 343.258 200.525 343.258C199.545 343.258 198.649 343.082 197.837 342.731C197.033 342.373 196.335 341.858 195.742 341.185C195.15 340.512 194.689 339.697 194.36 338.739C194.038 337.781 193.878 336.698 193.878 335.492V334.614C193.878 333.408 194.038 332.329 194.36 331.378C194.682 330.42 195.135 329.605 195.72 328.932C196.313 328.252 197.011 327.737 197.815 327.386C198.627 327.027 199.523 326.848 200.503 326.848C201.49 326.848 202.39 327.027 203.201 327.386C204.013 327.737 204.711 328.252 205.296 328.932C205.881 329.605 206.331 330.42 206.646 331.378C206.967 332.329 207.128 333.408 207.128 334.614ZM204.375 335.492V334.592C204.375 333.7 204.287 332.914 204.112 332.234C203.944 331.547 203.691 330.973 203.355 330.512C203.026 330.044 202.62 329.693 202.137 329.459C201.655 329.218 201.11 329.097 200.503 329.097C199.896 329.097 199.355 329.218 198.879 329.459C198.404 329.693 197.998 330.044 197.662 330.512C197.333 330.973 197.081 331.547 196.905 332.234C196.73 332.914 196.642 333.7 196.642 334.592V335.492C196.642 336.384 196.73 337.174 196.905 337.861C197.081 338.549 197.336 339.13 197.673 339.605C198.017 340.073 198.426 340.428 198.901 340.669C199.377 340.903 199.918 341.02 200.525 341.02C201.139 341.02 201.684 340.903 202.159 340.669C202.635 340.428 203.037 340.073 203.366 339.605C203.695 339.13 203.944 338.549 204.112 337.861C204.287 337.174 204.375 336.384 204.375 335.492ZM213.251 327.068H218.9C220.114 327.068 221.149 327.25 222.005 327.616C222.86 327.982 223.515 328.523 223.968 329.239C224.429 329.949 224.659 330.826 224.659 331.872C224.659 332.669 224.513 333.371 224.22 333.978C223.928 334.585 223.515 335.097 222.981 335.514C222.447 335.923 221.811 336.241 221.072 336.468L220.238 336.874H215.16L215.138 334.691H218.944C219.602 334.691 220.151 334.574 220.589 334.34C221.028 334.106 221.357 333.788 221.577 333.386C221.803 332.976 221.917 332.516 221.917 332.004C221.917 331.448 221.807 330.965 221.588 330.556C221.376 330.139 221.047 329.821 220.6 329.601C220.154 329.375 219.588 329.261 218.9 329.261H216.004V343.039H213.251V327.068ZM222.366 343.039L218.615 335.865L221.5 335.854L225.306 342.896V343.039H222.366ZM236.596 327.068V343.039H233.864V327.068H236.596ZM241.608 327.068V329.261H228.895V327.068H241.608ZM259.041 334.878V340.976C258.814 341.276 258.459 341.605 257.977 341.964C257.501 342.315 256.869 342.618 256.079 342.874C255.289 343.13 254.306 343.258 253.128 343.258C252.126 343.258 251.209 343.09 250.375 342.753C249.541 342.41 248.821 341.909 248.214 341.251C247.614 340.592 247.15 339.792 246.821 338.848C246.492 337.898 246.327 336.815 246.327 335.602V334.494C246.327 333.287 246.477 332.212 246.777 331.269C247.084 330.318 247.523 329.514 248.093 328.856C248.664 328.197 249.351 327.7 250.156 327.364C250.967 327.02 251.885 326.848 252.909 326.848C254.218 326.848 255.3 327.068 256.156 327.506C257.019 327.938 257.684 328.537 258.152 329.305C258.62 330.073 258.916 330.951 259.041 331.938H256.342C256.254 331.382 256.083 330.885 255.827 330.446C255.578 330.007 255.22 329.664 254.752 329.415C254.291 329.159 253.691 329.031 252.953 329.031C252.316 329.031 251.757 329.152 251.274 329.393C250.792 329.634 250.39 329.989 250.068 330.457C249.753 330.925 249.516 331.495 249.355 332.168C249.194 332.841 249.113 333.609 249.113 334.472V335.602C249.113 336.479 249.205 337.258 249.388 337.938C249.578 338.618 249.848 339.192 250.199 339.66C250.558 340.128 250.993 340.483 251.505 340.724C252.017 340.958 252.594 341.075 253.238 341.075C253.867 341.075 254.382 341.024 254.785 340.922C255.187 340.812 255.505 340.684 255.739 340.538C255.98 340.384 256.167 340.238 256.298 340.099V336.929H252.975V334.878H259.041ZM271.679 329.196L266.908 343.039H264.023L270.034 327.068H271.877L271.679 329.196ZM275.672 343.039L270.889 329.196L270.681 327.068H272.535L278.568 343.039H275.672ZM275.441 337.115V339.298H266.754V337.115H275.441ZM295.813 334.878V340.976C295.587 341.276 295.232 341.605 294.749 341.964C294.274 342.315 293.641 342.618 292.852 342.874C292.062 343.13 291.078 343.258 289.901 343.258C288.899 343.258 287.981 343.09 287.148 342.753C286.314 342.41 285.594 341.909 284.987 341.251C284.387 340.592 283.923 339.792 283.594 338.848C283.265 337.898 283.1 336.815 283.1 335.602V334.494C283.1 333.287 283.25 332.212 283.55 331.269C283.857 330.318 284.296 329.514 284.866 328.856C285.437 328.197 286.124 327.7 286.928 327.364C287.74 327.02 288.658 326.848 289.682 326.848C290.991 326.848 292.073 327.068 292.928 327.506C293.791 327.938 294.457 328.537 294.925 329.305C295.393 330.073 295.689 330.951 295.813 331.938H293.115C293.027 331.382 292.855 330.885 292.599 330.446C292.351 330.007 291.992 329.664 291.524 329.415C291.064 329.159 290.464 329.031 289.725 329.031C289.089 329.031 288.53 329.152 288.047 329.393C287.565 329.634 287.162 329.989 286.841 330.457C286.526 330.925 286.288 331.495 286.128 332.168C285.967 332.841 285.886 333.609 285.886 334.472V335.602C285.886 336.479 285.978 337.258 286.16 337.938C286.351 338.618 286.621 339.192 286.972 339.66C287.331 340.128 287.766 340.483 288.277 340.724C288.789 340.958 289.367 341.075 290.011 341.075C290.64 341.075 291.155 341.024 291.557 340.922C291.959 340.812 292.278 340.684 292.512 340.538C292.753 340.384 292.939 340.238 293.071 340.099V336.929H289.747V334.878H295.813ZM312.686 340.856V343.039H304.207V340.856H312.686ZM304.986 327.068V343.039H302.232V327.068H304.986ZM311.578 333.737V335.887H304.207V333.737H311.578ZM312.631 327.068V329.261H304.207V327.068H312.631ZM326.707 338.925C326.707 338.596 326.655 338.304 326.553 338.048C326.458 337.792 326.286 337.558 326.037 337.346C325.789 337.134 325.438 336.929 324.984 336.731C324.538 336.527 323.968 336.318 323.273 336.106C322.513 335.872 321.811 335.613 321.167 335.327C320.531 335.035 319.975 334.698 319.5 334.318C319.025 333.931 318.655 333.488 318.392 332.991C318.129 332.486 317.997 331.905 317.997 331.247C317.997 330.596 318.132 330.004 318.403 329.47C318.681 328.936 319.072 328.475 319.577 328.088C320.089 327.693 320.692 327.389 321.387 327.177C322.081 326.958 322.849 326.848 323.69 326.848C324.875 326.848 325.895 327.068 326.75 327.506C327.613 327.945 328.275 328.534 328.736 329.272C329.204 330.011 329.438 330.826 329.438 331.718H326.707C326.707 331.192 326.593 330.728 326.367 330.325C326.147 329.916 325.811 329.594 325.357 329.36C324.911 329.126 324.345 329.009 323.657 329.009C323.006 329.009 322.465 329.108 322.034 329.305C321.602 329.503 321.281 329.77 321.068 330.106C320.856 330.442 320.75 330.823 320.75 331.247C320.75 331.547 320.82 331.821 320.959 332.069C321.098 332.311 321.31 332.538 321.595 332.75C321.88 332.954 322.239 333.148 322.67 333.331C323.101 333.514 323.61 333.689 324.195 333.857C325.08 334.121 325.851 334.413 326.509 334.735C327.167 335.049 327.716 335.408 328.155 335.81C328.593 336.212 328.922 336.669 329.142 337.181C329.361 337.686 329.471 338.26 329.471 338.903C329.471 339.576 329.336 340.183 329.065 340.724C328.794 341.258 328.407 341.715 327.902 342.095C327.405 342.468 326.805 342.757 326.103 342.962C325.409 343.159 324.633 343.258 323.778 343.258C323.01 343.258 322.253 343.156 321.507 342.951C320.769 342.746 320.096 342.435 319.489 342.018C318.882 341.594 318.399 341.068 318.041 340.439C317.683 339.803 317.504 339.06 317.504 338.212H320.257C320.257 338.731 320.345 339.174 320.52 339.539C320.703 339.905 320.955 340.205 321.277 340.439C321.599 340.666 321.972 340.834 322.396 340.943C322.827 341.053 323.288 341.108 323.778 341.108C324.421 341.108 324.959 341.017 325.39 340.834C325.829 340.651 326.158 340.395 326.378 340.066C326.597 339.737 326.707 339.357 326.707 338.925Z" fill="#0D0D0D"/>
<line x1="450.821" y1="322.87" x2="352.383" y2="322.87" stroke="#0D0D0D" stroke-width="1.87206"/>
</svg>
