<svg width="500" height="500" viewBox="0 0 500 500" fill="none" xmlns="http://www.w3.org/2000/svg">
<rect width="500" height="500" fill="#0D0D0D"/>
<path d="M89.6308 306.237V337.382H86.9998V306.237H89.6308ZM108.882 306.237L95.449 320.505L88.6896 327.157L88.4329 324.227L93.8661 318.58L105.588 306.237H108.882ZM106.7 337.382L93.588 321.382L95.1709 319.264L109.887 337.382H106.7Z" fill="#F4F4F4"/>
<path d="M131.03 306.237V337.382H128.399V306.237H131.03Z" fill="#F4F4F4"/>
<path d="M175.83 306.237V337.382H173.177L155.274 310.772V337.382H152.643V306.237H155.274L173.22 332.847V306.237H175.83Z" fill="#F4F4F4"/>
<path d="M219.389 322.58V333.66C219.033 334.187 218.419 334.772 217.549 335.414C216.68 336.056 215.51 336.619 214.041 337.104C212.573 337.574 210.747 337.81 208.566 337.81C206.74 337.81 205.065 337.482 203.539 336.826C202.013 336.17 200.687 335.221 199.56 333.981C198.448 332.726 197.585 331.221 196.972 329.467C196.373 327.713 196.074 325.745 196.074 323.564V319.799C196.074 317.66 196.352 315.735 196.908 314.023C197.464 312.298 198.27 310.822 199.325 309.596C200.38 308.369 201.649 307.435 203.132 306.794C204.63 306.138 206.305 305.81 208.159 305.81C210.469 305.81 212.416 306.209 213.999 307.007C215.582 307.806 216.815 308.904 217.699 310.302C218.598 311.685 219.154 313.253 219.368 315.007H216.737C216.537 313.767 216.123 312.626 215.496 311.585C214.869 310.53 213.956 309.681 212.758 309.04C211.574 308.398 210.041 308.077 208.159 308.077C206.648 308.077 205.3 308.355 204.116 308.911C202.947 309.467 201.963 310.259 201.164 311.286C200.366 312.312 199.76 313.546 199.346 314.986C198.933 316.412 198.726 318.002 198.726 319.756V323.564C198.726 325.389 198.954 327.036 199.41 328.505C199.881 329.974 200.551 331.236 201.421 332.291C202.291 333.346 203.332 334.159 204.544 334.729C205.756 335.286 207.104 335.564 208.587 335.564C210.17 335.564 211.517 335.414 212.63 335.114C213.742 334.815 214.633 334.458 215.304 334.045C215.988 333.617 216.48 333.218 216.779 332.847V324.826H208.416V322.58H219.389Z" fill="#F4F4F4"/>
<path d="M257.686 329.724C257.686 328.868 257.544 328.105 257.259 327.435C256.973 326.765 256.503 326.166 255.847 325.638C255.205 325.097 254.335 324.597 253.237 324.141C252.153 323.671 250.799 323.207 249.173 322.751C247.619 322.309 246.214 321.824 244.959 321.296C243.704 320.769 242.628 320.163 241.729 319.478C240.845 318.794 240.168 317.995 239.697 317.082C239.226 316.155 238.991 315.079 238.991 313.852C238.991 312.654 239.248 311.564 239.761 310.58C240.275 309.596 240.995 308.747 241.922 308.034C242.863 307.321 243.968 306.772 245.237 306.387C246.521 306.002 247.925 305.81 249.451 305.81C251.633 305.81 253.515 306.223 255.098 307.05C256.695 307.877 257.929 308.997 258.799 310.409C259.683 311.806 260.125 313.375 260.125 315.114H257.494C257.494 313.76 257.173 312.555 256.531 311.499C255.904 310.43 254.991 309.596 253.793 308.997C252.61 308.384 251.162 308.077 249.451 308.077C247.74 308.077 246.3 308.341 245.13 308.868C243.975 309.382 243.098 310.073 242.499 310.943C241.915 311.799 241.622 312.754 241.622 313.81C241.622 314.551 241.765 315.236 242.05 315.863C242.335 316.476 242.799 317.054 243.44 317.596C244.096 318.123 244.959 318.622 246.029 319.093C247.098 319.549 248.417 319.984 249.986 320.398C251.64 320.854 253.109 321.36 254.392 321.917C255.676 322.473 256.759 323.114 257.644 323.842C258.528 324.555 259.198 325.389 259.654 326.344C260.111 327.3 260.339 328.412 260.339 329.681C260.339 330.95 260.068 332.091 259.526 333.104C258.998 334.102 258.25 334.95 257.28 335.649C256.325 336.348 255.191 336.883 253.879 337.253C252.581 337.624 251.162 337.81 249.622 337.81C248.239 337.81 246.863 337.631 245.494 337.275C244.125 336.918 242.87 336.369 241.729 335.628C240.603 334.872 239.697 333.902 239.013 332.719C238.342 331.535 238.007 330.123 238.007 328.483H240.617C240.617 329.795 240.881 330.9 241.408 331.799C241.936 332.697 242.635 333.425 243.505 333.981C244.389 334.537 245.358 334.943 246.414 335.2C247.483 335.442 248.553 335.564 249.622 335.564C251.262 335.564 252.681 335.321 253.879 334.836C255.091 334.351 256.025 333.674 256.681 332.804C257.351 331.92 257.686 330.893 257.686 329.724Z" fill="#F4F4F4"/>
<path d="M289.609 306.237V337.382H287V306.237H289.609ZM300.283 306.237V308.505H276.347V306.237H300.283Z" fill="#F4F4F4"/>
<path d="M327.008 308.098L316.228 337.382H313.49L325.254 306.237H327.158L327.008 308.098ZM336.805 337.382L326.003 308.098L325.853 306.237H327.757L339.543 337.382H336.805ZM334.88 326.387V328.654H318.345V326.387H334.88Z" fill="#F4F4F4"/>
<path d="M364.963 306.237V337.382H362.354V306.237H364.963ZM375.637 306.237V308.505H351.701V306.237H375.637Z" fill="#F4F4F4"/>
<path d="M413.207 335.136V337.382H395.689V335.136H413.207ZM396.48 306.237V337.382H393.849V306.237H396.48ZM411.025 320.205V322.451H395.689V320.205H411.025ZM413.1 306.237V308.505H395.689V306.237H413.1Z" fill="#F4F4F4"/>
<g clip-path="url(#clip0_102_824)">
<path d="M198.647 219.885H195.654C191.663 219.885 188.209 218.503 185.292 215.74C182.375 212.823 180.917 209.369 180.917 205.378V77.5828C181.071 73.5916 182.529 70.2144 185.292 67.4513C188.209 64.6881 191.663 63.3065 195.654 63.3065H198.647V61.0039H148.22V63.3065H151.213C155.205 63.3065 158.582 64.6881 161.345 67.4513C164.262 70.2144 165.797 73.5916 165.95 77.5828V205.378C165.797 209.369 164.262 212.823 161.345 215.74C158.582 218.503 155.205 219.885 151.213 219.885H148.22V222.187H198.647V219.885Z" fill="#F4F4F4"/>
<path d="M357.908 261.871V259.568C344.706 259.568 331.735 256.037 318.994 248.976C306.406 242.068 295.046 233.165 284.915 222.266L276.067 212.832C274.808 214.594 273.402 216.264 271.838 217.858C269.653 220.042 267.263 221.934 264.682 223.525L267.185 226.18C290.825 251.355 315.233 263.943 340.408 263.943C346.241 263.943 352.074 263.252 357.908 261.871Z" fill="#F4F4F4"/>
<path d="M188.285 142.057L252.441 210.466C253.382 209.753 254.288 208.982 255.159 208.155C258.346 205.201 260.746 201.883 262.36 198.2L203.942 135.839C203.942 135.839 234.363 95.9095 257.593 73.8991C259.379 72.207 262.199 69.601 262.199 69.601C266.96 73.9438 269.341 79.6571 269.341 86.7411H271.466L283.383 63.0769V61.0045L275.261 61.0076L262.255 57.6891C254.696 56.1144 247.926 55.3271 241.942 55.3271C229.187 55.3271 219.031 59.3424 211.473 67.3732C204.072 75.2464 200.371 84.7729 200.371 95.9529C200.371 104.245 200.735 108.243 205.413 114.716L215.799 101.69C213.015 97.3259 213.598 95.859 213.598 90.5203C213.598 82.4897 216.275 75.7975 221.629 70.4437C225.552 66.6328 230.113 64.1782 235.313 63.08L237.1 63.0769C240.324 63.0769 242.55 64.2282 243.778 66.5308C244.238 67.4518 244.469 68.5264 244.469 69.7544C244.469 70.9825 243.854 72.3641 242.626 73.8991L188.285 142.057Z" fill="#F4F4F4"/>
<path d="M259.287 165.299L241.328 148.651L217.337 126.44L228.111 114.001C228.111 114.001 245.299 129.844 256.303 140.005C261.805 145.085 270.388 153.017 270.388 153.017C278.261 160.26 282.198 170.18 282.198 182.777C282.198 195.375 278.183 205.767 270.152 213.955C262.121 221.986 251.413 226.001 238.029 226.001C231.101 226.001 223.7 224.899 215.827 222.694C208.111 220.648 203.959 218.299 199.708 213.89C199.235 211.686 198.999 207.434 198.999 201.135C198.999 194.837 200.18 188.145 202.542 181.059H204.668C204.51 182.791 204.431 184.523 204.431 186.255C204.431 195.86 207.344 203.891 213.171 210.347C218.997 216.646 224.881 218.915 234.486 218.915C244.407 218.915 252.516 215.924 258.815 209.94C265.271 203.956 268.499 196.477 268.499 187.501C268.499 178.369 265.428 170.967 259.287 165.299Z" fill="#F4F4F4"/>
</g>
<path d="M128.101 365.625V377H127.148V365.625H128.101ZM132 365.625V366.453H123.258V365.625H132ZM134.562 365V377H133.633V365H134.562ZM134.351 372.25L133.937 372.016C133.968 371.516 134.07 371.047 134.242 370.609C134.414 370.172 134.646 369.786 134.937 369.453C135.234 369.12 135.58 368.859 135.976 368.672C136.377 368.484 136.82 368.391 137.304 368.391C137.726 368.391 138.104 368.448 138.437 368.562C138.771 368.677 139.054 368.859 139.289 369.109C139.523 369.359 139.7 369.68 139.82 370.07C139.945 370.461 140.008 370.938 140.008 371.5V377H139.07V371.492C139.07 370.909 138.989 370.453 138.828 370.125C138.666 369.792 138.437 369.555 138.14 369.414C137.843 369.273 137.492 369.203 137.086 369.203C136.638 369.203 136.244 369.302 135.906 369.5C135.573 369.693 135.291 369.945 135.062 370.258C134.838 370.565 134.666 370.896 134.547 371.25C134.427 371.599 134.362 371.932 134.351 372.25ZM145.679 377.156C145.127 377.156 144.619 377.055 144.156 376.852C143.698 376.648 143.297 376.362 142.953 375.992C142.614 375.622 142.351 375.185 142.164 374.68C141.981 374.169 141.89 373.612 141.89 373.008V372.672C141.89 372.021 141.987 371.432 142.179 370.906C142.372 370.38 142.638 369.93 142.976 369.555C143.315 369.18 143.7 368.893 144.133 368.695C144.57 368.492 145.028 368.391 145.508 368.391C146.044 368.391 146.521 368.487 146.937 368.68C147.354 368.867 147.703 369.135 147.984 369.484C148.271 369.828 148.487 370.237 148.633 370.711C148.778 371.18 148.851 371.698 148.851 372.266V372.836H142.453V372.039H147.922V371.93C147.911 371.456 147.815 371.013 147.633 370.602C147.455 370.185 147.19 369.846 146.836 369.586C146.481 369.326 146.039 369.195 145.508 369.195C145.112 369.195 144.747 369.279 144.414 369.445C144.086 369.612 143.802 369.852 143.562 370.164C143.328 370.471 143.146 370.839 143.015 371.266C142.89 371.688 142.828 372.156 142.828 372.672V373.008C142.828 373.477 142.896 373.914 143.031 374.32C143.172 374.721 143.369 375.076 143.625 375.383C143.885 375.69 144.192 375.93 144.547 376.102C144.901 376.273 145.291 376.359 145.718 376.359C146.218 376.359 146.661 376.268 147.047 376.086C147.432 375.898 147.778 375.604 148.086 375.203L148.672 375.656C148.489 375.927 148.26 376.177 147.984 376.406C147.713 376.635 147.388 376.818 147.008 376.953C146.627 377.089 146.185 377.156 145.679 377.156ZM161.89 376.18V377H155.492V376.18H161.89ZM155.781 365.625V377H154.82V365.625H155.781ZM161.093 370.727V371.547H155.492V370.727H161.093ZM161.851 365.625V366.453H155.492V365.625H161.851ZM166 376.102L168.711 368.547H169.672L166.508 377H165.828L166 376.102ZM163.547 368.547L166.289 376.125L166.437 377H165.75L162.578 368.547H163.547ZM170.57 372.906V372.648C170.57 372.034 170.659 371.466 170.836 370.945C171.013 370.424 171.265 369.974 171.593 369.594C171.927 369.214 172.325 368.919 172.789 368.711C173.252 368.497 173.768 368.391 174.336 368.391C174.909 368.391 175.427 368.497 175.89 368.711C176.354 368.919 176.752 369.214 177.086 369.594C177.419 369.974 177.674 370.424 177.851 370.945C178.028 371.466 178.117 372.034 178.117 372.648V372.906C178.117 373.521 178.028 374.089 177.851 374.609C177.674 375.125 177.419 375.573 177.086 375.953C176.758 376.333 176.362 376.63 175.898 376.844C175.435 377.052 174.919 377.156 174.351 377.156C173.778 377.156 173.26 377.052 172.797 376.844C172.333 376.63 171.935 376.333 171.601 375.953C171.268 375.573 171.013 375.125 170.836 374.609C170.659 374.089 170.57 373.521 170.57 372.906ZM171.5 372.648V372.906C171.5 373.37 171.562 373.81 171.687 374.227C171.812 374.638 171.994 375.005 172.234 375.328C172.474 375.646 172.771 375.896 173.125 376.078C173.479 376.26 173.888 376.352 174.351 376.352C174.81 376.352 175.213 376.26 175.562 376.078C175.916 375.896 176.213 375.646 176.453 375.328C176.692 375.005 176.872 374.638 176.992 374.227C177.117 373.81 177.179 373.37 177.179 372.906V372.648C177.179 372.19 177.117 371.755 176.992 371.344C176.872 370.932 176.69 370.565 176.445 370.242C176.205 369.919 175.909 369.664 175.554 369.477C175.2 369.289 174.794 369.195 174.336 369.195C173.877 369.195 173.471 369.289 173.117 369.477C172.768 369.664 172.471 369.919 172.226 370.242C171.987 370.565 171.804 370.932 171.679 371.344C171.56 371.755 171.5 372.19 171.5 372.648ZM181.093 365V377H180.164V365H181.093ZM189.062 375.047V368.547H190V377H189.101L189.062 375.047ZM189.234 373.484L189.718 373.469C189.718 374 189.656 374.49 189.531 374.938C189.406 375.385 189.211 375.776 188.945 376.109C188.679 376.443 188.336 376.701 187.914 376.883C187.492 377.065 186.984 377.156 186.39 377.156C185.979 377.156 185.601 377.099 185.258 376.984C184.919 376.865 184.627 376.677 184.383 376.422C184.138 376.167 183.948 375.836 183.812 375.43C183.682 375.023 183.617 374.531 183.617 373.953V368.547H184.547V373.969C184.547 374.422 184.596 374.799 184.695 375.102C184.799 375.404 184.94 375.646 185.117 375.828C185.299 376.01 185.508 376.141 185.742 376.219C185.976 376.297 186.229 376.336 186.5 376.336C187.187 376.336 187.729 376.203 188.125 375.938C188.526 375.672 188.81 375.323 188.976 374.891C189.148 374.453 189.234 373.984 189.234 373.484ZM195.64 368.547V369.312H191.406V368.547H195.64ZM192.961 366.375H193.89V374.945C193.89 375.336 193.942 375.63 194.047 375.828C194.151 376.026 194.286 376.159 194.453 376.227C194.619 376.294 194.799 376.328 194.992 376.328C195.133 376.328 195.268 376.32 195.398 376.305C195.528 376.284 195.646 376.263 195.75 376.242L195.789 377.031C195.674 377.068 195.526 377.096 195.343 377.117C195.161 377.143 194.979 377.156 194.797 377.156C194.437 377.156 194.119 377.091 193.843 376.961C193.567 376.826 193.351 376.596 193.195 376.273C193.039 375.945 192.961 375.5 192.961 374.938V366.375ZM198.64 368.547V377H197.711V368.547H198.64ZM197.547 366.102C197.547 365.924 197.601 365.776 197.711 365.656C197.825 365.531 197.981 365.469 198.179 365.469C198.377 365.469 198.534 365.531 198.648 365.656C198.768 365.776 198.828 365.924 198.828 366.102C198.828 366.273 198.768 366.422 198.648 366.547C198.534 366.667 198.377 366.727 198.179 366.727C197.981 366.727 197.825 366.667 197.711 366.547C197.601 366.422 197.547 366.273 197.547 366.102ZM200.679 372.906V372.648C200.679 372.034 200.768 371.466 200.945 370.945C201.122 370.424 201.375 369.974 201.703 369.594C202.036 369.214 202.435 368.919 202.898 368.711C203.362 368.497 203.877 368.391 204.445 368.391C205.018 368.391 205.536 368.497 206 368.711C206.463 368.919 206.862 369.214 207.195 369.594C207.528 369.974 207.784 370.424 207.961 370.945C208.138 371.466 208.226 372.034 208.226 372.648V372.906C208.226 373.521 208.138 374.089 207.961 374.609C207.784 375.125 207.528 375.573 207.195 375.953C206.867 376.333 206.471 376.63 206.008 376.844C205.544 377.052 205.028 377.156 204.461 377.156C203.888 377.156 203.369 377.052 202.906 376.844C202.442 376.63 202.044 376.333 201.711 375.953C201.377 375.573 201.122 375.125 200.945 374.609C200.768 374.089 200.679 373.521 200.679 372.906ZM201.609 372.648V372.906C201.609 373.37 201.672 373.81 201.797 374.227C201.922 374.638 202.104 375.005 202.343 375.328C202.583 375.646 202.88 375.896 203.234 376.078C203.588 376.26 203.997 376.352 204.461 376.352C204.919 376.352 205.323 376.26 205.672 376.078C206.026 375.896 206.323 375.646 206.562 375.328C206.802 375.005 206.981 374.638 207.101 374.227C207.226 373.81 207.289 373.37 207.289 372.906V372.648C207.289 372.19 207.226 371.755 207.101 371.344C206.981 370.932 206.799 370.565 206.554 370.242C206.315 369.919 206.018 369.664 205.664 369.477C205.31 369.289 204.903 369.195 204.445 369.195C203.987 369.195 203.58 369.289 203.226 369.477C202.877 369.664 202.58 369.919 202.336 370.242C202.096 370.565 201.914 370.932 201.789 371.344C201.669 371.755 201.609 372.19 201.609 372.648ZM211.093 370.352V377H210.164V368.547H211.054L211.093 370.352ZM210.883 372.25L210.468 372.016C210.5 371.516 210.601 371.047 210.773 370.609C210.945 370.172 211.177 369.786 211.468 369.453C211.765 369.12 212.112 368.859 212.508 368.672C212.909 368.484 213.351 368.391 213.836 368.391C214.258 368.391 214.635 368.448 214.968 368.562C215.302 368.677 215.586 368.859 215.82 369.109C216.054 369.359 216.231 369.68 216.351 370.07C216.476 370.461 216.539 370.938 216.539 371.5V377H215.601V371.492C215.601 370.909 215.521 370.453 215.359 370.125C215.198 369.792 214.968 369.555 214.672 369.414C214.375 369.273 214.023 369.203 213.617 369.203C213.169 369.203 212.776 369.302 212.437 369.5C212.104 369.693 211.823 369.945 211.593 370.258C211.369 370.565 211.198 370.896 211.078 371.25C210.958 371.599 210.893 371.932 210.883 372.25ZM222.351 372.906V372.648C222.351 372.034 222.44 371.466 222.617 370.945C222.794 370.424 223.047 369.974 223.375 369.594C223.708 369.214 224.106 368.919 224.57 368.711C225.034 368.497 225.549 368.391 226.117 368.391C226.69 368.391 227.208 368.497 227.672 368.711C228.135 368.919 228.534 369.214 228.867 369.594C229.2 369.974 229.455 370.424 229.633 370.945C229.81 371.466 229.898 372.034 229.898 372.648V372.906C229.898 373.521 229.81 374.089 229.633 374.609C229.455 375.125 229.2 375.573 228.867 375.953C228.539 376.333 228.143 376.63 227.679 376.844C227.216 377.052 226.7 377.156 226.133 377.156C225.56 377.156 225.041 377.052 224.578 376.844C224.114 376.63 223.716 376.333 223.383 375.953C223.049 375.573 222.794 375.125 222.617 374.609C222.44 374.089 222.351 373.521 222.351 372.906ZM223.281 372.648V372.906C223.281 373.37 223.343 373.81 223.468 374.227C223.593 374.638 223.776 375.005 224.015 375.328C224.255 375.646 224.552 375.896 224.906 376.078C225.26 376.26 225.669 376.352 226.133 376.352C226.591 376.352 226.994 376.26 227.343 376.078C227.698 375.896 227.994 375.646 228.234 375.328C228.474 375.005 228.653 374.638 228.773 374.227C228.898 373.81 228.961 373.37 228.961 372.906V372.648C228.961 372.19 228.898 371.755 228.773 371.344C228.653 370.932 228.471 370.565 228.226 370.242C227.987 369.919 227.69 369.664 227.336 369.477C226.981 369.289 226.575 369.195 226.117 369.195C225.659 369.195 225.252 369.289 224.898 369.477C224.549 369.664 224.252 369.919 224.008 370.242C223.768 370.565 223.586 370.932 223.461 371.344C223.341 371.755 223.281 372.19 223.281 372.648ZM233.437 377H232.508V367.5C232.508 366.922 232.606 366.435 232.804 366.039C233.008 365.643 233.294 365.344 233.664 365.141C234.039 364.938 234.484 364.836 235 364.836C235.161 364.836 235.328 364.846 235.5 364.867C235.672 364.883 235.838 364.917 236 364.969L235.929 365.758C235.799 365.721 235.666 365.698 235.531 365.688C235.401 365.672 235.247 365.664 235.07 365.664C234.731 365.664 234.44 365.737 234.195 365.883C233.95 366.023 233.763 366.229 233.633 366.5C233.502 366.771 233.437 367.104 233.437 367.5V377ZM235.453 368.547V369.312H231.109V368.547H235.453ZM241.554 365.625H242.523L246.726 375.641L250.937 365.625H251.898L247.093 377H246.359L241.554 365.625ZM241.258 365.625H242.109L242.211 372.031V377H241.258V365.625ZM251.359 365.625H252.211V377H251.25V372.031L251.359 365.625ZM254.367 372.906V372.648C254.367 372.034 254.455 371.466 254.633 370.945C254.81 370.424 255.062 369.974 255.39 369.594C255.724 369.214 256.122 368.919 256.586 368.711C257.049 368.497 257.565 368.391 258.133 368.391C258.705 368.391 259.224 368.497 259.687 368.711C260.151 368.919 260.549 369.214 260.883 369.594C261.216 369.974 261.471 370.424 261.648 370.945C261.825 371.466 261.914 372.034 261.914 372.648V372.906C261.914 373.521 261.825 374.089 261.648 374.609C261.471 375.125 261.216 375.573 260.883 375.953C260.554 376.333 260.159 376.63 259.695 376.844C259.231 377.052 258.716 377.156 258.148 377.156C257.575 377.156 257.057 377.052 256.593 376.844C256.13 376.63 255.731 376.333 255.398 375.953C255.065 375.573 254.81 375.125 254.633 374.609C254.455 374.089 254.367 373.521 254.367 372.906ZM255.297 372.648V372.906C255.297 373.37 255.359 373.81 255.484 374.227C255.609 374.638 255.791 375.005 256.031 375.328C256.271 375.646 256.567 375.896 256.922 376.078C257.276 376.26 257.685 376.352 258.148 376.352C258.606 376.352 259.01 376.26 259.359 376.078C259.713 375.896 260.01 375.646 260.25 375.328C260.489 375.005 260.669 374.638 260.789 374.227C260.914 373.81 260.976 373.37 260.976 372.906V372.648C260.976 372.19 260.914 371.755 260.789 371.344C260.669 370.932 260.487 370.565 260.242 370.242C260.002 369.919 259.705 369.664 259.351 369.477C258.997 369.289 258.591 369.195 258.133 369.195C257.674 369.195 257.268 369.289 256.914 369.477C256.565 369.664 256.268 369.919 256.023 370.242C255.784 370.565 255.601 370.932 255.476 371.344C255.356 371.755 255.297 372.19 255.297 372.648ZM264.781 369.945V377H263.851V368.547H264.758L264.781 369.945ZM267.773 368.484L267.75 369.344C267.646 369.328 267.544 369.315 267.445 369.305C267.346 369.294 267.239 369.289 267.125 369.289C266.718 369.289 266.362 369.365 266.054 369.516C265.752 369.661 265.497 369.867 265.289 370.133C265.08 370.393 264.922 370.701 264.812 371.055C264.703 371.404 264.64 371.779 264.625 372.18L264.281 372.312C264.281 371.76 264.338 371.247 264.453 370.773C264.567 370.299 264.742 369.885 264.976 369.531C265.216 369.172 265.515 368.893 265.875 368.695C266.239 368.492 266.666 368.391 267.156 368.391C267.276 368.391 267.393 368.401 267.508 368.422C267.627 368.438 267.716 368.458 267.773 368.484ZM272.828 368.547V369.312H268.593V368.547H272.828ZM270.148 366.375H271.078V374.945C271.078 375.336 271.13 375.63 271.234 375.828C271.338 376.026 271.474 376.159 271.64 376.227C271.807 376.294 271.987 376.328 272.179 376.328C272.32 376.328 272.455 376.32 272.586 376.305C272.716 376.284 272.833 376.263 272.937 376.242L272.976 377.031C272.862 377.068 272.713 377.096 272.531 377.117C272.349 377.143 272.166 377.156 271.984 377.156C271.625 377.156 271.307 377.091 271.031 376.961C270.755 376.826 270.539 376.596 270.383 376.273C270.226 375.945 270.148 375.5 270.148 374.938V366.375ZM280.351 368.547H281.218V376.852C281.218 377.586 281.078 378.216 280.797 378.742C280.521 379.268 280.127 379.672 279.617 379.953C279.112 380.234 278.515 380.375 277.828 380.375C277.479 380.375 277.119 380.32 276.75 380.211C276.385 380.107 276.039 379.945 275.711 379.727C275.388 379.513 275.112 379.247 274.883 378.93L275.406 378.359C275.75 378.776 276.117 379.081 276.508 379.273C276.898 379.471 277.32 379.57 277.773 379.57C278.31 379.57 278.763 379.464 279.133 379.25C279.508 379.036 279.791 378.729 279.984 378.328C280.182 377.927 280.281 377.445 280.281 376.883V370.406L280.351 368.547ZM274.414 372.859V372.695C274.414 372.039 274.487 371.448 274.633 370.922C274.784 370.391 275 369.938 275.281 369.562C275.562 369.182 275.903 368.893 276.304 368.695C276.711 368.492 277.169 368.391 277.679 368.391C278.169 368.391 278.604 368.471 278.984 368.633C279.364 368.794 279.692 369.026 279.968 369.328C280.244 369.63 280.466 369.99 280.633 370.406C280.804 370.823 280.929 371.286 281.008 371.797V373.883C280.945 374.362 280.83 374.802 280.664 375.203C280.497 375.599 280.276 375.945 280 376.242C279.724 376.534 279.39 376.76 279 376.922C278.614 377.078 278.169 377.156 277.664 377.156C277.159 377.156 276.705 377.052 276.304 376.844C275.903 376.635 275.562 376.341 275.281 375.961C275 375.576 274.784 375.12 274.633 374.594C274.487 374.068 274.414 373.49 274.414 372.859ZM275.351 372.695V372.859C275.351 373.354 275.401 373.812 275.5 374.234C275.599 374.656 275.75 375.023 275.953 375.336C276.156 375.648 276.414 375.893 276.726 376.07C277.039 376.247 277.406 376.336 277.828 376.336C278.364 376.336 278.815 376.234 279.179 376.031C279.544 375.823 279.833 375.549 280.047 375.211C280.26 374.867 280.416 374.492 280.515 374.086V371.656C280.458 371.38 280.369 371.099 280.25 370.812C280.135 370.526 279.974 370.263 279.765 370.023C279.562 369.779 279.302 369.583 278.984 369.438C278.672 369.286 278.291 369.211 277.843 369.211C277.416 369.211 277.044 369.299 276.726 369.477C276.414 369.654 276.156 369.901 275.953 370.219C275.75 370.531 275.599 370.898 275.5 371.32C275.401 371.742 275.351 372.201 275.351 372.695ZM288.804 375.484V371.125C288.804 370.724 288.721 370.378 288.554 370.086C288.388 369.794 288.143 369.57 287.82 369.414C287.497 369.258 287.099 369.18 286.625 369.18C286.187 369.18 285.797 369.258 285.453 369.414C285.114 369.565 284.846 369.771 284.648 370.031C284.455 370.286 284.359 370.57 284.359 370.883L283.422 370.875C283.422 370.557 283.5 370.25 283.656 369.953C283.812 369.656 284.034 369.391 284.32 369.156C284.606 368.922 284.948 368.737 285.343 368.602C285.744 368.461 286.185 368.391 286.664 368.391C287.268 368.391 287.799 368.492 288.258 368.695C288.721 368.898 289.083 369.203 289.343 369.609C289.604 370.016 289.734 370.526 289.734 371.141V375.227C289.734 375.518 289.755 375.82 289.797 376.133C289.843 376.445 289.909 376.703 289.992 376.906V377H289C288.937 376.812 288.888 376.578 288.851 376.297C288.82 376.01 288.804 375.74 288.804 375.484ZM289.023 372.078L289.039 372.797H287.203C286.724 372.797 286.294 372.841 285.914 372.93C285.539 373.013 285.221 373.138 284.961 373.305C284.7 373.466 284.5 373.661 284.359 373.891C284.224 374.12 284.156 374.38 284.156 374.672C284.156 374.974 284.231 375.25 284.383 375.5C284.539 375.75 284.758 375.951 285.039 376.102C285.325 376.247 285.664 376.32 286.054 376.32C286.575 376.32 287.034 376.224 287.429 376.031C287.83 375.839 288.161 375.586 288.422 375.273C288.682 374.961 288.856 374.62 288.945 374.25L289.351 374.789C289.284 375.049 289.159 375.318 288.976 375.594C288.799 375.865 288.567 376.12 288.281 376.359C287.994 376.594 287.656 376.786 287.265 376.938C286.88 377.083 286.442 377.156 285.953 377.156C285.401 377.156 284.919 377.052 284.508 376.844C284.101 376.635 283.784 376.352 283.554 375.992C283.33 375.628 283.218 375.216 283.218 374.758C283.218 374.341 283.307 373.969 283.484 373.641C283.661 373.307 283.916 373.026 284.25 372.797C284.588 372.562 284.994 372.385 285.468 372.266C285.948 372.141 286.484 372.078 287.078 372.078H289.023ZM297.804 368.547H298.672V376.852C298.672 377.586 298.531 378.216 298.25 378.742C297.974 379.268 297.58 379.672 297.07 379.953C296.565 380.234 295.968 380.375 295.281 380.375C294.932 380.375 294.573 380.32 294.203 380.211C293.838 380.107 293.492 379.945 293.164 379.727C292.841 379.513 292.565 379.247 292.336 378.93L292.859 378.359C293.203 378.776 293.57 379.081 293.961 379.273C294.351 379.471 294.773 379.57 295.226 379.57C295.763 379.57 296.216 379.464 296.586 379.25C296.961 379.036 297.244 378.729 297.437 378.328C297.635 377.927 297.734 377.445 297.734 376.883V370.406L297.804 368.547ZM291.867 372.859V372.695C291.867 372.039 291.94 371.448 292.086 370.922C292.237 370.391 292.453 369.938 292.734 369.562C293.015 369.182 293.356 368.893 293.758 368.695C294.164 368.492 294.622 368.391 295.133 368.391C295.622 368.391 296.057 368.471 296.437 368.633C296.817 368.794 297.146 369.026 297.422 369.328C297.698 369.63 297.919 369.99 298.086 370.406C298.258 370.823 298.383 371.286 298.461 371.797V373.883C298.398 374.362 298.284 374.802 298.117 375.203C297.95 375.599 297.729 375.945 297.453 376.242C297.177 376.534 296.843 376.76 296.453 376.922C296.067 377.078 295.622 377.156 295.117 377.156C294.612 377.156 294.159 377.052 293.758 376.844C293.356 376.635 293.015 376.341 292.734 375.961C292.453 375.576 292.237 375.12 292.086 374.594C291.94 374.068 291.867 373.49 291.867 372.859ZM292.804 372.695V372.859C292.804 373.354 292.854 373.812 292.953 374.234C293.052 374.656 293.203 375.023 293.406 375.336C293.609 375.648 293.867 375.893 294.179 376.07C294.492 376.247 294.859 376.336 295.281 376.336C295.817 376.336 296.268 376.234 296.633 376.031C296.997 375.823 297.286 375.549 297.5 375.211C297.713 374.867 297.869 374.492 297.968 374.086V371.656C297.911 371.38 297.823 371.099 297.703 370.812C297.588 370.526 297.427 370.263 297.218 370.023C297.015 369.779 296.755 369.583 296.437 369.438C296.125 369.286 295.744 369.211 295.297 369.211C294.869 369.211 294.497 369.299 294.179 369.477C293.867 369.654 293.609 369.901 293.406 370.219C293.203 370.531 293.052 370.898 292.953 371.32C292.854 371.742 292.804 372.201 292.804 372.695ZM304.383 377.156C303.83 377.156 303.323 377.055 302.859 376.852C302.401 376.648 302 376.362 301.656 375.992C301.317 375.622 301.054 375.185 300.867 374.68C300.685 374.169 300.593 373.612 300.593 373.008V372.672C300.593 372.021 300.69 371.432 300.883 370.906C301.075 370.38 301.341 369.93 301.679 369.555C302.018 369.18 302.403 368.893 302.836 368.695C303.273 368.492 303.731 368.391 304.211 368.391C304.747 368.391 305.224 368.487 305.64 368.68C306.057 368.867 306.406 369.135 306.687 369.484C306.974 369.828 307.19 370.237 307.336 370.711C307.481 371.18 307.554 371.698 307.554 372.266V372.836H301.156V372.039H306.625V371.93C306.614 371.456 306.518 371.013 306.336 370.602C306.159 370.185 305.893 369.846 305.539 369.586C305.185 369.326 304.742 369.195 304.211 369.195C303.815 369.195 303.45 369.279 303.117 369.445C302.789 369.612 302.505 369.852 302.265 370.164C302.031 370.471 301.849 370.839 301.718 371.266C301.593 371.688 301.531 372.156 301.531 372.672V373.008C301.531 373.477 301.599 373.914 301.734 374.32C301.875 374.721 302.073 375.076 302.328 375.383C302.588 375.69 302.896 375.93 303.25 376.102C303.604 376.273 303.994 376.359 304.422 376.359C304.922 376.359 305.364 376.268 305.75 376.086C306.135 375.898 306.481 375.604 306.789 375.203L307.375 375.656C307.192 375.927 306.963 376.177 306.687 376.406C306.416 376.635 306.091 376.818 305.711 376.953C305.33 377.089 304.888 377.156 304.383 377.156ZM317.437 371.531H314.234L314.218 370.719H316.976C317.539 370.719 318.018 370.638 318.414 370.477C318.81 370.315 319.109 370.076 319.312 369.758C319.521 369.435 319.625 369.039 319.625 368.57C319.625 368.091 319.523 367.695 319.32 367.383C319.117 367.065 318.812 366.831 318.406 366.68C318 366.529 317.489 366.453 316.875 366.453H314.484V377H313.523V365.625H316.875C317.453 365.625 317.971 365.682 318.429 365.797C318.888 365.911 319.278 366.091 319.601 366.336C319.924 366.581 320.169 366.891 320.336 367.266C320.508 367.635 320.593 368.078 320.593 368.594C320.593 369.062 320.489 369.487 320.281 369.867C320.073 370.242 319.778 370.549 319.398 370.789C319.023 371.023 318.573 371.169 318.047 371.227L317.437 371.531ZM317.367 377H313.929L314.422 376.18H317.367C317.929 376.18 318.409 376.086 318.804 375.898C319.205 375.706 319.513 375.432 319.726 375.078C319.94 374.724 320.047 374.302 320.047 373.812C320.047 373.38 319.953 372.992 319.765 372.648C319.578 372.305 319.291 372.034 318.906 371.836C318.521 371.633 318.031 371.531 317.437 371.531H315.445L315.461 370.719H318.281L318.453 371.008C318.963 371.06 319.409 371.219 319.789 371.484C320.174 371.745 320.471 372.076 320.679 372.477C320.893 372.878 321 373.318 321 373.797C321 374.484 320.846 375.068 320.539 375.547C320.237 376.021 319.812 376.383 319.265 376.633C318.724 376.878 318.091 377 317.367 377ZM324.047 369.945V377H323.117V368.547H324.023L324.047 369.945ZM327.039 368.484L327.015 369.344C326.911 369.328 326.81 369.315 326.711 369.305C326.612 369.294 326.505 369.289 326.39 369.289C325.984 369.289 325.627 369.365 325.32 369.516C325.018 369.661 324.763 369.867 324.554 370.133C324.346 370.393 324.187 370.701 324.078 371.055C323.968 371.404 323.906 371.779 323.89 372.18L323.547 372.312C323.547 371.76 323.604 371.247 323.718 370.773C323.833 370.299 324.008 369.885 324.242 369.531C324.481 369.172 324.781 368.893 325.14 368.695C325.505 368.492 325.932 368.391 326.422 368.391C326.541 368.391 326.659 368.401 326.773 368.422C326.893 368.438 326.981 368.458 327.039 368.484ZM327.836 372.906V372.648C327.836 372.034 327.924 371.466 328.101 370.945C328.278 370.424 328.531 369.974 328.859 369.594C329.192 369.214 329.591 368.919 330.054 368.711C330.518 368.497 331.034 368.391 331.601 368.391C332.174 368.391 332.692 368.497 333.156 368.711C333.619 368.919 334.018 369.214 334.351 369.594C334.685 369.974 334.94 370.424 335.117 370.945C335.294 371.466 335.383 372.034 335.383 372.648V372.906C335.383 373.521 335.294 374.089 335.117 374.609C334.94 375.125 334.685 375.573 334.351 375.953C334.023 376.333 333.627 376.63 333.164 376.844C332.7 377.052 332.185 377.156 331.617 377.156C331.044 377.156 330.526 377.052 330.062 376.844C329.599 376.63 329.2 376.333 328.867 375.953C328.534 375.573 328.278 375.125 328.101 374.609C327.924 374.089 327.836 373.521 327.836 372.906ZM328.765 372.648V372.906C328.765 373.37 328.828 373.81 328.953 374.227C329.078 374.638 329.26 375.005 329.5 375.328C329.739 375.646 330.036 375.896 330.39 376.078C330.744 376.26 331.153 376.352 331.617 376.352C332.075 376.352 332.479 376.26 332.828 376.078C333.182 375.896 333.479 375.646 333.718 375.328C333.958 375.005 334.138 374.638 334.258 374.227C334.383 373.81 334.445 373.37 334.445 372.906V372.648C334.445 372.19 334.383 371.755 334.258 371.344C334.138 370.932 333.955 370.565 333.711 370.242C333.471 369.919 333.174 369.664 332.82 369.477C332.466 369.289 332.06 369.195 331.601 369.195C331.143 369.195 330.737 369.289 330.383 369.477C330.034 369.664 329.737 369.919 329.492 370.242C329.252 370.565 329.07 370.932 328.945 371.344C328.825 371.755 328.765 372.19 328.765 372.648ZM338.25 365V377H337.32V365H338.25ZM343.554 368.547L339.601 372.469L337.922 374.094L337.781 373.18L339.133 371.719L342.375 368.547H343.554ZM342.742 377L339.211 372.609L339.726 371.805L343.867 377H342.742ZM348.273 377.156C347.721 377.156 347.213 377.055 346.75 376.852C346.291 376.648 345.89 376.362 345.547 375.992C345.208 375.622 344.945 375.185 344.758 374.68C344.575 374.169 344.484 373.612 344.484 373.008V372.672C344.484 372.021 344.58 371.432 344.773 370.906C344.966 370.38 345.231 369.93 345.57 369.555C345.909 369.18 346.294 368.893 346.726 368.695C347.164 368.492 347.622 368.391 348.101 368.391C348.638 368.391 349.114 368.487 349.531 368.68C349.948 368.867 350.297 369.135 350.578 369.484C350.864 369.828 351.08 370.237 351.226 370.711C351.372 371.18 351.445 371.698 351.445 372.266V372.836H345.047V372.039H350.515V371.93C350.505 371.456 350.409 371.013 350.226 370.602C350.049 370.185 349.784 369.846 349.429 369.586C349.075 369.326 348.633 369.195 348.101 369.195C347.705 369.195 347.341 369.279 347.008 369.445C346.679 369.612 346.396 369.852 346.156 370.164C345.922 370.471 345.739 370.839 345.609 371.266C345.484 371.688 345.422 372.156 345.422 372.672V373.008C345.422 373.477 345.489 373.914 345.625 374.32C345.765 374.721 345.963 375.076 346.218 375.383C346.479 375.69 346.786 375.93 347.14 376.102C347.494 376.273 347.885 376.359 348.312 376.359C348.812 376.359 349.255 376.268 349.64 376.086C350.026 375.898 350.372 375.604 350.679 375.203L351.265 375.656C351.083 375.927 350.854 376.177 350.578 376.406C350.307 376.635 349.981 376.818 349.601 376.953C349.221 377.089 348.778 377.156 348.273 377.156ZM354.218 369.945V377H353.289V368.547H354.195L354.218 369.945ZM357.211 368.484L357.187 369.344C357.083 369.328 356.981 369.315 356.883 369.305C356.784 369.294 356.677 369.289 356.562 369.289C356.156 369.289 355.799 369.365 355.492 369.516C355.19 369.661 354.935 369.867 354.726 370.133C354.518 370.393 354.359 370.701 354.25 371.055C354.14 371.404 354.078 371.779 354.062 372.18L353.718 372.312C353.718 371.76 353.776 371.247 353.89 370.773C354.005 370.299 354.179 369.885 354.414 369.531C354.653 369.172 354.953 368.893 355.312 368.695C355.677 368.492 356.104 368.391 356.593 368.391C356.713 368.391 356.83 368.401 356.945 368.422C357.065 368.438 357.153 368.458 357.211 368.484ZM363.508 375.484V371.125C363.508 370.724 363.424 370.378 363.258 370.086C363.091 369.794 362.846 369.57 362.523 369.414C362.2 369.258 361.802 369.18 361.328 369.18C360.89 369.18 360.5 369.258 360.156 369.414C359.817 369.565 359.549 369.771 359.351 370.031C359.159 370.286 359.062 370.57 359.062 370.883L358.125 370.875C358.125 370.557 358.203 370.25 358.359 369.953C358.515 369.656 358.737 369.391 359.023 369.156C359.31 368.922 359.651 368.737 360.047 368.602C360.448 368.461 360.888 368.391 361.367 368.391C361.971 368.391 362.502 368.492 362.961 368.695C363.424 368.898 363.786 369.203 364.047 369.609C364.307 370.016 364.437 370.526 364.437 371.141V375.227C364.437 375.518 364.458 375.82 364.5 376.133C364.547 376.445 364.612 376.703 364.695 376.906V377H363.703C363.64 376.812 363.591 376.578 363.554 376.297C363.523 376.01 363.508 375.74 363.508 375.484ZM363.726 372.078L363.742 372.797H361.906C361.427 372.797 360.997 372.841 360.617 372.93C360.242 373.013 359.924 373.138 359.664 373.305C359.403 373.466 359.203 373.661 359.062 373.891C358.927 374.12 358.859 374.38 358.859 374.672C358.859 374.974 358.935 375.25 359.086 375.5C359.242 375.75 359.461 375.951 359.742 376.102C360.028 376.247 360.367 376.32 360.758 376.32C361.278 376.32 361.737 376.224 362.133 376.031C362.534 375.839 362.864 375.586 363.125 375.273C363.385 374.961 363.56 374.62 363.648 374.25L364.054 374.789C363.987 375.049 363.862 375.318 363.679 375.594C363.502 375.865 363.271 376.12 362.984 376.359C362.698 376.594 362.359 376.786 361.968 376.938C361.583 377.083 361.146 377.156 360.656 377.156C360.104 377.156 359.622 377.052 359.211 376.844C358.804 376.635 358.487 376.352 358.258 375.992C358.034 375.628 357.922 375.216 357.922 374.758C357.922 374.341 358.01 373.969 358.187 373.641C358.364 373.307 358.619 373.026 358.953 372.797C359.291 372.562 359.698 372.385 360.172 372.266C360.651 372.141 361.187 372.078 361.781 372.078H363.726ZM372.508 368.547H373.375V376.852C373.375 377.586 373.234 378.216 372.953 378.742C372.677 379.268 372.284 379.672 371.773 379.953C371.268 380.234 370.672 380.375 369.984 380.375C369.635 380.375 369.276 380.32 368.906 380.211C368.541 380.107 368.195 379.945 367.867 379.727C367.544 379.513 367.268 379.247 367.039 378.93L367.562 378.359C367.906 378.776 368.273 379.081 368.664 379.273C369.054 379.471 369.476 379.57 369.929 379.57C370.466 379.57 370.919 379.464 371.289 379.25C371.664 379.036 371.948 378.729 372.14 378.328C372.338 377.927 372.437 377.445 372.437 376.883V370.406L372.508 368.547ZM366.57 372.859V372.695C366.57 372.039 366.643 371.448 366.789 370.922C366.94 370.391 367.156 369.938 367.437 369.562C367.718 369.182 368.06 368.893 368.461 368.695C368.867 368.492 369.325 368.391 369.836 368.391C370.325 368.391 370.76 368.471 371.14 368.633C371.521 368.794 371.849 369.026 372.125 369.328C372.401 369.63 372.622 369.99 372.789 370.406C372.961 370.823 373.086 371.286 373.164 371.797V373.883C373.101 374.362 372.987 374.802 372.82 375.203C372.653 375.599 372.432 375.945 372.156 376.242C371.88 376.534 371.547 376.76 371.156 376.922C370.771 377.078 370.325 377.156 369.82 377.156C369.315 377.156 368.862 377.052 368.461 376.844C368.06 376.635 367.718 376.341 367.437 375.961C367.156 375.576 366.94 375.12 366.789 374.594C366.643 374.068 366.57 373.49 366.57 372.859ZM367.508 372.695V372.859C367.508 373.354 367.557 373.812 367.656 374.234C367.755 374.656 367.906 375.023 368.109 375.336C368.312 375.648 368.57 375.893 368.883 376.07C369.195 376.247 369.562 376.336 369.984 376.336C370.521 376.336 370.971 376.234 371.336 376.031C371.7 375.823 371.989 375.549 372.203 375.211C372.416 374.867 372.573 374.492 372.672 374.086V371.656C372.614 371.38 372.526 371.099 372.406 370.812C372.291 370.526 372.13 370.263 371.922 370.023C371.718 369.779 371.458 369.583 371.14 369.438C370.828 369.286 370.448 369.211 370 369.211C369.573 369.211 369.2 369.299 368.883 369.477C368.57 369.654 368.312 369.901 368.109 370.219C367.906 370.531 367.755 370.898 367.656 371.32C367.557 371.742 367.508 372.201 367.508 372.695ZM379.086 377.156C378.534 377.156 378.026 377.055 377.562 376.852C377.104 376.648 376.703 376.362 376.359 375.992C376.021 375.622 375.758 375.185 375.57 374.68C375.388 374.169 375.297 373.612 375.297 373.008V372.672C375.297 372.021 375.393 371.432 375.586 370.906C375.778 370.38 376.044 369.93 376.383 369.555C376.721 369.18 377.106 368.893 377.539 368.695C377.976 368.492 378.435 368.391 378.914 368.391C379.45 368.391 379.927 368.487 380.343 368.68C380.76 368.867 381.109 369.135 381.39 369.484C381.677 369.828 381.893 370.237 382.039 370.711C382.185 371.18 382.258 371.698 382.258 372.266V372.836H375.859V372.039H381.328V371.93C381.317 371.456 381.221 371.013 381.039 370.602C380.862 370.185 380.596 369.846 380.242 369.586C379.888 369.326 379.445 369.195 378.914 369.195C378.518 369.195 378.153 369.279 377.82 369.445C377.492 369.612 377.208 369.852 376.968 370.164C376.734 370.471 376.552 370.839 376.422 371.266C376.297 371.688 376.234 372.156 376.234 372.672V373.008C376.234 373.477 376.302 373.914 376.437 374.32C376.578 374.721 376.776 375.076 377.031 375.383C377.291 375.69 377.599 375.93 377.953 376.102C378.307 376.273 378.698 376.359 379.125 376.359C379.625 376.359 380.067 376.268 380.453 376.086C380.838 375.898 381.185 375.604 381.492 375.203L382.078 375.656C381.896 375.927 381.666 376.177 381.39 376.406C381.119 376.635 380.794 376.818 380.414 376.953C380.034 377.089 379.591 377.156 379.086 377.156Z" fill="#F4F4F4"/>
<defs>
<clipPath id="clip0_102_824">
<rect width="210.596" height="209.13" fill="white" transform="translate(147.553 55.001)"/>
</clipPath>
</defs>
</svg>
