<svg width="500" height="500" viewBox="0 0 500 500" fill="none" xmlns="http://www.w3.org/2000/svg">
<g clip-path="url(#clip0_102_812)">
<rect x="-222.153" y="-90.5557" width="945.153" height="681.575" fill="#F4F4F4"/>
<path d="M242.494 127.084L249.624 119.879L256.754 127.084V130.686L249.624 123.481L242.494 130.686V127.084Z" fill="#0D0D0D"/>
<path d="M249.876 91.9507L337.167 179.38L334.617 181.925L249.891 97.065L166.186 181.917L163.622 179.387L249.876 91.9507Z" fill="#0D0D0D"/>
<path d="M249.876 91.9507L337.167 179.38L334.617 181.925L249.891 97.065L166.186 181.917L163.622 179.387L249.876 91.9507Z" fill="#0D0D0D"/>
<path d="M303.814 204.832V123.623L249.699 177.738L195.583 123.623V204.831H191.981V114.926L249.699 172.644L307.417 114.926V204.831L303.814 204.832Z" fill="#0D0D0D"/>
<path d="M250 34.167L378.002 162.169L250 290.17L121.998 162.169L250 34.167ZM250 285.076L372.907 162.169L250 39.2616L127.093 162.169L250 285.076Z" fill="#0D0D0D"/>
<path d="M263.509 34.3215L391.356 162.169L263.509 290.016L242.873 269.379L245.42 266.832L263.509 284.921L386.262 162.169L263.509 39.4161L245.42 57.5051L242.873 54.9578L263.509 34.3215Z" fill="#0D0D0D"/>
<path d="M236.491 34.3215L108.644 162.169L236.491 290.016L257.127 269.379L254.58 266.832L236.491 284.921L113.738 162.169L236.491 39.4161L254.58 57.5051L257.127 54.9578L236.491 34.3215Z" fill="#0D0D0D"/>
<path d="M242.494 137.891L249.624 145.096L256.754 137.891V141.493L249.624 148.698L242.494 141.493V137.891Z" fill="#0D0D0D"/>
<g filter="url(#filter0_ii_102_812)">
<path d="M113.065 362.435V330.013H113.108L129.795 353.659L127.806 353.227L144.406 330.013H144.492V362.435H139.91V340.431L140.213 342.809L128.627 359.193H128.541L116.739 342.809L117.518 340.647V362.435H113.065Z" fill="#0D0D0D"/>
<path d="M163.066 362.435L176.856 329.797H177.116L190.906 362.435H185.632L175.603 337.016L178.931 334.811L167.605 362.435H163.066ZM171.453 350.677H182.606L184.205 354.654H170.07L171.453 350.677Z" fill="#0D0D0D"/>
<path d="M225.843 337.059C224.748 336.483 223.567 335.993 222.299 335.59C221.031 335.186 219.806 334.984 218.624 334.984C217.01 334.984 215.728 335.359 214.777 336.108C213.826 336.829 213.35 337.823 213.35 339.091C213.35 339.985 213.667 340.763 214.301 341.425C214.935 342.088 215.757 342.665 216.765 343.155C217.774 343.645 218.84 344.106 219.964 344.538C220.915 344.884 221.852 345.302 222.774 345.792C223.725 346.253 224.575 346.829 225.325 347.521C226.103 348.212 226.708 349.077 227.14 350.115C227.601 351.123 227.832 352.362 227.832 353.832C227.832 355.504 227.414 357.017 226.578 358.371C225.771 359.726 224.59 360.807 223.034 361.613C221.506 362.392 219.647 362.781 217.457 362.781C216.131 362.781 214.834 362.637 213.566 362.348C212.327 362.031 211.146 361.628 210.022 361.138C208.926 360.619 207.932 360.057 207.039 359.452L209.114 355.864C209.805 356.354 210.598 356.829 211.491 357.291C212.385 357.723 213.307 358.069 214.258 358.328C215.238 358.587 216.16 358.717 217.025 358.717C217.976 358.717 218.912 358.559 219.835 358.242C220.757 357.896 221.521 357.377 222.126 356.685C222.731 355.965 223.034 355.028 223.034 353.875C223.034 352.896 222.76 352.074 222.212 351.411C221.693 350.72 220.987 350.129 220.094 349.639C219.229 349.149 218.293 348.717 217.284 348.342C216.304 347.967 215.31 347.55 214.301 347.088C213.293 346.627 212.356 346.08 211.491 345.446C210.627 344.783 209.921 343.976 209.373 343.025C208.854 342.045 208.595 340.849 208.595 339.437C208.595 337.765 208.984 336.31 209.762 335.071C210.569 333.803 211.679 332.808 213.091 332.088C214.503 331.368 216.131 330.964 217.976 330.878C220.08 330.878 221.91 331.137 223.466 331.656C225.022 332.174 226.405 332.794 227.616 333.515L225.843 337.059Z" fill="#0D0D0D"/>
<path d="M245.172 331.051H266.095V335.503H257.838V362.435H253.213V335.503H245.172V331.051Z" fill="#0D0D0D"/>
<path d="M285.593 331.051H306.213V335.503H290.218V344.452H304.441V348.904H290.218V357.982H306.818V362.435H285.593V331.051Z" fill="#0D0D0D"/>
<path d="M335.491 331.051C337.134 331.051 338.647 331.281 340.03 331.742C341.442 332.174 342.638 332.808 343.618 333.644C344.627 334.48 345.405 335.518 345.952 336.757C346.529 337.967 346.817 339.379 346.817 340.993C346.817 342.232 346.629 343.457 346.255 344.668C345.88 345.878 345.275 346.973 344.439 347.953C343.603 348.933 342.508 349.725 341.154 350.331C339.799 350.907 338.113 351.195 336.096 351.195H331.514V362.435H326.888V331.051H335.491ZM336.01 346.786C337.191 346.786 338.171 346.599 338.949 346.224C339.756 345.849 340.376 345.388 340.808 344.841C341.269 344.264 341.586 343.659 341.759 343.025C341.961 342.362 342.062 341.728 342.062 341.123C342.062 340.546 341.961 339.941 341.759 339.307C341.586 338.673 341.269 338.068 340.808 337.492C340.376 336.915 339.785 336.44 339.036 336.065C338.286 335.69 337.364 335.503 336.269 335.503H331.514V346.786H336.01ZM341.327 349.466L349.454 362.435H344.093L335.837 349.596L341.327 349.466Z" fill="#0D0D0D"/>
<path d="M384.947 337.059C383.851 336.483 382.67 335.993 381.402 335.59C380.134 335.186 378.909 334.984 377.727 334.984C376.113 334.984 374.831 335.359 373.88 336.108C372.929 336.829 372.453 337.823 372.453 339.091C372.453 339.985 372.77 340.763 373.404 341.425C374.038 342.088 374.86 342.665 375.868 343.155C376.877 343.645 377.943 344.106 379.067 344.538C380.018 344.884 380.955 345.302 381.877 345.792C382.828 346.253 383.678 346.829 384.428 347.521C385.206 348.212 385.811 349.077 386.243 350.115C386.704 351.123 386.935 352.362 386.935 353.832C386.935 355.504 386.517 357.017 385.681 358.371C384.874 359.726 383.693 360.807 382.137 361.613C380.609 362.392 378.75 362.781 376.56 362.781C375.234 362.781 373.938 362.637 372.669 362.348C371.43 362.031 370.249 361.628 369.125 361.138C368.03 360.619 367.035 360.057 366.142 359.452L368.217 355.864C368.909 356.354 369.701 356.829 370.594 357.291C371.488 357.723 372.41 358.069 373.361 358.328C374.341 358.587 375.263 358.717 376.128 358.717C377.079 358.717 378.015 358.559 378.938 358.242C379.86 357.896 380.624 357.377 381.229 356.685C381.834 355.965 382.137 355.028 382.137 353.875C382.137 352.896 381.863 352.074 381.315 351.411C380.797 350.72 380.09 350.129 379.197 349.639C378.332 349.149 377.396 348.717 376.387 348.342C375.407 347.967 374.413 347.55 373.404 347.088C372.396 346.627 371.459 346.08 370.594 345.446C369.73 344.783 369.024 343.976 368.476 343.025C367.957 342.045 367.698 340.849 367.698 339.437C367.698 337.765 368.087 336.31 368.865 335.071C369.672 333.803 370.782 332.808 372.194 332.088C373.606 331.368 375.234 330.964 377.079 330.878C379.183 330.878 381.013 331.137 382.569 331.656C384.125 332.174 385.508 332.794 386.719 333.515L384.947 337.059Z" fill="#0D0D0D"/>
</g>
<path d="M107.102 396.793L113.587 380.777H113.673L120.158 396.793H118.969L113.327 382.463L114.062 382.052L108.161 396.793H107.102ZM110.236 390.719H117.045L117.348 391.714H109.977L110.236 390.719ZM130.331 396.793V381.101H130.353L137.918 391.843L137.464 391.778L145.008 381.101H145.029V396.793H143.992V383.543L144.078 384.062L137.68 393.075H137.637L131.196 384.062L131.369 383.586V396.793H130.331ZM148.579 392.513C148.579 391.692 148.774 390.943 149.163 390.265C149.566 389.588 150.107 389.055 150.784 388.666C151.476 388.262 152.247 388.061 153.097 388.061C153.961 388.061 154.732 388.262 155.41 388.666C156.087 389.055 156.62 389.588 157.009 390.265C157.398 390.943 157.593 391.692 157.593 392.513C157.593 393.335 157.398 394.084 157.009 394.761C156.62 395.438 156.08 395.979 155.388 396.382C154.711 396.771 153.947 396.966 153.097 396.966C152.232 396.966 151.461 396.779 150.784 396.404C150.107 396.015 149.566 395.489 149.163 394.826C148.774 394.149 148.579 393.378 148.579 392.513ZM149.595 392.535C149.595 393.198 149.747 393.803 150.049 394.351C150.366 394.884 150.784 395.309 151.303 395.626C151.836 395.943 152.427 396.101 153.075 396.101C153.724 396.101 154.307 395.943 154.826 395.626C155.359 395.309 155.777 394.884 156.08 394.351C156.397 393.803 156.555 393.198 156.555 392.535C156.555 391.872 156.397 391.274 156.08 390.741C155.777 390.193 155.359 389.761 154.826 389.444C154.307 389.113 153.724 388.947 153.075 388.947C152.412 388.947 151.814 389.12 151.281 389.466C150.762 389.797 150.352 390.237 150.049 390.784C149.747 391.332 149.595 391.915 149.595 392.535ZM161.495 388.342L161.603 390.935L161.474 390.611C161.661 390.092 161.956 389.646 162.36 389.271C162.763 388.896 163.21 388.608 163.7 388.407C164.204 388.205 164.687 388.104 165.148 388.104L165.105 389.098C164.456 389.098 163.866 389.242 163.333 389.53C162.814 389.819 162.396 390.208 162.079 390.698C161.776 391.173 161.625 391.714 161.625 392.319V396.793H160.609V388.342H161.495ZM168.84 384.624H169.877V388.45H172.493V389.271H169.877V396.793H168.84V389.271H167.046V388.45H168.84V384.624ZM178.787 400.921C178.311 400.921 177.857 400.864 177.425 400.748C176.993 400.648 176.568 400.467 176.15 400.208C175.732 399.949 175.3 399.61 174.853 399.192L175.458 398.501C176.078 399.091 176.654 399.488 177.187 399.689C177.72 399.905 178.239 400.014 178.743 400.014C179.622 400.014 180.321 399.869 180.84 399.581C181.359 399.307 181.734 398.933 181.964 398.457C182.195 397.996 182.317 397.477 182.332 396.901L182.353 394.156L182.591 394.415C182.303 395.165 181.784 395.777 181.035 396.253C180.3 396.728 179.464 396.966 178.527 396.966C177.735 396.966 177.007 396.771 176.344 396.382C175.696 395.979 175.177 395.446 174.788 394.783C174.399 394.106 174.204 393.356 174.204 392.535C174.204 391.656 174.406 390.885 174.81 390.222C175.213 389.559 175.761 389.041 176.452 388.666C177.144 388.277 177.908 388.082 178.743 388.082C179.522 388.082 180.257 388.284 180.948 388.688C181.654 389.091 182.166 389.624 182.483 390.287L182.353 390.763L182.461 388.342H183.369V396.923C183.369 397.614 183.21 398.263 182.893 398.868C182.591 399.488 182.101 399.985 181.424 400.359C180.761 400.734 179.882 400.921 178.787 400.921ZM175.22 392.513C175.22 393.176 175.379 393.781 175.696 394.329C176.013 394.862 176.438 395.294 176.971 395.626C177.519 395.943 178.124 396.101 178.787 396.101C179.421 396.101 179.997 395.964 180.516 395.691C181.035 395.402 181.46 395.021 181.791 394.545C182.123 394.07 182.31 393.558 182.353 393.01V391.757C182.238 391.209 182.007 390.726 181.661 390.309C181.33 389.891 180.912 389.559 180.408 389.314C179.918 389.069 179.378 388.947 178.787 388.947C178.124 388.947 177.519 389.098 176.971 389.401C176.438 389.703 176.013 390.121 175.696 390.654C175.379 391.188 175.22 391.807 175.22 392.513ZM190.728 396.966C189.921 396.966 189.186 396.786 188.523 396.426C187.875 396.051 187.356 395.532 186.967 394.869C186.592 394.206 186.405 393.436 186.405 392.557C186.405 391.62 186.607 390.82 187.01 390.157C187.414 389.48 187.961 388.969 188.653 388.623C189.344 388.262 190.13 388.082 191.009 388.082C191.758 388.082 192.464 388.306 193.127 388.752C193.804 389.199 194.287 389.761 194.575 390.438L194.424 390.741L194.554 388.342H195.461V396.793H194.445V394.178L194.662 394.567C194.561 394.855 194.388 395.143 194.143 395.431C193.898 395.705 193.595 395.964 193.235 396.209C192.889 396.44 192.5 396.627 192.068 396.771C191.65 396.901 191.203 396.966 190.728 396.966ZM190.944 396.101C191.578 396.101 192.147 395.972 192.651 395.712C193.17 395.438 193.588 395.064 193.905 394.588C194.222 394.113 194.402 393.565 194.445 392.946V391.735C194.33 391.202 194.1 390.726 193.754 390.309C193.422 389.891 193.012 389.559 192.522 389.314C192.032 389.069 191.499 388.947 190.922 388.947C190.288 388.947 189.705 389.098 189.171 389.401C188.638 389.689 188.213 390.1 187.896 390.633C187.579 391.166 187.421 391.793 187.421 392.513C187.421 393.176 187.579 393.781 187.896 394.329C188.213 394.862 188.638 395.294 189.171 395.626C189.719 395.943 190.31 396.101 190.944 396.101ZM203.061 400.921C202.585 400.921 202.131 400.864 201.699 400.748C201.267 400.648 200.842 400.467 200.424 400.208C200.006 399.949 199.574 399.61 199.127 399.192L199.732 398.501C200.352 399.091 200.928 399.488 201.461 399.689C201.995 399.905 202.513 400.014 203.018 400.014C203.897 400.014 204.595 399.869 205.114 399.581C205.633 399.307 206.008 398.933 206.238 398.457C206.469 397.996 206.591 397.477 206.606 396.901L206.627 394.156L206.865 394.415C206.577 395.165 206.058 395.777 205.309 396.253C204.574 396.728 203.738 396.966 202.801 396.966C202.009 396.966 201.281 396.771 200.618 396.382C199.97 395.979 199.451 395.446 199.062 394.783C198.673 394.106 198.479 393.356 198.479 392.535C198.479 391.656 198.68 390.885 199.084 390.222C199.487 389.559 200.035 389.041 200.726 388.666C201.418 388.277 202.182 388.082 203.018 388.082C203.796 388.082 204.531 388.284 205.222 388.688C205.928 389.091 206.44 389.624 206.757 390.287L206.627 390.763L206.735 388.342H207.643V396.923C207.643 397.614 207.485 398.263 207.168 398.868C206.865 399.488 206.375 399.985 205.698 400.359C205.035 400.734 204.156 400.921 203.061 400.921ZM199.494 392.513C199.494 393.176 199.653 393.781 199.97 394.329C200.287 394.862 200.712 395.294 201.245 395.626C201.793 395.943 202.398 396.101 203.061 396.101C203.695 396.101 204.271 395.964 204.79 395.691C205.309 395.402 205.734 395.021 206.065 394.545C206.397 394.07 206.584 393.558 206.627 393.01V391.757C206.512 391.209 206.281 390.726 205.936 390.309C205.604 389.891 205.186 389.559 204.682 389.314C204.192 389.069 203.652 388.947 203.061 388.947C202.398 388.947 201.793 389.098 201.245 389.401C200.712 389.703 200.287 390.121 199.97 390.654C199.653 391.188 199.494 391.807 199.494 392.513ZM215.175 396.966C214.296 396.966 213.518 396.771 212.84 396.382C212.163 395.993 211.63 395.467 211.241 394.804C210.866 394.127 210.679 393.371 210.679 392.535C210.679 391.714 210.881 390.964 211.284 390.287C211.688 389.61 212.228 389.069 212.905 388.666C213.597 388.262 214.361 388.061 215.196 388.061C216.205 388.061 217.048 388.356 217.725 388.947C218.417 389.538 218.914 390.309 219.217 391.26L211.825 394.113L211.522 393.378L218.287 390.741L218.071 391.044C217.826 390.467 217.451 389.97 216.947 389.552C216.457 389.134 215.852 388.925 215.132 388.925C214.483 388.925 213.9 389.084 213.381 389.401C212.862 389.718 212.444 390.143 212.127 390.676C211.825 391.209 211.673 391.814 211.673 392.492C211.673 393.126 211.817 393.717 212.106 394.264C212.408 394.812 212.826 395.251 213.359 395.583C213.892 395.914 214.505 396.08 215.196 396.08C215.657 396.08 216.097 395.993 216.515 395.82C216.947 395.647 217.329 395.424 217.66 395.15L218.179 395.885C217.776 396.202 217.307 396.462 216.774 396.663C216.255 396.865 215.722 396.966 215.175 396.966ZM227.84 396.793L234.324 380.777H234.411L240.895 396.793H239.706L234.065 382.463L234.8 382.052L228.899 396.793H227.84ZM230.974 390.719H237.782L238.085 391.714H230.714L230.974 390.719ZM244.808 388.342L244.916 390.935L244.787 390.611C244.974 390.092 245.269 389.646 245.673 389.271C246.076 388.896 246.523 388.608 247.013 388.407C247.517 388.205 248 388.104 248.461 388.104L248.418 389.098C247.769 389.098 247.179 389.242 246.646 389.53C246.127 389.819 245.709 390.208 245.392 390.698C245.089 391.173 244.938 391.714 244.938 392.319V396.793H243.922V388.342H244.808ZM257.5 395.972C257.111 396.289 256.671 396.534 256.181 396.707C255.691 396.879 255.18 396.966 254.647 396.966C253.782 396.966 253.011 396.779 252.334 396.404C251.657 396.015 251.123 395.489 250.734 394.826C250.345 394.163 250.151 393.407 250.151 392.557C250.151 391.706 250.353 390.95 250.756 390.287C251.159 389.624 251.693 389.105 252.355 388.731C253.033 388.342 253.768 388.147 254.56 388.147C255.151 388.147 255.698 388.234 256.203 388.407C256.707 388.579 257.147 388.824 257.521 389.141L256.981 389.833C256.678 389.588 256.325 389.386 255.922 389.228C255.518 389.069 255.086 388.99 254.625 388.99C253.991 388.99 253.407 389.149 252.874 389.466C252.355 389.783 251.938 390.215 251.621 390.763C251.318 391.296 251.167 391.894 251.167 392.557C251.167 393.205 251.318 393.803 251.621 394.351C251.938 394.884 252.363 395.309 252.896 395.626C253.443 395.943 254.049 396.101 254.711 396.101C255.144 396.101 255.547 396.036 255.922 395.907C256.297 395.763 256.635 395.575 256.938 395.345L257.5 395.972ZM260.323 396.793V380.366H261.317V390.59L261.252 390.222C261.541 389.631 262.002 389.134 262.636 388.731C263.284 388.313 264.026 388.104 264.862 388.104C265.655 388.104 266.296 388.342 266.786 388.817C267.276 389.278 267.528 389.884 267.542 390.633V396.793H266.505V390.914C266.49 390.366 266.317 389.912 265.986 389.552C265.655 389.192 265.172 389.005 264.538 388.99C263.976 388.99 263.45 389.134 262.96 389.422C262.47 389.711 262.074 390.1 261.771 390.59C261.483 391.08 261.339 391.634 261.339 392.254V396.793H260.323ZM271.384 388.342H272.399V396.793H271.384V388.342ZM271.167 385.229C271.167 385.027 271.247 384.862 271.405 384.732C271.564 384.588 271.737 384.516 271.924 384.516C272.126 384.516 272.299 384.588 272.443 384.732C272.587 384.862 272.659 385.027 272.659 385.229C272.659 385.445 272.587 385.625 272.443 385.77C272.299 385.899 272.126 385.964 271.924 385.964C271.737 385.964 271.564 385.892 271.405 385.748C271.247 385.604 271.167 385.431 271.167 385.229ZM277.081 384.624H278.119V388.45H280.734V389.271H278.119V396.793H277.081V389.271H275.287V388.45H277.081V384.624ZM286.942 396.966C286.063 396.966 285.285 396.771 284.607 396.382C283.93 395.993 283.397 395.467 283.008 394.804C282.633 394.127 282.446 393.371 282.446 392.535C282.446 391.714 282.648 390.964 283.051 390.287C283.455 389.61 283.995 389.069 284.672 388.666C285.364 388.262 286.128 388.061 286.963 388.061C287.972 388.061 288.815 388.356 289.492 388.947C290.184 389.538 290.681 390.309 290.984 391.26L283.591 394.113L283.289 393.378L290.054 390.741L289.838 391.044C289.593 390.467 289.218 389.97 288.714 389.552C288.224 389.134 287.619 388.925 286.898 388.925C286.25 388.925 285.666 389.084 285.148 389.401C284.629 389.718 284.211 390.143 283.894 390.676C283.591 391.209 283.44 391.814 283.44 392.492C283.44 393.126 283.584 393.717 283.872 394.264C284.175 394.812 284.593 395.251 285.126 395.583C285.659 395.914 286.272 396.08 286.963 396.08C287.424 396.08 287.864 395.993 288.282 395.82C288.714 395.647 289.096 395.424 289.427 395.15L289.946 395.885C289.543 396.202 289.074 396.462 288.541 396.663C288.022 396.865 287.489 396.966 286.942 396.966ZM300.328 395.972C299.939 396.289 299.499 396.534 299.009 396.707C298.519 396.879 298.008 396.966 297.475 396.966C296.61 396.966 295.839 396.779 295.162 396.404C294.485 396.015 293.951 395.489 293.562 394.826C293.173 394.163 292.979 393.407 292.979 392.557C292.979 391.706 293.18 390.95 293.584 390.287C293.987 389.624 294.521 389.105 295.183 388.731C295.861 388.342 296.596 388.147 297.388 388.147C297.979 388.147 298.526 388.234 299.031 388.407C299.535 388.579 299.975 388.824 300.349 389.141L299.809 389.833C299.506 389.588 299.153 389.386 298.75 389.228C298.346 389.069 297.914 388.99 297.453 388.99C296.819 388.99 296.235 389.149 295.702 389.466C295.183 389.783 294.766 390.215 294.449 390.763C294.146 391.296 293.995 391.894 293.995 392.557C293.995 393.205 294.146 393.803 294.449 394.351C294.766 394.884 295.191 395.309 295.724 395.626C296.271 395.943 296.877 396.101 297.539 396.101C297.972 396.101 298.375 396.036 298.75 395.907C299.124 395.763 299.463 395.575 299.766 395.345L300.328 395.972ZM303.994 384.624H305.031V388.45H307.647V389.271H305.031V396.793H303.994V389.271H302.2V388.45H303.994V384.624ZM312.168 396.966C311.678 396.966 311.167 396.879 310.634 396.707C310.101 396.519 309.668 396.224 309.337 395.82L309.812 395.15C310.101 395.453 310.439 395.698 310.828 395.885C311.232 396.058 311.657 396.145 312.104 396.145C312.435 396.145 312.745 396.101 313.033 396.015C313.336 395.914 313.581 395.748 313.768 395.518C313.955 395.287 314.049 394.977 314.049 394.588C314.049 394.185 313.934 393.875 313.703 393.659C313.487 393.443 313.206 393.27 312.86 393.14C312.529 392.996 312.176 392.866 311.801 392.751C311.181 392.549 310.67 392.276 310.266 391.93C309.877 391.584 309.683 391.094 309.683 390.46C309.683 389.999 309.791 389.595 310.007 389.25C310.238 388.904 310.547 388.637 310.936 388.45C311.325 388.248 311.765 388.147 312.255 388.147C312.702 388.147 313.141 388.219 313.573 388.363C314.02 388.507 314.424 388.752 314.784 389.098L314.33 389.811C314.099 389.494 313.789 389.278 313.4 389.163C313.026 389.048 312.694 388.983 312.406 388.969C312.161 388.969 311.902 389.019 311.628 389.12C311.369 389.221 311.145 389.372 310.958 389.574C310.785 389.761 310.699 390.013 310.699 390.33C310.699 390.662 310.792 390.935 310.98 391.152C311.167 391.353 311.405 391.519 311.693 391.649C311.995 391.778 312.305 391.901 312.622 392.016C313.04 392.146 313.429 392.304 313.789 392.492C314.164 392.665 314.467 392.902 314.697 393.205C314.942 393.493 315.065 393.882 315.065 394.372C315.065 394.862 314.957 395.309 314.741 395.712C314.524 396.101 314.2 396.411 313.768 396.642C313.35 396.858 312.817 396.966 312.168 396.966ZM325.284 396.793V381.447H329.067C330.551 381.447 331.812 381.684 332.849 382.16C333.901 382.621 334.751 383.233 335.4 383.997C336.048 384.761 336.524 385.597 336.826 386.504C337.129 387.412 337.28 388.313 337.28 389.206C337.28 390.373 337.079 391.425 336.675 392.362C336.272 393.284 335.717 394.077 335.011 394.74C334.319 395.402 333.527 395.914 332.633 396.274C331.74 396.62 330.796 396.793 329.802 396.793H325.284ZM326.343 395.777H329.521C330.443 395.777 331.307 395.626 332.114 395.323C332.921 395.021 333.627 394.581 334.233 394.005C334.852 393.428 335.335 392.737 335.681 391.93C336.027 391.108 336.2 390.179 336.2 389.141C336.2 388.262 336.048 387.427 335.746 386.634C335.457 385.827 335.018 385.114 334.427 384.494C333.836 383.875 333.109 383.385 332.244 383.025C331.379 382.664 330.371 382.484 329.218 382.484H326.343V395.777ZM340.681 388.342H341.697V396.793H340.681V388.342ZM340.465 385.229C340.465 385.027 340.544 384.862 340.702 384.732C340.861 384.588 341.034 384.516 341.221 384.516C341.423 384.516 341.596 384.588 341.74 384.732C341.884 384.862 341.956 385.027 341.956 385.229C341.956 385.445 341.884 385.625 341.74 385.77C341.596 385.899 341.423 385.964 341.221 385.964C341.034 385.964 340.861 385.892 340.702 385.748C340.544 385.604 340.465 385.431 340.465 385.229ZM348.497 397.117L344.217 388.342H345.406L348.929 396.015L348.302 395.993L351.696 388.342H352.82L348.627 397.117H348.497ZM355.351 388.342H356.367V396.793H355.351V388.342ZM355.135 385.229C355.135 385.027 355.214 384.862 355.372 384.732C355.531 384.588 355.704 384.516 355.891 384.516C356.093 384.516 356.266 384.588 356.41 384.732C356.554 384.862 356.626 385.027 356.626 385.229C356.626 385.445 356.554 385.625 356.41 385.77C356.266 385.899 356.093 385.964 355.891 385.964C355.704 385.964 355.531 385.892 355.372 385.748C355.214 385.604 355.135 385.431 355.135 385.229ZM362.194 396.966C361.704 396.966 361.193 396.879 360.66 396.707C360.126 396.519 359.694 396.224 359.363 395.82L359.838 395.15C360.126 395.453 360.465 395.698 360.854 395.885C361.258 396.058 361.683 396.145 362.129 396.145C362.461 396.145 362.771 396.101 363.059 396.015C363.361 395.914 363.606 395.748 363.794 395.518C363.981 395.287 364.075 394.977 364.075 394.588C364.075 394.185 363.959 393.875 363.729 393.659C363.513 393.443 363.232 393.27 362.886 393.14C362.554 392.996 362.201 392.866 361.827 392.751C361.207 392.549 360.696 392.276 360.292 391.93C359.903 391.584 359.709 391.094 359.709 390.46C359.709 389.999 359.817 389.595 360.033 389.25C360.263 388.904 360.573 388.637 360.962 388.45C361.351 388.248 361.791 388.147 362.281 388.147C362.727 388.147 363.167 388.219 363.599 388.363C364.046 388.507 364.449 388.752 364.81 389.098L364.356 389.811C364.125 389.494 363.815 389.278 363.426 389.163C363.052 389.048 362.72 388.983 362.432 388.969C362.187 388.969 361.928 389.019 361.654 389.12C361.394 389.221 361.171 389.372 360.984 389.574C360.811 389.761 360.724 390.013 360.724 390.33C360.724 390.662 360.818 390.935 361.005 391.152C361.193 391.353 361.43 391.519 361.719 391.649C362.021 391.778 362.331 391.901 362.648 392.016C363.066 392.146 363.455 392.304 363.815 392.492C364.19 392.665 364.493 392.902 364.723 393.205C364.968 393.493 365.091 393.882 365.091 394.372C365.091 394.862 364.982 395.309 364.766 395.712C364.55 396.101 364.226 396.411 363.794 396.642C363.376 396.858 362.843 396.966 362.194 396.966ZM368.163 388.342H369.179V396.793H368.163V388.342ZM367.947 385.229C367.947 385.027 368.026 384.862 368.185 384.732C368.343 384.588 368.516 384.516 368.704 384.516C368.905 384.516 369.078 384.588 369.222 384.732C369.367 384.862 369.439 385.027 369.439 385.229C369.439 385.445 369.367 385.625 369.222 385.77C369.078 385.899 368.905 385.964 368.704 385.964C368.516 385.964 368.343 385.892 368.185 385.748C368.026 385.604 367.947 385.431 367.947 385.229ZM372.197 392.513C372.197 391.692 372.391 390.943 372.78 390.265C373.184 389.588 373.724 389.055 374.402 388.666C375.093 388.262 375.864 388.061 376.714 388.061C377.579 388.061 378.35 388.262 379.027 388.666C379.704 389.055 380.237 389.588 380.626 390.265C381.016 390.943 381.21 391.692 381.21 392.513C381.21 393.335 381.016 394.084 380.626 394.761C380.237 395.438 379.697 395.979 379.005 396.382C378.328 396.771 377.564 396.966 376.714 396.966C375.85 396.966 375.079 396.779 374.402 396.404C373.724 396.015 373.184 395.489 372.78 394.826C372.391 394.149 372.197 393.378 372.197 392.513ZM373.213 392.535C373.213 393.198 373.364 393.803 373.667 394.351C373.984 394.884 374.402 395.309 374.92 395.626C375.453 395.943 376.044 396.101 376.693 396.101C377.341 396.101 377.925 395.943 378.443 395.626C378.977 395.309 379.394 394.884 379.697 394.351C380.014 393.803 380.173 393.198 380.173 392.535C380.173 391.872 380.014 391.274 379.697 390.741C379.394 390.193 378.977 389.761 378.443 389.444C377.925 389.113 377.341 388.947 376.693 388.947C376.03 388.947 375.432 389.12 374.899 389.466C374.38 389.797 373.969 390.237 373.667 390.784C373.364 391.332 373.213 391.915 373.213 392.535ZM385.113 388.342L385.221 391L385.091 390.482C385.336 389.747 385.797 389.17 386.474 388.752C387.166 388.32 387.93 388.104 388.766 388.104C389.558 388.104 390.199 388.342 390.689 388.817C391.179 389.278 391.431 389.884 391.446 390.633V396.793H390.408V390.914C390.394 390.366 390.221 389.912 389.889 389.552C389.558 389.192 389.075 389.005 388.441 388.99C387.879 388.99 387.353 389.127 386.863 389.401C386.374 389.675 385.977 390.056 385.675 390.546C385.386 391.036 385.242 391.605 385.242 392.254V396.793H384.226V388.342H385.113Z" fill="#575757"/>
</g>
<defs>
<filter id="filter0_ii_102_812" x="113.065" y="327.996" width="273.87" height="36.5863" filterUnits="userSpaceOnUse" color-interpolation-filters="sRGB">
<feFlood flood-opacity="0" result="BackgroundImageFix"/>
<feBlend mode="normal" in="SourceGraphic" in2="BackgroundImageFix" result="shape"/>
<feColorMatrix in="SourceAlpha" type="matrix" values="0 0 0 0 0 0 0 0 0 0 0 0 0 0 0 0 0 0 127 0" result="hardAlpha"/>
<feOffset dy="-1.80121"/>
<feGaussianBlur stdDeviation="0.900605"/>
<feComposite in2="hardAlpha" operator="arithmetic" k2="-1" k3="1"/>
<feColorMatrix type="matrix" values="0 0 0 0 1 0 0 0 0 1 0 0 0 0 1 0 0 0 0.25 0"/>
<feBlend mode="normal" in2="shape" result="effect1_innerShadow_102_812"/>
<feColorMatrix in="SourceAlpha" type="matrix" values="0 0 0 0 0 0 0 0 0 0 0 0 0 0 0 0 0 0 127 0" result="hardAlpha"/>
<feOffset dy="1.80121"/>
<feGaussianBlur stdDeviation="0.900605"/>
<feComposite in2="hardAlpha" operator="arithmetic" k2="-1" k3="1"/>
<feColorMatrix type="matrix" values="0 0 0 0 0 0 0 0 0 0 0 0 0 0 0 0 0 0 0.25 0"/>
<feBlend mode="normal" in2="effect1_innerShadow_102_812" result="effect2_innerShadow_102_812"/>
</filter>
<clipPath id="clip0_102_812">
<rect width="500" height="500" fill="white"/>
</clipPath>
</defs>
</svg>
