<svg width="500" height="500" viewBox="0 0 500 500" fill="none" xmlns="http://www.w3.org/2000/svg">
<rect width="500" height="500" fill="#F4F4F4"/>
<path d="M201.477 328.91C198.579 328.91 195.934 328.238 193.544 326.894C191.154 325.519 189.256 323.622 187.852 321.202C186.478 318.752 185.791 316.003 185.791 312.955C185.791 309.908 186.478 307.174 187.852 304.754C189.256 302.303 191.154 300.406 193.544 299.062C195.934 297.687 198.579 297 201.477 297C204.405 297 207.064 297.687 209.454 299.062C211.845 300.406 213.727 302.289 215.101 304.709C216.476 307.129 217.163 309.878 217.163 312.955C217.163 316.033 216.476 318.782 215.101 321.202C213.727 323.622 211.845 325.519 209.454 326.894C207.064 328.238 204.405 328.91 201.477 328.91ZM201.477 325.37C203.658 325.37 205.615 324.862 207.348 323.846C209.111 322.83 210.485 321.381 211.471 319.499C212.487 317.616 212.995 315.435 212.995 312.955C212.995 310.445 212.487 308.264 211.471 306.412C210.485 304.529 209.126 303.08 207.393 302.064C205.66 301.049 203.688 300.541 201.477 300.541C199.266 300.541 197.294 301.049 195.561 302.064C193.828 303.08 192.453 304.529 191.438 306.412C190.452 308.264 189.959 310.445 189.959 312.955C189.959 315.435 190.452 317.616 191.438 319.499C192.453 321.381 193.828 322.83 195.561 323.846C197.324 324.862 199.296 325.37 201.477 325.37Z" fill="#0D0D0D"/>
<path d="M226.626 308.025C227.343 306.621 228.359 305.53 229.673 304.754C231.018 303.977 232.646 303.588 234.558 303.588V307.801H233.483C228.911 307.801 226.626 310.281 226.626 315.241V328.597H222.547V304.036H226.626V308.025Z" fill="#0D0D0D"/>
<path d="M261.675 315.375C261.675 316.152 261.631 316.974 261.541 317.84H241.911C242.06 320.261 242.882 322.158 244.376 323.532C245.899 324.877 247.737 325.549 249.888 325.549C251.651 325.549 253.115 325.146 254.28 324.339C255.476 323.502 256.312 322.397 256.79 321.022H261.182C260.525 323.383 259.21 325.31 257.238 326.804C255.266 328.268 252.816 329 249.888 329C247.558 329 245.466 328.477 243.614 327.431C241.791 326.386 240.357 324.907 239.311 322.994C238.265 321.052 237.743 318.811 237.743 316.272C237.743 313.732 238.25 311.506 239.266 309.594C240.282 307.682 241.701 306.218 243.524 305.202C245.377 304.156 247.498 303.633 249.888 303.633C252.219 303.633 254.28 304.141 256.073 305.157C257.866 306.173 259.24 307.577 260.196 309.37C261.182 311.133 261.675 313.134 261.675 315.375ZM257.462 314.524C257.462 312.97 257.119 311.641 256.432 310.535C255.744 309.4 254.803 308.548 253.608 307.98C252.443 307.383 251.143 307.084 249.709 307.084C247.647 307.084 245.884 307.741 244.42 309.056C242.986 310.371 242.165 312.193 241.955 314.524H257.462Z" fill="#0D0D0D"/>
<path d="M288.84 304.036V328.597H284.762V324.966C283.985 326.221 282.894 327.207 281.49 327.924C280.116 328.612 278.592 328.955 276.919 328.955C275.006 328.955 273.288 328.567 271.765 327.79C270.241 326.983 269.031 325.788 268.134 324.204C267.268 322.621 266.835 320.694 266.835 318.423V304.036H270.868V317.885C270.868 320.305 271.481 322.173 272.706 323.487C273.931 324.772 275.604 325.415 277.725 325.415C279.907 325.415 281.625 324.742 282.879 323.398C284.134 322.053 284.762 320.096 284.762 317.527V304.036H288.84Z" fill="#0D0D0D"/>
<path d="M304.421 329C302.539 329 300.851 328.686 299.357 328.059C297.863 327.401 296.683 326.505 295.816 325.37C294.95 324.204 294.472 322.875 294.382 321.381H298.595C298.714 322.606 299.282 323.607 300.298 324.384C301.344 325.161 302.703 325.549 304.376 325.549C305.93 325.549 307.155 325.205 308.051 324.518C308.948 323.831 309.396 322.965 309.396 321.919C309.396 320.843 308.918 320.051 307.962 319.543C307.006 319.006 305.527 318.483 303.525 317.975C301.702 317.497 300.208 317.019 299.043 316.541C297.908 316.033 296.922 315.301 296.085 314.345C295.278 313.359 294.875 312.074 294.875 310.49C294.875 309.235 295.248 308.085 295.995 307.039C296.742 305.993 297.803 305.172 299.177 304.574C300.552 303.947 302.12 303.633 303.883 303.633C306.602 303.633 308.798 304.32 310.472 305.695C312.145 307.069 313.041 308.951 313.161 311.342H309.082C308.993 310.057 308.47 309.026 307.514 308.249C306.587 307.472 305.332 307.084 303.749 307.084C302.285 307.084 301.12 307.398 300.253 308.025C299.387 308.653 298.953 309.474 298.953 310.49C298.953 311.297 299.207 311.969 299.715 312.507C300.253 313.015 300.91 313.433 301.687 313.762C302.494 314.061 303.599 314.404 305.004 314.793C306.767 315.271 308.201 315.749 309.306 316.227C310.412 316.675 311.353 317.362 312.13 318.289C312.937 319.215 313.355 320.425 313.385 321.919C313.385 323.263 313.011 324.473 312.264 325.549C311.517 326.625 310.457 327.476 309.082 328.104C307.738 328.701 306.184 329 304.421 329Z" fill="#0D0D0D"/>
<mask id="mask0_102_836" style="mask-type:alpha" maskUnits="userSpaceOnUse" x="182" y="69" width="154" height="200">
<path d="M312.721 169.259C312.721 186.11 299.061 199.771 282.209 199.771C265.358 199.771 251.697 186.11 251.697 169.259L251.696 155.437L184.29 69L182.406 269H335.31V69H184.29L251.696 155.437H312.721V169.259Z" fill="white"/>
</mask>
<g mask="url(#mask0_102_836)">
<path d="M331.298 169.244C307.098 169.244 284.29 169.244 252.222 169.244C220.154 169.244 216.88 231.24 216.88 231.24L254.229 268.589C254.229 268.589 355.498 169.244 331.298 169.244Z" fill="#0D0D0D"/>
<path d="M249.165 69.3231L254.217 268.586C254.217 268.586 180.848 207.772 183.742 166.429C186.636 125.086 249.165 69.3231 249.165 69.3231Z" fill="#0D0D0D"/>
</g>
<circle cx="282.374" cy="166.265" r="21.5122" fill="#0D0D0D"/>
<path d="M121.963 361.112C121.227 361.112 120.566 360.984 119.979 360.728C119.403 360.461 118.95 360.099 118.619 359.64C118.289 359.171 118.118 358.632 118.107 358.024H119.659C119.713 358.547 119.926 358.989 120.299 359.352C120.683 359.704 121.238 359.88 121.963 359.88C122.657 359.88 123.201 359.709 123.595 359.368C124.001 359.016 124.203 358.568 124.203 358.024C124.203 357.597 124.086 357.251 123.851 356.984C123.617 356.717 123.323 356.515 122.971 356.376C122.619 356.237 122.145 356.088 121.547 355.928C120.811 355.736 120.219 355.544 119.771 355.352C119.334 355.16 118.955 354.861 118.635 354.456C118.326 354.04 118.171 353.485 118.171 352.792C118.171 352.184 118.326 351.645 118.635 351.176C118.945 350.707 119.377 350.344 119.931 350.088C120.497 349.832 121.142 349.704 121.867 349.704C122.913 349.704 123.766 349.965 124.427 350.488C125.099 351.011 125.478 351.704 125.563 352.568H123.963C123.91 352.141 123.686 351.768 123.291 351.448C122.897 351.117 122.374 350.952 121.723 350.952C121.115 350.952 120.619 351.112 120.235 351.432C119.851 351.741 119.659 352.179 119.659 352.744C119.659 353.149 119.771 353.48 119.995 353.736C120.23 353.992 120.513 354.189 120.843 354.328C121.185 354.456 121.659 354.605 122.267 354.776C123.003 354.979 123.595 355.181 124.043 355.384C124.491 355.576 124.875 355.88 125.195 356.296C125.515 356.701 125.675 357.256 125.675 357.96C125.675 358.504 125.531 359.016 125.243 359.496C124.955 359.976 124.529 360.365 123.963 360.664C123.398 360.963 122.731 361.112 121.963 361.112ZM131.642 361.144C130.821 361.144 130.074 360.957 129.402 360.584C128.741 360.211 128.218 359.683 127.834 359C127.461 358.307 127.274 357.507 127.274 356.6C127.274 355.704 127.466 354.915 127.85 354.232C128.245 353.539 128.778 353.011 129.45 352.648C130.122 352.275 130.874 352.088 131.706 352.088C132.538 352.088 133.29 352.275 133.962 352.648C134.634 353.011 135.162 353.533 135.546 354.216C135.941 354.899 136.138 355.693 136.138 356.6C136.138 357.507 135.935 358.307 135.53 359C135.135 359.683 134.597 360.211 133.914 360.584C133.231 360.957 132.474 361.144 131.642 361.144ZM131.642 359.864C132.165 359.864 132.655 359.741 133.114 359.496C133.573 359.251 133.941 358.883 134.218 358.392C134.506 357.901 134.65 357.304 134.65 356.6C134.65 355.896 134.511 355.299 134.234 354.808C133.957 354.317 133.594 353.955 133.146 353.72C132.698 353.475 132.213 353.352 131.69 353.352C131.157 353.352 130.666 353.475 130.218 353.72C129.781 353.955 129.429 354.317 129.162 354.808C128.895 355.299 128.762 355.896 128.762 356.6C128.762 357.315 128.89 357.917 129.146 358.408C129.413 358.899 129.765 359.267 130.202 359.512C130.639 359.747 131.119 359.864 131.642 359.864ZM141.62 353.432H139.78V361H138.324V353.432H137.188V352.232H138.324V351.608C138.324 350.627 138.575 349.912 139.076 349.464C139.588 349.005 140.404 348.776 141.524 348.776V349.992C140.884 349.992 140.431 350.12 140.164 350.376C139.908 350.621 139.78 351.032 139.78 351.608V352.232H141.62V353.432ZM145.094 353.432V358.6C145.094 359.027 145.185 359.331 145.366 359.512C145.547 359.683 145.862 359.768 146.31 359.768H147.382V361H146.07C145.259 361 144.651 360.813 144.246 360.44C143.841 360.067 143.638 359.453 143.638 358.6V353.432H142.502V352.232H143.638V350.024H145.094V352.232H147.382V353.432H145.094ZM160.826 352.232L158.09 361H156.586L154.474 354.04L152.362 361H150.858L148.106 352.232H149.594L151.61 359.592L153.786 352.232H155.274L157.402 359.608L159.386 352.232H160.826ZM161.727 356.584C161.727 355.688 161.908 354.904 162.271 354.232C162.634 353.549 163.13 353.021 163.759 352.648C164.399 352.275 165.108 352.088 165.887 352.088C166.655 352.088 167.322 352.253 167.887 352.584C168.452 352.915 168.874 353.331 169.151 353.832V352.232H170.623V361H169.151V359.368C168.863 359.88 168.431 360.307 167.855 360.648C167.29 360.979 166.628 361.144 165.871 361.144C165.092 361.144 164.388 360.952 163.759 360.568C163.13 360.184 162.634 359.645 162.271 358.952C161.908 358.259 161.727 357.469 161.727 356.584ZM169.151 356.6C169.151 355.939 169.018 355.363 168.751 354.872C168.484 354.381 168.122 354.008 167.663 353.752C167.215 353.485 166.719 353.352 166.175 353.352C165.631 353.352 165.135 353.48 164.687 353.736C164.239 353.992 163.882 354.365 163.615 354.856C163.348 355.347 163.215 355.923 163.215 356.584C163.215 357.256 163.348 357.843 163.615 358.344C163.882 358.835 164.239 359.213 164.687 359.48C165.135 359.736 165.631 359.864 166.175 359.864C166.719 359.864 167.215 359.736 167.663 359.48C168.122 359.213 168.484 358.835 168.751 358.344C169.018 357.843 169.151 357.261 169.151 356.6ZM174.54 353.656C174.796 353.155 175.158 352.765 175.628 352.488C176.108 352.211 176.689 352.072 177.372 352.072V353.576H176.988C175.356 353.576 174.54 354.461 174.54 356.232V361H173.084V352.232H174.54V353.656ZM187.052 356.28C187.052 356.557 187.036 356.851 187.004 357.16H179.996C180.05 358.024 180.343 358.701 180.876 359.192C181.42 359.672 182.076 359.912 182.844 359.912C183.474 359.912 183.996 359.768 184.412 359.48C184.839 359.181 185.138 358.787 185.308 358.296H186.876C186.642 359.139 186.172 359.827 185.468 360.36C184.764 360.883 183.89 361.144 182.844 361.144C182.012 361.144 181.266 360.957 180.604 360.584C179.954 360.211 179.442 359.683 179.068 359C178.695 358.307 178.508 357.507 178.508 356.6C178.508 355.693 178.69 354.899 179.052 354.216C179.415 353.533 179.922 353.011 180.572 352.648C181.234 352.275 181.991 352.088 182.844 352.088C183.676 352.088 184.412 352.269 185.052 352.632C185.692 352.995 186.183 353.496 186.524 354.136C186.876 354.765 187.052 355.48 187.052 356.28ZM185.548 355.976C185.548 355.421 185.426 354.947 185.18 354.552C184.935 354.147 184.599 353.843 184.172 353.64C183.756 353.427 183.292 353.32 182.78 353.32C182.044 353.32 181.415 353.555 180.892 354.024C180.38 354.493 180.087 355.144 180.012 355.976H185.548ZM196.712 349.848C197.928 349.848 198.978 350.077 199.864 350.536C200.76 350.984 201.442 351.629 201.912 352.472C202.392 353.315 202.632 354.307 202.632 355.448C202.632 356.589 202.392 357.581 201.912 358.424C201.442 359.256 200.76 359.896 199.864 360.344C198.978 360.781 197.928 361 196.712 361H193.24V349.848H196.712ZM196.712 359.8C198.152 359.8 199.25 359.421 200.008 358.664C200.765 357.896 201.144 356.824 201.144 355.448C201.144 354.061 200.76 352.979 199.992 352.2C199.234 351.421 198.141 351.032 196.712 351.032H194.696V359.8H196.712ZM212.552 356.28C212.552 356.557 212.536 356.851 212.504 357.16H205.496C205.55 358.024 205.843 358.701 206.376 359.192C206.92 359.672 207.576 359.912 208.344 359.912C208.974 359.912 209.496 359.768 209.912 359.48C210.339 359.181 210.638 358.787 210.808 358.296H212.376C212.142 359.139 211.672 359.827 210.968 360.36C210.264 360.883 209.39 361.144 208.344 361.144C207.512 361.144 206.766 360.957 206.104 360.584C205.454 360.211 204.942 359.683 204.568 359C204.195 358.307 204.008 357.507 204.008 356.6C204.008 355.693 204.19 354.899 204.552 354.216C204.915 353.533 205.422 353.011 206.072 352.648C206.734 352.275 207.491 352.088 208.344 352.088C209.176 352.088 209.912 352.269 210.552 352.632C211.192 352.995 211.683 353.496 212.024 354.136C212.376 354.765 212.552 355.48 212.552 356.28ZM211.048 355.976C211.048 355.421 210.926 354.947 210.68 354.552C210.435 354.147 210.099 353.843 209.672 353.64C209.256 353.427 208.792 353.32 208.28 353.32C207.544 353.32 206.915 353.555 206.392 354.024C205.88 354.493 205.587 355.144 205.512 355.976H211.048ZM217.738 359.656L220.458 352.232H222.01L218.57 361H216.874L213.434 352.232H215.002L217.738 359.656ZM231.443 356.28C231.443 356.557 231.427 356.851 231.395 357.16H224.387C224.44 358.024 224.734 358.701 225.267 359.192C225.811 359.672 226.467 359.912 227.235 359.912C227.864 359.912 228.387 359.768 228.803 359.48C229.23 359.181 229.528 358.787 229.699 358.296H231.267C231.032 359.139 230.563 359.827 229.859 360.36C229.155 360.883 228.28 361.144 227.235 361.144C226.403 361.144 225.656 360.957 224.995 360.584C224.344 360.211 223.832 359.683 223.459 359C223.086 358.307 222.899 357.507 222.899 356.6C222.899 355.693 223.08 354.899 223.443 354.216C223.806 353.533 224.312 353.011 224.963 352.648C225.624 352.275 226.382 352.088 227.235 352.088C228.067 352.088 228.803 352.269 229.443 352.632C230.083 352.995 230.574 353.496 230.915 354.136C231.267 354.765 231.443 355.48 231.443 356.28ZM229.939 355.976C229.939 355.421 229.816 354.947 229.571 354.552C229.326 354.147 228.99 353.843 228.563 353.64C228.147 353.427 227.683 353.32 227.171 353.32C226.435 353.32 225.806 353.555 225.283 354.024C224.771 354.493 224.478 355.144 224.403 355.976H229.939ZM234.821 349.16V361H233.365V349.16H234.821ZM241.126 361.144C240.305 361.144 239.558 360.957 238.886 360.584C238.225 360.211 237.702 359.683 237.318 359C236.945 358.307 236.758 357.507 236.758 356.6C236.758 355.704 236.95 354.915 237.334 354.232C237.729 353.539 238.262 353.011 238.934 352.648C239.606 352.275 240.358 352.088 241.19 352.088C242.022 352.088 242.774 352.275 243.446 352.648C244.118 353.011 244.646 353.533 245.03 354.216C245.425 354.899 245.622 355.693 245.622 356.6C245.622 357.507 245.42 358.307 245.014 359C244.62 359.683 244.081 360.211 243.398 360.584C242.716 360.957 241.958 361.144 241.126 361.144ZM241.126 359.864C241.649 359.864 242.14 359.741 242.598 359.496C243.057 359.251 243.425 358.883 243.702 358.392C243.99 357.901 244.134 357.304 244.134 356.6C244.134 355.896 243.996 355.299 243.718 354.808C243.441 354.317 243.078 353.955 242.63 353.72C242.182 353.475 241.697 353.352 241.174 353.352C240.641 353.352 240.15 353.475 239.702 353.72C239.265 353.955 238.913 354.317 238.646 354.808C238.38 355.299 238.246 355.896 238.246 356.6C238.246 357.315 238.374 357.917 238.63 358.408C238.897 358.899 239.249 359.267 239.686 359.512C240.124 359.747 240.604 359.864 241.126 359.864ZM248.993 353.848C249.281 353.347 249.707 352.931 250.273 352.6C250.849 352.259 251.515 352.088 252.273 352.088C253.051 352.088 253.755 352.275 254.385 352.648C255.025 353.021 255.526 353.549 255.889 354.232C256.251 354.904 256.433 355.688 256.433 356.584C256.433 357.469 256.251 358.259 255.889 358.952C255.526 359.645 255.025 360.184 254.385 360.568C253.755 360.952 253.051 361.144 252.273 361.144C251.526 361.144 250.865 360.979 250.289 360.648C249.723 360.307 249.291 359.885 248.993 359.384V365.16H247.537V352.232H248.993V353.848ZM254.945 356.584C254.945 355.923 254.811 355.347 254.545 354.856C254.278 354.365 253.915 353.992 253.457 353.736C253.009 353.48 252.513 353.352 251.969 353.352C251.435 353.352 250.939 353.485 250.481 353.752C250.033 354.008 249.67 354.387 249.393 354.888C249.126 355.379 248.993 355.949 248.993 356.6C248.993 357.261 249.126 357.843 249.393 358.344C249.67 358.835 250.033 359.213 250.481 359.48C250.939 359.736 251.435 359.864 251.969 359.864C252.513 359.864 253.009 359.736 253.457 359.48C253.915 359.213 254.278 358.835 254.545 358.344C254.811 357.843 254.945 357.256 254.945 356.584ZM268.893 352.072C269.576 352.072 270.184 352.216 270.717 352.504C271.251 352.781 271.672 353.203 271.981 353.768C272.291 354.333 272.445 355.021 272.445 355.832V361H271.005V356.04C271.005 355.165 270.787 354.499 270.349 354.04C269.923 353.571 269.341 353.336 268.605 353.336C267.848 353.336 267.245 353.581 266.797 354.072C266.349 354.552 266.125 355.251 266.125 356.168V361H264.685V356.04C264.685 355.165 264.467 354.499 264.029 354.04C263.603 353.571 263.021 353.336 262.285 353.336C261.528 353.336 260.925 353.581 260.477 354.072C260.029 354.552 259.805 355.251 259.805 356.168V361H258.349V352.232H259.805V353.496C260.093 353.037 260.477 352.685 260.957 352.44C261.448 352.195 261.987 352.072 262.573 352.072C263.309 352.072 263.96 352.237 264.525 352.568C265.091 352.899 265.512 353.384 265.789 354.024C266.035 353.405 266.44 352.925 267.005 352.584C267.571 352.243 268.2 352.072 268.893 352.072ZM282.834 356.28C282.834 356.557 282.818 356.851 282.786 357.16H275.778C275.831 358.024 276.124 358.701 276.658 359.192C277.202 359.672 277.858 359.912 278.626 359.912C279.255 359.912 279.778 359.768 280.194 359.48C280.62 359.181 280.919 358.787 281.09 358.296H282.658C282.423 359.139 281.954 359.827 281.25 360.36C280.546 360.883 279.671 361.144 278.626 361.144C277.794 361.144 277.047 360.957 276.386 360.584C275.735 360.211 275.223 359.683 274.85 359C274.476 358.307 274.29 357.507 274.29 356.6C274.29 355.693 274.471 354.899 274.834 354.216C275.196 353.533 275.703 353.011 276.354 352.648C277.015 352.275 277.772 352.088 278.626 352.088C279.458 352.088 280.194 352.269 280.834 352.632C281.474 352.995 281.964 353.496 282.306 354.136C282.658 354.765 282.834 355.48 282.834 356.28ZM281.33 355.976C281.33 355.421 281.207 354.947 280.962 354.552C280.716 354.147 280.38 353.843 279.954 353.64C279.538 353.427 279.074 353.32 278.562 353.32C277.826 353.32 277.196 353.555 276.674 354.024C276.162 354.493 275.868 355.144 275.794 355.976H281.33ZM289.027 352.072C290.094 352.072 290.958 352.397 291.619 353.048C292.281 353.688 292.611 354.616 292.611 355.832V361H291.171V356.04C291.171 355.165 290.953 354.499 290.515 354.04C290.078 353.571 289.481 353.336 288.723 353.336C287.955 353.336 287.342 353.576 286.883 354.056C286.435 354.536 286.211 355.235 286.211 356.152V361H284.755V352.232H286.211V353.48C286.499 353.032 286.889 352.685 287.379 352.44C287.881 352.195 288.43 352.072 289.027 352.072ZM296.766 353.432V358.6C296.766 359.027 296.856 359.331 297.038 359.512C297.219 359.683 297.534 359.768 297.982 359.768H299.054V361H297.742C296.931 361 296.323 360.813 295.918 360.44C295.512 360.067 295.31 359.453 295.31 358.6V353.432H294.174V352.232H295.31V350.024H296.766V352.232H299.054V353.432H296.766ZM304.54 355.416C304.54 354.328 304.785 353.352 305.276 352.488C305.766 351.613 306.433 350.931 307.276 350.44C308.129 349.949 309.073 349.704 310.108 349.704C311.324 349.704 312.385 349.997 313.292 350.584C314.198 351.171 314.86 352.003 315.276 353.08H313.532C313.222 352.408 312.774 351.891 312.188 351.528C311.612 351.165 310.918 350.984 310.108 350.984C309.329 350.984 308.63 351.165 308.012 351.528C307.393 351.891 306.908 352.408 306.556 353.08C306.204 353.741 306.028 354.52 306.028 355.416C306.028 356.301 306.204 357.08 306.556 357.752C306.908 358.413 307.393 358.925 308.012 359.288C308.63 359.651 309.329 359.832 310.108 359.832C310.918 359.832 311.612 359.656 312.188 359.304C312.774 358.941 313.222 358.424 313.532 357.752H315.276C314.86 358.819 314.198 359.645 313.292 360.232C312.385 360.808 311.324 361.096 310.108 361.096C309.073 361.096 308.129 360.856 307.276 360.376C306.433 359.885 305.766 359.208 305.276 358.344C304.785 357.48 304.54 356.504 304.54 355.416ZM321.267 361.144C320.446 361.144 319.699 360.957 319.027 360.584C318.366 360.211 317.843 359.683 317.459 359C317.086 358.307 316.899 357.507 316.899 356.6C316.899 355.704 317.091 354.915 317.475 354.232C317.87 353.539 318.403 353.011 319.075 352.648C319.747 352.275 320.499 352.088 321.331 352.088C322.163 352.088 322.915 352.275 323.587 352.648C324.259 353.011 324.787 353.533 325.171 354.216C325.566 354.899 325.763 355.693 325.763 356.6C325.763 357.507 325.56 358.307 325.155 359C324.76 359.683 324.222 360.211 323.539 360.584C322.856 360.957 322.099 361.144 321.267 361.144ZM321.267 359.864C321.79 359.864 322.28 359.741 322.739 359.496C323.198 359.251 323.566 358.883 323.843 358.392C324.131 357.901 324.275 357.304 324.275 356.6C324.275 355.896 324.136 355.299 323.859 354.808C323.582 354.317 323.219 353.955 322.771 353.72C322.323 353.475 321.838 353.352 321.315 353.352C320.782 353.352 320.291 353.475 319.843 353.72C319.406 353.955 319.054 354.317 318.787 354.808C318.52 355.299 318.387 355.896 318.387 356.6C318.387 357.315 318.515 357.917 318.771 358.408C319.038 358.899 319.39 359.267 319.827 359.512C320.264 359.747 320.744 359.864 321.267 359.864ZM338.221 352.072C338.904 352.072 339.512 352.216 340.045 352.504C340.579 352.781 341 353.203 341.309 353.768C341.619 354.333 341.773 355.021 341.773 355.832V361H340.333V356.04C340.333 355.165 340.115 354.499 339.677 354.04C339.251 353.571 338.669 353.336 337.933 353.336C337.176 353.336 336.573 353.581 336.125 354.072C335.677 354.552 335.453 355.251 335.453 356.168V361H334.013V356.04C334.013 355.165 333.795 354.499 333.357 354.04C332.931 353.571 332.349 353.336 331.613 353.336C330.856 353.336 330.253 353.581 329.805 354.072C329.357 354.552 329.133 355.251 329.133 356.168V361H327.677V352.232H329.133V353.496C329.421 353.037 329.805 352.685 330.285 352.44C330.776 352.195 331.315 352.072 331.901 352.072C332.637 352.072 333.288 352.237 333.853 352.568C334.419 352.899 334.84 353.384 335.117 354.024C335.363 353.405 335.768 352.925 336.333 352.584C336.899 352.243 337.528 352.072 338.221 352.072ZM345.618 353.848C345.906 353.347 346.332 352.931 346.898 352.6C347.474 352.259 348.14 352.088 348.898 352.088C349.676 352.088 350.38 352.275 351.01 352.648C351.65 353.021 352.151 353.549 352.514 354.232C352.876 354.904 353.058 355.688 353.058 356.584C353.058 357.469 352.876 358.259 352.514 358.952C352.151 359.645 351.65 360.184 351.01 360.568C350.38 360.952 349.676 361.144 348.898 361.144C348.151 361.144 347.49 360.979 346.914 360.648C346.348 360.307 345.916 359.885 345.618 359.384V365.16H344.162V352.232H345.618V353.848ZM351.57 356.584C351.57 355.923 351.436 355.347 351.17 354.856C350.903 354.365 350.54 353.992 350.082 353.736C349.634 353.48 349.138 353.352 348.594 353.352C348.06 353.352 347.564 353.485 347.106 353.752C346.658 354.008 346.295 354.387 346.018 354.888C345.751 355.379 345.618 355.949 345.618 356.6C345.618 357.261 345.751 357.843 346.018 358.344C346.295 358.835 346.658 359.213 347.106 359.48C347.564 359.736 348.06 359.864 348.594 359.864C349.138 359.864 349.634 359.736 350.082 359.48C350.54 359.213 350.903 358.835 351.17 358.344C351.436 357.843 351.57 357.256 351.57 356.584ZM354.43 356.584C354.43 355.688 354.612 354.904 354.974 354.232C355.337 353.549 355.833 353.021 356.462 352.648C357.102 352.275 357.812 352.088 358.59 352.088C359.358 352.088 360.025 352.253 360.59 352.584C361.156 352.915 361.577 353.331 361.854 353.832V352.232H363.326V361H361.854V359.368C361.566 359.88 361.134 360.307 360.558 360.648C359.993 360.979 359.332 361.144 358.574 361.144C357.796 361.144 357.092 360.952 356.462 360.568C355.833 360.184 355.337 359.645 354.974 358.952C354.612 358.259 354.43 357.469 354.43 356.584ZM361.854 356.6C361.854 355.939 361.721 355.363 361.454 354.872C361.188 354.381 360.825 354.008 360.366 353.752C359.918 353.485 359.422 353.352 358.878 353.352C358.334 353.352 357.838 353.48 357.39 353.736C356.942 353.992 356.585 354.365 356.318 354.856C356.052 355.347 355.918 355.923 355.918 356.584C355.918 357.256 356.052 357.843 356.318 358.344C356.585 358.835 356.942 359.213 357.39 359.48C357.838 359.736 358.334 359.864 358.878 359.864C359.422 359.864 359.918 359.736 360.366 359.48C360.825 359.213 361.188 358.835 361.454 358.344C361.721 357.843 361.854 357.261 361.854 356.6ZM370.059 352.072C371.125 352.072 371.989 352.397 372.651 353.048C373.312 353.688 373.643 354.616 373.643 355.832V361H372.203V356.04C372.203 355.165 371.984 354.499 371.547 354.04C371.109 353.571 370.512 353.336 369.755 353.336C368.987 353.336 368.373 353.576 367.915 354.056C367.467 354.536 367.243 355.235 367.243 356.152V361H365.787V352.232H367.243V353.48C367.531 353.032 367.92 352.685 368.411 352.44C368.912 352.195 369.461 352.072 370.059 352.072ZM383.573 352.232L378.293 365.128H376.789L378.517 360.904L374.981 352.232H376.597L379.349 359.336L382.069 352.232H383.573Z" fill="#0D0D0D"/>
</svg>
