<svg width="500" height="500" viewBox="0 0 500 500" fill="none" xmlns="http://www.w3.org/2000/svg">
<rect width="500" height="500" fill="#0D0D0D"/>
<rect x="136.363" y="193.903" width="46.2645" height="10.4095" rx="5.20476" fill="#F4F4F4" stroke="#F4F4F4" stroke-width="4.62645"/>
<rect x="136.363" y="145.325" width="74.0232" height="10.4095" rx="5.20476" fill="#F4F4F4" stroke="#F4F4F4" stroke-width="4.62645"/>
<path d="M218.359 106C219.492 106 220.501 106.444 221.162 107.233L256.78 149.767C258.202 151.465 258.8 153.704 258.416 155.885L245.735 227.802C245.103 231.387 241.989 234 238.349 234H157.36C155.004 234 153.425 232.118 153.834 229.798L156.012 217.45C156.644 213.865 159.758 211.252 163.398 211.252H179.157C185.864 211.252 191.302 205.814 191.302 199.107C191.302 192.4 185.864 186.963 179.157 186.963H170.326C165.663 186.963 162.13 182.753 162.94 178.16L164.578 168.871C165.21 165.287 168.324 162.674 171.964 162.674H205.759C212.466 162.674 217.903 157.236 217.903 150.529C217.903 143.822 212.466 138.385 205.759 138.385H178.891C174.228 138.385 170.696 134.175 171.505 129.582L174.923 110.202C175.332 107.882 177.573 106 179.93 106H218.359Z" fill="#F4F4F4"/>
<path d="M358.048 108.278H324.193C322.816 108.278 321.4 108.818 320.257 109.778L270.138 151.892C268.999 152.849 268.225 154.148 267.986 155.501L255.447 226.614C254.95 229.435 256.868 231.722 259.733 231.722H336.282C339.146 231.722 341.871 229.435 342.369 226.614L362.334 113.386C362.831 110.565 360.913 108.278 358.048 108.278Z" fill="#F4F4F4" stroke="#F4F4F4" stroke-width="4.62645"/>
<path d="M180.417 302L170.925 289.483L172.417 288.45L181.949 300.89L180.417 302ZM170.236 298.708C168.322 298.708 166.561 298.376 164.953 297.713C163.371 297.024 161.98 296.08 160.781 294.88C159.607 293.656 158.701 292.214 158.063 290.555C157.425 288.871 157.106 287.033 157.106 285.043C157.106 283.053 157.425 281.228 158.063 279.569C158.701 277.885 159.607 276.431 160.781 275.206C161.98 273.981 163.371 273.037 164.953 272.373C166.561 271.684 168.322 271.34 170.236 271.34C172.15 271.34 173.91 271.684 175.518 272.373C177.126 273.037 178.516 273.981 179.69 275.206C180.864 276.431 181.77 277.885 182.408 279.569C183.071 281.228 183.403 283.053 183.403 285.043C183.403 287.033 183.071 288.871 182.408 290.555C181.77 292.214 180.864 293.656 179.69 294.88C178.516 296.08 177.126 297.024 175.518 297.713C173.91 298.376 172.15 298.708 170.236 298.708ZM170.236 296.794C171.843 296.794 173.323 296.514 174.676 295.952C176.054 295.365 177.24 294.549 178.236 293.502C179.231 292.431 179.996 291.18 180.532 289.751C181.094 288.322 181.374 286.753 181.374 285.043C181.374 283.333 181.094 281.764 180.532 280.335C179.996 278.88 179.231 277.63 178.236 276.584C177.24 275.537 176.054 274.721 174.676 274.134C173.323 273.547 171.843 273.254 170.236 273.254C168.628 273.254 167.135 273.547 165.757 274.134C164.405 274.721 163.231 275.537 162.236 276.584C161.266 277.63 160.5 278.88 159.939 280.335C159.403 281.764 159.135 283.333 159.135 285.043C159.135 286.753 159.403 288.322 159.939 289.751C160.5 291.18 161.266 292.431 162.236 293.502C163.231 294.549 164.405 295.365 165.757 295.952C167.135 296.514 168.628 296.794 170.236 296.794Z" fill="#F4F4F4"/>
<path d="M195.273 298.708C193.64 298.708 192.288 298.415 191.216 297.828C190.17 297.241 189.379 296.348 188.843 295.148C188.332 293.923 188.077 292.367 188.077 290.478V278.421H189.991V290.402C189.991 291.882 190.182 293.107 190.565 294.077C190.948 295.021 191.535 295.722 192.326 296.182C193.117 296.641 194.112 296.871 195.312 296.871C196.256 296.871 197.136 296.705 197.953 296.373C198.769 296.016 199.484 295.557 200.096 294.995C200.709 294.408 201.181 293.745 201.513 293.005C201.87 292.239 202.048 291.435 202.048 290.593V278.421H203.962V298.325H202.125L201.934 294.115H202.163C201.883 294.957 201.385 295.722 200.67 296.411C199.956 297.1 199.114 297.662 198.144 298.096C197.2 298.504 196.243 298.708 195.273 298.708Z" fill="#F4F4F4"/>
<path d="M210.415 298.325V278.421H212.329V298.325H210.415ZM211.372 274.249C210.81 274.249 210.376 274.096 210.07 273.789C209.764 273.483 209.611 273.062 209.611 272.526C209.611 272.016 209.764 271.608 210.07 271.301C210.376 270.97 210.81 270.804 211.372 270.804C211.933 270.804 212.367 270.957 212.673 271.263C212.979 271.569 213.132 271.99 213.132 272.526C213.132 273.037 212.979 273.458 212.673 273.789C212.367 274.096 211.933 274.249 211.372 274.249Z" fill="#F4F4F4"/>
<path d="M227.149 298.708C225.235 298.708 223.526 298.262 222.02 297.368C220.54 296.475 219.366 295.25 218.498 293.694C217.656 292.137 217.235 290.351 217.235 288.335C217.235 286.319 217.656 284.533 218.498 282.976C219.366 281.419 220.553 280.207 222.058 279.34C223.564 278.447 225.299 278 227.264 278C228.897 278 230.377 278.319 231.704 278.957C233.057 279.595 234.18 280.488 235.073 281.636L233.848 283.129C233.286 282.44 232.648 281.866 231.934 281.407C231.219 280.922 230.454 280.552 229.637 280.297C228.821 280.041 227.979 279.914 227.111 279.914C225.605 279.914 224.266 280.284 223.092 281.024C221.918 281.738 220.987 282.734 220.298 284.01C219.609 285.26 219.264 286.702 219.264 288.335C219.264 289.968 219.596 291.423 220.259 292.699C220.948 293.974 221.88 294.982 223.054 295.722C224.227 296.437 225.542 296.794 226.996 296.794C227.838 296.794 228.668 296.667 229.484 296.411C230.301 296.156 231.066 295.799 231.781 295.34C232.495 294.855 233.146 294.268 233.733 293.579L234.958 295.072C234.039 296.22 232.878 297.113 231.475 297.751C230.097 298.389 228.655 298.708 227.149 298.708Z" fill="#F4F4F4"/>
<path d="M240.224 291.742V289.33L251.439 278.421H253.966L240.224 291.742ZM238.616 298.325V270H240.53V298.325H238.616ZM252.511 298.325L243.324 287.684L244.626 286.268L255.037 298.325H252.511Z" fill="#F4F4F4"/>
<path d="M259.469 298.325V271.531H269.229C270.965 271.531 272.585 271.863 274.091 272.526C275.596 273.19 276.91 274.121 278.033 275.321C279.182 276.494 280.075 277.898 280.713 279.531C281.376 281.164 281.708 282.963 281.708 284.928C281.708 286.868 281.376 288.667 280.713 290.325C280.075 291.959 279.182 293.375 278.033 294.574C276.91 295.748 275.596 296.667 274.091 297.33C272.585 297.994 270.965 298.325 269.229 298.325H259.469ZM261.382 297.062L260.847 296.411H269.038C270.493 296.411 271.858 296.131 273.134 295.569C274.435 295.008 275.571 294.217 276.54 293.196C277.51 292.15 278.276 290.938 278.837 289.56C279.398 288.156 279.679 286.612 279.679 284.928C279.679 283.244 279.398 281.713 278.837 280.335C278.276 278.931 277.51 277.719 276.54 276.699C275.571 275.652 274.435 274.848 273.134 274.287C271.858 273.726 270.493 273.445 269.038 273.445H260.732L261.382 272.871V297.062Z" fill="#F4F4F4"/>
<path d="M295.115 298.708C293.124 298.708 291.351 298.262 289.794 297.368C288.263 296.475 287.051 295.238 286.158 293.656C285.29 292.073 284.856 290.274 284.856 288.258C284.856 286.268 285.29 284.507 286.158 282.976C287.051 281.419 288.263 280.207 289.794 279.34C291.351 278.447 293.124 278 295.115 278C297.105 278 298.866 278.447 300.397 279.34C301.954 280.207 303.166 281.419 304.033 282.976C304.901 284.507 305.335 286.268 305.335 288.258C305.335 290.274 304.901 292.073 304.033 293.656C303.166 295.238 301.954 296.475 300.397 297.368C298.866 298.262 297.105 298.708 295.115 298.708ZM295.115 296.794C296.697 296.794 298.1 296.424 299.325 295.684C300.576 294.944 301.545 293.936 302.234 292.66C302.949 291.384 303.306 289.917 303.306 288.258C303.306 286.651 302.949 285.222 302.234 283.971C301.545 282.695 300.576 281.7 299.325 280.986C298.1 280.271 296.697 279.914 295.115 279.914C293.507 279.914 292.078 280.271 290.828 280.986C289.603 281.7 288.633 282.695 287.919 283.971C287.23 285.222 286.885 286.651 286.885 288.258C286.885 289.917 287.23 291.384 287.919 292.66C288.633 293.936 289.603 294.944 290.828 295.684C292.078 296.424 293.507 296.794 295.115 296.794Z" fill="#F4F4F4"/>
<path d="M317.685 298.708C315.771 298.708 314.061 298.262 312.555 297.368C311.075 296.475 309.901 295.25 309.034 293.694C308.192 292.137 307.771 290.351 307.771 288.335C307.771 286.319 308.192 284.533 309.034 282.976C309.901 281.419 311.088 280.207 312.594 279.34C314.099 278.447 315.834 278 317.799 278C319.433 278 320.913 278.319 322.24 278.957C323.592 279.595 324.715 280.488 325.608 281.636L324.383 283.129C323.822 282.44 323.184 281.866 322.469 281.407C321.755 280.922 320.989 280.552 320.173 280.297C319.356 280.041 318.514 279.914 317.646 279.914C316.141 279.914 314.801 280.284 313.627 281.024C312.453 281.738 311.522 282.734 310.833 284.01C310.144 285.26 309.799 286.702 309.799 288.335C309.799 289.968 310.131 291.423 310.795 292.699C311.484 293.974 312.415 294.982 313.589 295.722C314.763 296.437 316.077 296.794 317.531 296.794C318.374 296.794 319.203 296.667 320.019 296.411C320.836 296.156 321.602 295.799 322.316 295.34C323.031 294.855 323.681 294.268 324.268 293.579L325.493 295.072C324.574 296.22 323.413 297.113 322.01 297.751C320.632 298.389 319.19 298.708 317.685 298.708Z" fill="#F4F4F4"/>
<path d="M335.621 298.708C333.885 298.708 332.341 298.376 330.989 297.713C329.636 297.024 328.603 296.195 327.888 295.225L329.343 293.962C330.032 294.88 330.925 295.595 332.022 296.105C333.12 296.59 334.357 296.833 335.735 296.833C336.501 296.833 337.203 296.756 337.841 296.603C338.479 296.424 339.014 296.182 339.448 295.876C339.908 295.569 340.265 295.199 340.52 294.766C340.775 294.306 340.903 293.796 340.903 293.234C340.903 292.239 340.431 291.397 339.487 290.708C339.053 290.402 338.504 290.121 337.841 289.866C337.177 289.611 336.399 289.356 335.506 289.1C334.153 288.692 333.005 288.309 332.061 287.952C331.117 287.595 330.364 287.148 329.802 286.612C329.394 286.179 329.088 285.719 328.884 285.234C328.68 284.724 328.577 284.175 328.577 283.589C328.577 282.772 328.743 282.032 329.075 281.368C329.407 280.679 329.879 280.08 330.491 279.569C331.104 279.059 331.818 278.676 332.635 278.421C333.451 278.14 334.357 278 335.353 278C336.297 278 337.228 278.14 338.147 278.421C339.065 278.676 339.92 279.046 340.711 279.531C341.502 280.016 342.191 280.577 342.778 281.215L341.477 282.632C340.967 282.07 340.405 281.573 339.793 281.139C339.206 280.705 338.555 280.373 337.841 280.144C337.126 279.888 336.335 279.761 335.467 279.761C334.778 279.761 334.128 279.85 333.515 280.029C332.928 280.207 332.418 280.475 331.984 280.833C331.55 281.164 331.206 281.56 330.951 282.019C330.721 282.453 330.606 282.938 330.606 283.474C330.606 283.882 330.683 284.252 330.836 284.584C330.989 284.89 331.231 285.183 331.563 285.464C331.997 285.821 332.571 286.128 333.286 286.383C334.026 286.638 334.932 286.919 336.003 287.225C336.973 287.48 337.828 287.735 338.568 287.99C339.308 288.246 339.946 288.552 340.482 288.909C341.298 289.419 341.898 290.019 342.281 290.708C342.689 291.397 342.893 292.188 342.893 293.081C342.893 294.179 342.587 295.148 341.975 295.99C341.362 296.833 340.507 297.496 339.41 297.981C338.313 298.466 337.05 298.708 335.621 298.708Z" fill="#F4F4F4"/>
<path d="M123.648 326V314.8H128.08C128.667 314.8 129.195 314.944 129.664 315.232C130.133 315.52 130.507 315.92 130.784 316.432C131.061 316.933 131.2 317.499 131.2 318.128C131.2 318.789 131.061 319.381 130.784 319.904C130.507 320.416 130.133 320.827 129.664 321.136C129.195 321.435 128.667 321.584 128.08 321.584H124.896V326H123.648ZM124.896 320.368H128.144C128.475 320.368 128.768 320.272 129.024 320.08C129.291 319.877 129.504 319.611 129.664 319.28C129.824 318.939 129.904 318.549 129.904 318.112C129.904 317.717 129.824 317.365 129.664 317.056C129.504 316.736 129.291 316.485 129.024 316.304C128.768 316.112 128.475 316.016 128.144 316.016H124.896V320.368ZM133.121 326V317.648H134.321L134.353 319.872L134.225 319.568C134.342 319.195 134.529 318.848 134.785 318.528C135.052 318.208 135.366 317.952 135.729 317.76C136.092 317.568 136.492 317.472 136.929 317.472C137.11 317.472 137.281 317.488 137.441 317.52C137.601 317.541 137.734 317.573 137.841 317.616L137.505 318.96C137.366 318.896 137.222 318.853 137.073 318.832C136.934 318.8 136.801 318.784 136.673 318.784C136.31 318.784 135.985 318.848 135.697 318.976C135.409 319.104 135.164 319.285 134.961 319.52C134.758 319.744 134.604 320.005 134.497 320.304C134.39 320.603 134.337 320.923 134.337 321.264V326H133.121ZM142.427 326.16C141.595 326.16 140.853 325.973 140.203 325.6C139.563 325.227 139.056 324.709 138.683 324.048C138.32 323.387 138.139 322.635 138.139 321.792C138.139 320.96 138.32 320.219 138.683 319.568C139.056 318.917 139.563 318.405 140.203 318.032C140.853 317.659 141.595 317.472 142.427 317.472C143.248 317.472 143.979 317.659 144.619 318.032C145.269 318.405 145.776 318.917 146.139 319.568C146.512 320.219 146.699 320.96 146.699 321.792C146.699 322.635 146.512 323.387 146.139 324.048C145.776 324.709 145.269 325.227 144.619 325.6C143.979 325.973 143.248 326.16 142.427 326.16ZM142.427 325.024C143.013 325.024 143.536 324.885 143.995 324.608C144.453 324.32 144.811 323.936 145.067 323.456C145.323 322.965 145.451 322.411 145.451 321.792C145.451 321.173 145.323 320.624 145.067 320.144C144.811 319.664 144.453 319.291 143.995 319.024C143.536 318.747 143.013 318.608 142.427 318.608C141.84 318.608 141.312 318.747 140.843 319.024C140.384 319.291 140.021 319.669 139.755 320.16C139.499 320.64 139.376 321.184 139.387 321.792C139.376 322.411 139.499 322.965 139.755 323.456C140.021 323.936 140.384 324.32 140.843 324.608C141.312 324.885 141.84 325.024 142.427 325.024ZM149.097 326V316.352C149.097 315.936 149.187 315.568 149.369 315.248C149.55 314.928 149.806 314.677 150.137 314.496C150.478 314.304 150.873 314.208 151.321 314.208C151.662 314.208 151.966 314.272 152.233 314.4C152.51 314.517 152.739 314.683 152.921 314.896L152.505 315.84C152.334 315.659 152.147 315.531 151.945 315.456C151.753 315.371 151.566 315.328 151.385 315.328C151.15 315.328 150.953 315.371 150.793 315.456C150.633 315.531 150.51 315.648 150.425 315.808C150.35 315.957 150.313 316.139 150.313 316.352V326H149.753C149.635 326 149.523 326 149.417 326C149.31 326 149.203 326 149.097 326ZM147.609 318.832V317.712H152.441V318.832H147.609ZM157.551 326.16C156.719 326.16 155.978 325.979 155.327 325.616C154.687 325.253 154.186 324.747 153.823 324.096C153.46 323.445 153.279 322.699 153.279 321.856C153.279 321.205 153.38 320.619 153.583 320.096C153.786 319.563 154.068 319.099 154.431 318.704C154.804 318.309 155.247 318.005 155.759 317.792C156.271 317.568 156.826 317.456 157.423 317.456C157.988 317.456 158.5 317.557 158.959 317.76C159.428 317.963 159.828 318.245 160.159 318.608C160.5 318.96 160.756 319.381 160.927 319.872C161.098 320.363 161.172 320.901 161.151 321.488L161.135 322.048H154.175L153.999 321.04H160.223L159.935 321.312V320.928C159.914 320.544 159.802 320.176 159.599 319.824C159.396 319.461 159.108 319.168 158.735 318.944C158.372 318.72 157.935 318.608 157.423 318.608C156.826 318.608 156.308 318.731 155.871 318.976C155.434 319.211 155.098 319.563 154.863 320.032C154.628 320.501 154.511 321.083 154.511 321.776C154.511 322.437 154.639 323.013 154.895 323.504C155.151 323.984 155.514 324.357 155.983 324.624C156.463 324.891 157.039 325.024 157.711 325.024C158.106 325.024 158.495 324.96 158.879 324.832C159.274 324.693 159.706 324.427 160.175 324.032L160.799 324.896C160.554 325.141 160.26 325.36 159.919 325.552C159.578 325.733 159.204 325.883 158.799 326C158.394 326.107 157.978 326.16 157.551 326.16ZM165.592 326.16C164.877 326.16 164.237 326.027 163.672 325.76C163.106 325.493 162.658 325.141 162.328 324.704L163.176 323.968C163.485 324.341 163.848 324.624 164.264 324.816C164.69 325.008 165.165 325.104 165.688 325.104C165.954 325.104 166.194 325.077 166.408 325.024C166.621 324.96 166.808 324.869 166.968 324.752C167.128 324.635 167.25 324.496 167.336 324.336C167.421 324.176 167.464 324 167.464 323.808C167.464 323.456 167.309 323.163 167 322.928C166.861 322.832 166.664 322.736 166.408 322.64C166.152 322.533 165.842 322.432 165.48 322.336C164.882 322.165 164.386 321.995 163.992 321.824C163.597 321.643 163.288 321.435 163.064 321.2C162.904 321.008 162.781 320.8 162.696 320.576C162.621 320.352 162.584 320.107 162.584 319.84C162.584 319.499 162.653 319.184 162.792 318.896C162.941 318.608 163.144 318.357 163.4 318.144C163.666 317.92 163.976 317.755 164.328 317.648C164.69 317.531 165.08 317.472 165.496 317.472C165.89 317.472 166.28 317.525 166.664 317.632C167.048 317.739 167.405 317.893 167.736 318.096C168.066 318.299 168.349 318.539 168.584 318.816L167.848 319.616C167.645 319.403 167.421 319.211 167.176 319.04C166.93 318.869 166.669 318.736 166.391 318.64C166.125 318.544 165.848 318.496 165.56 318.496C165.304 318.496 165.064 318.528 164.84 318.592C164.626 318.656 164.44 318.747 164.28 318.864C164.13 318.971 164.013 319.104 163.928 319.264C163.853 319.424 163.816 319.6 163.816 319.792C163.816 319.952 163.848 320.096 163.912 320.224C163.976 320.352 164.066 320.464 164.184 320.56C164.333 320.677 164.541 320.789 164.808 320.896C165.085 320.992 165.426 321.093 165.832 321.2C166.301 321.328 166.696 321.461 167.016 321.6C167.346 321.728 167.618 321.883 167.832 322.064C168.12 322.277 168.322 322.523 168.44 322.8C168.568 323.077 168.632 323.392 168.632 323.744C168.632 324.213 168.498 324.629 168.232 324.992C167.976 325.355 167.618 325.643 167.16 325.856C166.701 326.059 166.178 326.16 165.592 326.16ZM173.248 326.16C172.533 326.16 171.893 326.027 171.328 325.76C170.762 325.493 170.314 325.141 169.984 324.704L170.832 323.968C171.141 324.341 171.504 324.624 171.92 324.816C172.346 325.008 172.821 325.104 173.344 325.104C173.61 325.104 173.85 325.077 174.064 325.024C174.277 324.96 174.464 324.869 174.624 324.752C174.784 324.635 174.906 324.496 174.992 324.336C175.077 324.176 175.12 324 175.12 323.808C175.12 323.456 174.965 323.163 174.656 322.928C174.517 322.832 174.32 322.736 174.064 322.64C173.808 322.533 173.498 322.432 173.136 322.336C172.538 322.165 172.042 321.995 171.648 321.824C171.253 321.643 170.944 321.435 170.72 321.2C170.56 321.008 170.437 320.8 170.352 320.576C170.277 320.352 170.24 320.107 170.24 319.84C170.24 319.499 170.309 319.184 170.448 318.896C170.597 318.608 170.8 318.357 171.056 318.144C171.322 317.92 171.632 317.755 171.984 317.648C172.346 317.531 172.736 317.472 173.152 317.472C173.546 317.472 173.936 317.525 174.32 317.632C174.704 317.739 175.061 317.893 175.392 318.096C175.722 318.299 176.005 318.539 176.24 318.816L175.504 319.616C175.301 319.403 175.077 319.211 174.832 319.04C174.586 318.869 174.325 318.736 174.048 318.64C173.781 318.544 173.504 318.496 173.216 318.496C172.96 318.496 172.72 318.528 172.496 318.592C172.282 318.656 172.096 318.747 171.936 318.864C171.786 318.971 171.669 319.104 171.584 319.264C171.509 319.424 171.472 319.6 171.472 319.792C171.472 319.952 171.504 320.096 171.568 320.224C171.632 320.352 171.722 320.464 171.84 320.56C171.989 320.677 172.197 320.789 172.464 320.896C172.741 320.992 173.082 321.093 173.488 321.2C173.957 321.328 174.352 321.461 174.672 321.6C175.002 321.728 175.274 321.883 175.488 322.064C175.776 322.277 175.978 322.523 176.096 322.8C176.224 323.077 176.288 323.392 176.288 323.744C176.288 324.213 176.154 324.629 175.888 324.992C175.632 325.355 175.274 325.643 174.816 325.856C174.357 326.059 173.834 326.16 173.248 326.16ZM178.488 326V317.648H179.688V326H178.488ZM179.08 315.84C178.781 315.84 178.552 315.765 178.392 315.616C178.243 315.456 178.168 315.243 178.168 314.976C178.168 314.709 178.248 314.496 178.408 314.336C178.568 314.176 178.792 314.096 179.08 314.096C179.368 314.096 179.592 314.176 179.752 314.336C179.912 314.485 179.992 314.699 179.992 314.976C179.992 315.232 179.912 315.44 179.752 315.6C179.592 315.76 179.368 315.84 179.08 315.84ZM186.005 326.16C185.173 326.16 184.431 325.973 183.781 325.6C183.141 325.227 182.634 324.709 182.261 324.048C181.898 323.387 181.717 322.635 181.717 321.792C181.717 320.96 181.898 320.219 182.261 319.568C182.634 318.917 183.141 318.405 183.781 318.032C184.431 317.659 185.173 317.472 186.005 317.472C186.826 317.472 187.557 317.659 188.197 318.032C188.847 318.405 189.354 318.917 189.717 319.568C190.09 320.219 190.277 320.96 190.277 321.792C190.277 322.635 190.09 323.387 189.717 324.048C189.354 324.709 188.847 325.227 188.197 325.6C187.557 325.973 186.826 326.16 186.005 326.16ZM186.005 325.024C186.591 325.024 187.114 324.885 187.573 324.608C188.031 324.32 188.389 323.936 188.645 323.456C188.901 322.965 189.029 322.411 189.029 321.792C189.029 321.173 188.901 320.624 188.645 320.144C188.389 319.664 188.031 319.291 187.573 319.024C187.114 318.747 186.591 318.608 186.005 318.608C185.418 318.608 184.89 318.747 184.421 319.024C183.962 319.291 183.599 319.669 183.333 320.16C183.077 320.64 182.954 321.184 182.965 321.792C182.954 322.411 183.077 322.965 183.333 323.456C183.599 323.936 183.962 324.32 184.421 324.608C184.89 324.885 185.418 325.024 186.005 325.024ZM192.027 326V317.648H193.211L193.259 319.392L193.067 319.472C193.174 319.109 193.382 318.779 193.691 318.48C194.001 318.181 194.369 317.941 194.795 317.76C195.233 317.568 195.681 317.472 196.139 317.472C196.758 317.472 197.275 317.595 197.691 317.84C198.107 318.085 198.422 318.464 198.635 318.976C198.849 319.488 198.955 320.139 198.955 320.928V326H197.739V320.992C197.739 320.437 197.665 319.984 197.515 319.632C197.377 319.269 197.158 319.003 196.859 318.832C196.561 318.661 196.193 318.581 195.755 318.592C195.393 318.592 195.057 318.656 194.747 318.784C194.438 318.901 194.171 319.067 193.947 319.28C193.723 319.493 193.547 319.739 193.419 320.016C193.291 320.293 193.227 320.592 193.227 320.912V326H192.635C192.561 326 192.475 326 192.379 326C192.283 326 192.166 326 192.027 326ZM204.51 326.16C203.785 326.16 203.129 325.973 202.542 325.6C201.955 325.216 201.491 324.699 201.15 324.048C200.809 323.387 200.638 322.64 200.638 321.808C200.638 320.965 200.814 320.219 201.166 319.568C201.518 318.917 201.987 318.405 202.574 318.032C203.171 317.659 203.838 317.472 204.574 317.472C205.011 317.472 205.417 317.536 205.79 317.664C206.163 317.792 206.494 317.973 206.782 318.208C207.081 318.432 207.326 318.699 207.518 319.008C207.721 319.307 207.859 319.632 207.934 319.984L207.582 319.808L207.63 317.648H208.83V326H207.614V323.952L207.934 323.744C207.859 324.064 207.715 324.373 207.502 324.672C207.289 324.96 207.027 325.216 206.718 325.44C206.419 325.664 206.078 325.84 205.694 325.968C205.321 326.096 204.926 326.16 204.51 326.16ZM204.782 325.008C205.337 325.008 205.833 324.875 206.27 324.608C206.707 324.331 207.049 323.952 207.294 323.472C207.55 322.981 207.678 322.427 207.678 321.808C207.678 321.189 207.55 320.64 207.294 320.16C207.049 319.68 206.707 319.301 206.27 319.024C205.833 318.747 205.337 318.608 204.782 318.608C204.217 318.608 203.715 318.747 203.278 319.024C202.851 319.301 202.51 319.68 202.254 320.16C202.009 320.64 201.886 321.189 201.886 321.808C201.886 322.416 202.009 322.965 202.254 323.456C202.499 323.936 202.841 324.315 203.278 324.592C203.715 324.869 204.217 325.008 204.782 325.008ZM211.2 326V314.16H212.4V326H211.2ZM219.726 326V314.8H223.95C224.718 314.8 225.417 314.939 226.046 315.216C226.686 315.483 227.241 315.867 227.71 316.368C228.179 316.869 228.542 317.461 228.798 318.144C229.054 318.827 229.182 319.579 229.182 320.4C229.182 321.221 229.054 321.979 228.798 322.672C228.542 323.355 228.179 323.947 227.71 324.448C227.251 324.939 226.702 325.323 226.062 325.6C225.422 325.867 224.718 326 223.95 326H219.726ZM220.974 325.008L220.83 324.784H223.87C224.457 324.784 224.995 324.683 225.486 324.48C225.987 324.267 226.414 323.968 226.766 323.584C227.129 323.189 227.406 322.725 227.598 322.192C227.801 321.659 227.902 321.061 227.902 320.4C227.902 319.739 227.801 319.141 227.598 318.608C227.406 318.075 227.129 317.616 226.766 317.232C226.403 316.837 225.977 316.539 225.486 316.336C224.995 316.123 224.457 316.016 223.87 316.016H220.782L220.974 315.824V325.008ZM234.833 326.16C234.001 326.16 233.259 325.973 232.609 325.6C231.969 325.227 231.462 324.709 231.089 324.048C230.726 323.387 230.545 322.635 230.545 321.792C230.545 320.96 230.726 320.219 231.089 319.568C231.462 318.917 231.969 318.405 232.609 318.032C233.259 317.659 234.001 317.472 234.833 317.472C235.654 317.472 236.385 317.659 237.025 318.032C237.675 318.405 238.182 318.917 238.545 319.568C238.918 320.219 239.105 320.96 239.105 321.792C239.105 322.635 238.918 323.387 238.545 324.048C238.182 324.709 237.675 325.227 237.025 325.6C236.385 325.973 235.654 326.16 234.833 326.16ZM234.833 325.024C235.419 325.024 235.942 324.885 236.401 324.608C236.859 324.32 237.217 323.936 237.473 323.456C237.729 322.965 237.857 322.411 237.857 321.792C237.857 321.173 237.729 320.624 237.473 320.144C237.217 319.664 236.859 319.291 236.401 319.024C235.942 318.747 235.419 318.608 234.833 318.608C234.246 318.608 233.718 318.747 233.249 319.024C232.79 319.291 232.427 319.669 232.161 320.16C231.905 320.64 231.782 321.184 231.793 321.792C231.782 322.411 231.905 322.965 232.161 323.456C232.427 323.936 232.79 324.32 233.249 324.608C233.718 324.885 234.246 325.024 234.833 325.024ZM244.376 326.16C243.586 326.16 242.882 325.973 242.264 325.6C241.645 325.216 241.154 324.699 240.792 324.048C240.44 323.387 240.264 322.64 240.264 321.808C240.264 320.976 240.44 320.235 240.792 319.584C241.154 318.923 241.645 318.405 242.264 318.032C242.882 317.659 243.592 317.472 244.391 317.472C245.106 317.472 245.757 317.616 246.344 317.904C246.93 318.181 247.4 318.571 247.752 319.072L247.048 319.936C246.845 319.669 246.6 319.435 246.312 319.232C246.034 319.029 245.73 318.875 245.4 318.768C245.08 318.651 244.76 318.592 244.44 318.592C243.874 318.592 243.368 318.736 242.92 319.024C242.472 319.301 242.114 319.68 241.848 320.16C241.592 320.64 241.464 321.189 241.464 321.808C241.464 322.427 241.592 322.981 241.848 323.472C242.114 323.952 242.472 324.331 242.92 324.608C243.368 324.885 243.869 325.024 244.424 325.024C244.744 325.024 245.058 324.976 245.368 324.88C245.677 324.773 245.97 324.624 246.248 324.432C246.525 324.24 246.781 324 247.016 323.712L247.72 324.576C247.357 325.056 246.872 325.44 246.264 325.728C245.656 326.016 245.026 326.16 244.376 326.16ZM252.237 326.16C251.597 326.16 251.053 326.032 250.605 325.776C250.168 325.509 249.832 325.125 249.597 324.624C249.373 324.123 249.261 323.499 249.261 322.752V317.648H250.477V322.512C250.477 323.077 250.552 323.552 250.701 323.936C250.861 324.309 251.096 324.592 251.405 324.784C251.725 324.976 252.115 325.072 252.573 325.072C252.925 325.072 253.251 325.013 253.549 324.896C253.848 324.768 254.109 324.597 254.333 324.384C254.557 324.171 254.733 323.92 254.861 323.632C254.989 323.344 255.053 323.04 255.053 322.72V317.648H256.253V326H255.069L255.021 324.24L255.213 324.144C255.085 324.517 254.872 324.859 254.573 325.168C254.275 325.467 253.917 325.707 253.501 325.888C253.096 326.069 252.675 326.16 252.237 326.16ZM258.574 326V317.648H259.774L259.806 319.552L259.566 319.632C259.651 319.312 259.79 319.024 259.982 318.768C260.185 318.501 260.425 318.272 260.702 318.08C260.979 317.888 261.283 317.744 261.614 317.648C261.945 317.541 262.291 317.488 262.654 317.488C263.091 317.488 263.481 317.563 263.822 317.712C264.174 317.851 264.467 318.096 264.702 318.448C264.947 318.789 265.134 319.243 265.262 319.808L264.974 319.664L265.086 319.392C265.193 319.147 265.347 318.912 265.55 318.688C265.763 318.453 266.003 318.245 266.27 318.064C266.547 317.883 266.846 317.744 267.166 317.648C267.497 317.541 267.833 317.488 268.174 317.488C268.761 317.488 269.257 317.616 269.662 317.872C270.067 318.117 270.371 318.496 270.574 319.008C270.787 319.52 270.894 320.171 270.894 320.96V326H269.662V321.024C269.662 320.469 269.593 320.016 269.454 319.664C269.315 319.312 269.107 319.051 268.83 318.88C268.563 318.699 268.222 318.608 267.806 318.608C267.443 318.608 267.107 318.672 266.798 318.8C266.499 318.917 266.238 319.088 266.014 319.312C265.801 319.525 265.63 319.771 265.502 320.048C265.385 320.325 265.326 320.624 265.326 320.944V326H264.11V321.008C264.11 320.475 264.035 320.032 263.886 319.68C263.747 319.328 263.539 319.061 263.262 318.88C262.985 318.699 262.643 318.608 262.238 318.608C261.886 318.608 261.561 318.672 261.262 318.8C260.963 318.917 260.702 319.083 260.478 319.296C260.265 319.509 260.094 319.755 259.966 320.032C259.849 320.309 259.79 320.608 259.79 320.928V326H258.574ZM276.848 326.16C276.016 326.16 275.275 325.979 274.624 325.616C273.984 325.253 273.483 324.747 273.12 324.096C272.757 323.445 272.576 322.699 272.576 321.856C272.576 321.205 272.677 320.619 272.88 320.096C273.083 319.563 273.365 319.099 273.728 318.704C274.101 318.309 274.544 318.005 275.056 317.792C275.568 317.568 276.123 317.456 276.72 317.456C277.285 317.456 277.797 317.557 278.256 317.76C278.725 317.963 279.125 318.245 279.456 318.608C279.797 318.96 280.053 319.381 280.224 319.872C280.395 320.363 280.469 320.901 280.448 321.488L280.432 322.048H273.472L273.296 321.04H279.52L279.232 321.312V320.928C279.211 320.544 279.099 320.176 278.896 319.824C278.693 319.461 278.405 319.168 278.032 318.944C277.669 318.72 277.232 318.608 276.72 318.608C276.123 318.608 275.605 318.731 275.168 318.976C274.731 319.211 274.395 319.563 274.16 320.032C273.925 320.501 273.808 321.083 273.808 321.776C273.808 322.437 273.936 323.013 274.192 323.504C274.448 323.984 274.811 324.357 275.28 324.624C275.76 324.891 276.336 325.024 277.008 325.024C277.403 325.024 277.792 324.96 278.176 324.832C278.571 324.693 279.003 324.427 279.472 324.032L280.096 324.896C279.851 325.141 279.557 325.36 279.216 325.552C278.875 325.733 278.501 325.883 278.096 326C277.691 326.107 277.275 326.16 276.848 326.16ZM282.152 326V317.648H283.336L283.384 319.392L283.192 319.472C283.299 319.109 283.507 318.779 283.816 318.48C284.126 318.181 284.494 317.941 284.92 317.76C285.358 317.568 285.806 317.472 286.264 317.472C286.883 317.472 287.4 317.595 287.816 317.84C288.232 318.085 288.547 318.464 288.76 318.976C288.974 319.488 289.08 320.139 289.08 320.928V326H287.864V320.992C287.864 320.437 287.79 319.984 287.64 319.632C287.502 319.269 287.283 319.003 286.984 318.832C286.686 318.661 286.318 318.581 285.88 318.592C285.518 318.592 285.182 318.656 284.872 318.784C284.563 318.901 284.296 319.067 284.072 319.28C283.848 319.493 283.672 319.739 283.544 320.016C283.416 320.293 283.352 320.592 283.352 320.912V326H282.76C282.686 326 282.6 326 282.504 326C282.408 326 282.291 326 282.152 326ZM292.523 326V315.456H293.723V326H292.523ZM290.635 318.8V317.648H295.835V318.8H290.635ZM300.357 326.16C299.642 326.16 299.002 326.027 298.437 325.76C297.872 325.493 297.424 325.141 297.093 324.704L297.941 323.968C298.25 324.341 298.613 324.624 299.029 324.816C299.456 325.008 299.93 325.104 300.453 325.104C300.72 325.104 300.96 325.077 301.173 325.024C301.386 324.96 301.573 324.869 301.733 324.752C301.893 324.635 302.016 324.496 302.101 324.336C302.186 324.176 302.229 324 302.229 323.808C302.229 323.456 302.074 323.163 301.765 322.928C301.626 322.832 301.429 322.736 301.173 322.64C300.917 322.533 300.608 322.432 300.245 322.336C299.648 322.165 299.152 321.995 298.757 321.824C298.362 321.643 298.053 321.435 297.829 321.2C297.669 321.008 297.546 320.8 297.461 320.576C297.386 320.352 297.349 320.107 297.349 319.84C297.349 319.499 297.418 319.184 297.557 318.896C297.706 318.608 297.909 318.357 298.165 318.144C298.432 317.92 298.741 317.755 299.093 317.648C299.456 317.531 299.845 317.472 300.261 317.472C300.656 317.472 301.045 317.525 301.429 317.632C301.813 317.739 302.17 317.893 302.501 318.096C302.832 318.299 303.114 318.539 303.349 318.816L302.613 319.616C302.41 319.403 302.186 319.211 301.941 319.04C301.696 318.869 301.434 318.736 301.157 318.64C300.89 318.544 300.613 318.496 300.325 318.496C300.069 318.496 299.829 318.528 299.605 318.592C299.392 318.656 299.205 318.747 299.045 318.864C298.896 318.971 298.778 319.104 298.693 319.264C298.618 319.424 298.581 319.6 298.581 319.792C298.581 319.952 298.613 320.096 298.677 320.224C298.741 320.352 298.832 320.464 298.949 320.56C299.098 320.677 299.306 320.789 299.573 320.896C299.85 320.992 300.192 321.093 300.597 321.2C301.066 321.328 301.461 321.461 301.781 321.6C302.112 321.728 302.384 321.883 302.597 322.064C302.885 322.277 303.088 322.523 303.205 322.8C303.333 323.077 303.397 323.392 303.397 323.744C303.397 324.213 303.264 324.629 302.997 324.992C302.741 325.355 302.384 325.643 301.925 325.856C301.466 326.059 300.944 326.16 300.357 326.16ZM308.994 326L313.282 314.8H314.706L318.962 326H317.602L314.866 318.736C314.791 318.533 314.706 318.299 314.61 318.032C314.524 317.755 314.428 317.472 314.322 317.184C314.226 316.885 314.13 316.597 314.034 316.32C313.948 316.043 313.868 315.797 313.794 315.584H314.114C314.028 315.851 313.938 316.123 313.842 316.4C313.756 316.667 313.666 316.939 313.57 317.216C313.474 317.483 313.378 317.749 313.282 318.016C313.186 318.283 313.09 318.549 312.994 318.816L310.274 326H308.994ZM310.818 322.912L311.282 321.696H316.578L317.09 322.912H310.818ZM323.263 326.16C322.549 326.16 321.909 326.027 321.343 325.76C320.778 325.493 320.33 325.141 319.999 324.704L320.847 323.968C321.157 324.341 321.519 324.624 321.935 324.816C322.362 325.008 322.837 325.104 323.359 325.104C323.626 325.104 323.866 325.077 324.079 325.024C324.293 324.96 324.479 324.869 324.639 324.752C324.799 324.635 324.922 324.496 325.007 324.336C325.093 324.176 325.135 324 325.135 323.808C325.135 323.456 324.981 323.163 324.671 322.928C324.533 322.832 324.335 322.736 324.079 322.64C323.823 322.533 323.514 322.432 323.151 322.336C322.554 322.165 322.058 321.995 321.663 321.824C321.269 321.643 320.959 321.435 320.735 321.2C320.575 321.008 320.453 320.8 320.367 320.576C320.293 320.352 320.255 320.107 320.255 319.84C320.255 319.499 320.325 319.184 320.463 318.896C320.613 318.608 320.815 318.357 321.071 318.144C321.338 317.92 321.647 317.755 321.999 317.648C322.362 317.531 322.751 317.472 323.167 317.472C323.562 317.472 323.951 317.525 324.335 317.632C324.719 317.739 325.077 317.893 325.407 318.096C325.738 318.299 326.021 318.539 326.255 318.816L325.519 319.616C325.317 319.403 325.093 319.211 324.847 319.04C324.602 318.869 324.341 318.736 324.063 318.64C323.797 318.544 323.519 318.496 323.231 318.496C322.975 318.496 322.735 318.528 322.511 318.592C322.298 318.656 322.111 318.747 321.951 318.864C321.802 318.971 321.685 319.104 321.599 319.264C321.525 319.424 321.487 319.6 321.487 319.792C321.487 319.952 321.519 320.096 321.583 320.224C321.647 320.352 321.738 320.464 321.855 320.56C322.005 320.677 322.213 320.789 322.479 320.896C322.757 320.992 323.098 321.093 323.503 321.2C323.973 321.328 324.367 321.461 324.687 321.6C325.018 321.728 325.29 321.883 325.503 322.064C325.791 322.277 325.994 322.523 326.111 322.8C326.239 323.077 326.303 323.392 326.303 323.744C326.303 324.213 326.17 324.629 325.903 324.992C325.647 325.355 325.29 325.643 324.831 325.856C324.373 326.059 323.85 326.16 323.263 326.16ZM330.92 326.16C330.205 326.16 329.565 326.027 329 325.76C328.434 325.493 327.986 325.141 327.656 324.704L328.504 323.968C328.813 324.341 329.176 324.624 329.592 324.816C330.018 325.008 330.493 325.104 331.016 325.104C331.282 325.104 331.522 325.077 331.736 325.024C331.949 324.96 332.136 324.869 332.296 324.752C332.456 324.635 332.578 324.496 332.664 324.336C332.749 324.176 332.792 324 332.792 323.808C332.792 323.456 332.637 323.163 332.328 322.928C332.189 322.832 331.992 322.736 331.736 322.64C331.48 322.533 331.17 322.432 330.808 322.336C330.21 322.165 329.714 321.995 329.32 321.824C328.925 321.643 328.616 321.435 328.392 321.2C328.232 321.008 328.109 320.8 328.024 320.576C327.949 320.352 327.912 320.107 327.912 319.84C327.912 319.499 327.981 319.184 328.12 318.896C328.269 318.608 328.472 318.357 328.728 318.144C328.994 317.92 329.304 317.755 329.656 317.648C330.018 317.531 330.408 317.472 330.824 317.472C331.218 317.472 331.608 317.525 331.992 317.632C332.376 317.739 332.733 317.893 333.064 318.096C333.394 318.299 333.677 318.539 333.912 318.816L333.176 319.616C332.973 319.403 332.749 319.211 332.504 319.04C332.258 318.869 331.997 318.736 331.72 318.64C331.453 318.544 331.176 318.496 330.888 318.496C330.632 318.496 330.392 318.528 330.168 318.592C329.954 318.656 329.768 318.747 329.608 318.864C329.458 318.971 329.341 319.104 329.256 319.264C329.181 319.424 329.144 319.6 329.144 319.792C329.144 319.952 329.176 320.096 329.24 320.224C329.304 320.352 329.394 320.464 329.512 320.56C329.661 320.677 329.869 320.789 330.136 320.896C330.413 320.992 330.754 321.093 331.16 321.2C331.629 321.328 332.024 321.461 332.344 321.6C332.674 321.728 332.946 321.883 333.16 322.064C333.448 322.277 333.65 322.523 333.768 322.8C333.896 323.077 333.96 323.392 333.96 323.744C333.96 324.213 333.826 324.629 333.56 324.992C333.304 325.355 332.946 325.643 332.488 325.856C332.029 326.059 331.506 326.16 330.92 326.16ZM336.16 326V317.648H337.36V326H336.16ZM336.752 315.84C336.453 315.84 336.224 315.765 336.064 315.616C335.915 315.456 335.84 315.243 335.84 314.976C335.84 314.709 335.92 314.496 336.08 314.336C336.24 314.176 336.464 314.096 336.752 314.096C337.04 314.096 337.264 314.176 337.424 314.336C337.584 314.485 337.664 314.699 337.664 314.976C337.664 315.232 337.584 315.44 337.424 315.6C337.264 315.76 337.04 315.84 336.752 315.84ZM342.717 326.16C342.002 326.16 341.362 326.027 340.797 325.76C340.231 325.493 339.783 325.141 339.453 324.704L340.301 323.968C340.61 324.341 340.973 324.624 341.389 324.816C341.815 325.008 342.29 325.104 342.812 325.104C343.079 325.104 343.319 325.077 343.533 325.024C343.746 324.96 343.933 324.869 344.093 324.752C344.253 324.635 344.375 324.496 344.461 324.336C344.546 324.176 344.589 324 344.589 323.808C344.589 323.456 344.434 323.163 344.125 322.928C343.986 322.832 343.789 322.736 343.533 322.64C343.277 322.533 342.967 322.432 342.605 322.336C342.007 322.165 341.511 321.995 341.117 321.824C340.722 321.643 340.413 321.435 340.189 321.2C340.029 321.008 339.906 320.8 339.821 320.576C339.746 320.352 339.709 320.107 339.709 319.84C339.709 319.499 339.778 319.184 339.917 318.896C340.066 318.608 340.269 318.357 340.525 318.144C340.791 317.92 341.101 317.755 341.453 317.648C341.815 317.531 342.205 317.472 342.621 317.472C343.015 317.472 343.405 317.525 343.789 317.632C344.173 317.739 344.53 317.893 344.861 318.096C345.191 318.299 345.474 318.539 345.709 318.816L344.973 319.616C344.77 319.403 344.546 319.211 344.301 319.04C344.055 318.869 343.794 318.736 343.516 318.64C343.25 318.544 342.973 318.496 342.685 318.496C342.429 318.496 342.189 318.528 341.965 318.592C341.751 318.656 341.565 318.747 341.405 318.864C341.255 318.971 341.138 319.104 341.053 319.264C340.978 319.424 340.941 319.6 340.941 319.792C340.941 319.952 340.973 320.096 341.037 320.224C341.101 320.352 341.191 320.464 341.309 320.56C341.458 320.677 341.666 320.789 341.933 320.896C342.21 320.992 342.551 321.093 342.957 321.2C343.426 321.328 343.821 321.461 344.141 321.6C344.471 321.728 344.743 321.883 344.957 322.064C345.245 322.277 345.447 322.523 345.565 322.8C345.693 323.077 345.757 323.392 345.757 323.744C345.757 324.213 345.623 324.629 345.357 324.992C345.101 325.355 344.743 325.643 344.285 325.856C343.826 326.059 343.303 326.16 342.717 326.16ZM348.789 326V315.456H349.989V326H348.789ZM346.901 318.8V317.648H352.101V318.8H346.901ZM356.76 326.16C356.035 326.16 355.379 325.973 354.792 325.6C354.205 325.216 353.741 324.699 353.4 324.048C353.059 323.387 352.888 322.64 352.888 321.808C352.888 320.965 353.064 320.219 353.416 319.568C353.768 318.917 354.237 318.405 354.824 318.032C355.421 317.659 356.088 317.472 356.824 317.472C357.261 317.472 357.667 317.536 358.04 317.664C358.413 317.792 358.744 317.973 359.032 318.208C359.331 318.432 359.576 318.699 359.768 319.008C359.971 319.307 360.109 319.632 360.184 319.984L359.832 319.808L359.88 317.648H361.08V326H359.864V323.952L360.184 323.744C360.109 324.064 359.965 324.373 359.752 324.672C359.539 324.96 359.277 325.216 358.968 325.44C358.669 325.664 358.328 325.84 357.944 325.968C357.571 326.096 357.176 326.16 356.76 326.16ZM357.032 325.008C357.587 325.008 358.083 324.875 358.52 324.608C358.957 324.331 359.299 323.952 359.544 323.472C359.8 322.981 359.928 322.427 359.928 321.808C359.928 321.189 359.8 320.64 359.544 320.16C359.299 319.68 358.957 319.301 358.52 319.024C358.083 318.747 357.587 318.608 357.032 318.608C356.467 318.608 355.965 318.747 355.528 319.024C355.101 319.301 354.76 319.68 354.504 320.16C354.259 320.64 354.136 321.189 354.136 321.808C354.136 322.416 354.259 322.965 354.504 323.456C354.749 323.936 355.091 324.315 355.528 324.592C355.965 324.869 356.467 325.008 357.032 325.008ZM363.418 326V317.648H364.602L364.65 319.392L364.458 319.472C364.565 319.109 364.773 318.779 365.082 318.48C365.391 318.181 365.759 317.941 366.186 317.76C366.623 317.568 367.071 317.472 367.53 317.472C368.149 317.472 368.666 317.595 369.082 317.84C369.498 318.085 369.813 318.464 370.026 318.976C370.239 319.488 370.346 320.139 370.346 320.928V326H369.13V320.992C369.13 320.437 369.055 319.984 368.906 319.632C368.767 319.269 368.549 319.003 368.25 318.832C367.951 318.661 367.583 318.581 367.146 318.592C366.783 318.592 366.447 318.656 366.138 318.784C365.829 318.901 365.562 319.067 365.338 319.28C365.114 319.493 364.938 319.739 364.81 320.016C364.682 320.293 364.618 320.592 364.618 320.912V326H364.026C363.951 326 363.866 326 363.77 326C363.674 326 363.557 326 363.418 326ZM373.789 326V315.456H374.989V326H373.789ZM371.901 318.8V317.648H377.101V318.8H371.901Z" fill="#F4F4F4"/>
</svg>
