<svg width="500" height="500" viewBox="0 0 500 500" fill="none" xmlns="http://www.w3.org/2000/svg">
<rect width="500" height="500" fill="#0D0D0D"/>
<path d="M300.604 106.397C303.415 103.586 307.973 103.586 310.785 106.397C313.596 109.209 313.596 113.767 310.785 116.578L275.148 152.215C266.505 160.858 266.505 174.872 275.148 183.515L309.858 218.225C312.714 221.081 312.714 225.713 309.858 228.569C307.001 231.425 302.371 231.425 299.514 228.569L264.804 193.858C256.161 185.215 242.148 185.216 233.504 193.858L199.562 227.801C196.751 230.612 192.193 230.612 189.381 227.801C186.57 224.989 186.569 220.431 189.38 217.62L223.324 183.678C231.966 175.035 231.967 161.021 223.324 152.378L188.448 117.503C185.591 114.646 185.591 110.015 188.448 107.158C191.304 104.302 195.935 104.302 198.792 107.158L233.667 142.034C242.311 150.677 256.324 150.677 264.967 142.034L300.604 106.397ZM244.827 212.972C247.684 210.115 252.316 210.115 255.173 212.972C258.03 215.829 258.03 220.461 255.173 223.318C252.316 226.175 247.684 226.175 244.827 223.318C241.97 220.461 241.97 215.829 244.827 212.972ZM154.592 154.902C161.283 148.212 172.131 148.212 178.822 154.902C185.512 161.593 185.512 172.44 178.822 179.131C172.131 185.821 161.283 185.821 154.592 179.131C147.902 172.44 147.902 161.593 154.592 154.902ZM321.178 154.902C327.869 148.212 338.716 148.212 345.407 154.902C352.097 161.593 352.097 172.44 345.407 179.131C338.716 185.821 327.869 185.821 321.178 179.131C314.488 172.44 314.488 161.593 321.178 154.902Z" stroke="#F4F4F4" stroke-width="5"/>
<path d="M141.367 297.211C139.357 297.211 137.615 296.876 136.141 296.206C134.667 295.536 133.528 294.585 132.724 293.352C131.947 292.092 131.545 290.618 131.518 288.93H136.543C136.543 290.136 136.972 291.087 137.829 291.784C138.714 292.454 139.906 292.789 141.407 292.789C142.855 292.789 143.98 292.454 144.784 291.784C145.615 291.114 146.03 290.19 146.03 289.01C146.03 288.019 145.736 287.161 145.146 286.438C144.583 285.687 143.766 285.178 142.694 284.91L139.317 283.985C137.012 283.396 135.23 282.337 133.97 280.809C132.737 279.282 132.121 277.433 132.121 275.262C132.121 273.6 132.496 272.153 133.246 270.92C133.997 269.687 135.056 268.736 136.422 268.066C137.816 267.396 139.451 267.061 141.327 267.061C144.168 267.061 146.419 267.798 148.081 269.272C149.742 270.719 150.586 272.675 150.613 275.141H145.588C145.588 273.989 145.213 273.091 144.463 272.448C143.712 271.778 142.653 271.443 141.287 271.443C139.973 271.443 138.955 271.751 138.231 272.367C137.508 272.984 137.146 273.855 137.146 274.98C137.146 275.999 137.414 276.87 137.95 277.593C138.513 278.29 139.317 278.786 140.362 279.081L143.86 280.046C146.191 280.635 147.973 281.694 149.206 283.221C150.439 284.722 151.056 286.585 151.056 288.809C151.056 290.471 150.653 291.945 149.849 293.232C149.045 294.491 147.92 295.469 146.473 296.166C145.025 296.863 143.324 297.211 141.367 297.211Z" fill="#F4F4F4"/>
<path d="M165.512 297.211C163.636 297.211 161.988 296.863 160.567 296.166C159.174 295.443 158.088 294.438 157.311 293.151C156.534 291.838 156.145 290.297 156.145 288.528V282.98C156.145 281.185 156.534 279.644 157.311 278.357C158.088 277.071 159.174 276.079 160.567 275.382C161.988 274.659 163.636 274.297 165.512 274.297C168.299 274.297 170.524 275.02 172.186 276.468C173.847 277.888 174.718 279.831 174.799 282.297H169.773C169.693 281.144 169.278 280.26 168.527 279.644C167.804 279 166.799 278.679 165.512 278.679C164.172 278.679 163.113 279.054 162.336 279.804C161.559 280.528 161.17 281.573 161.17 282.94V288.528C161.17 289.895 161.559 290.953 162.336 291.704C163.113 292.454 164.172 292.829 165.512 292.829C166.799 292.829 167.804 292.521 168.527 291.905C169.278 291.262 169.693 290.364 169.773 289.211H174.799C174.718 291.677 173.847 293.634 172.186 295.081C170.524 296.501 168.299 297.211 165.512 297.211Z" fill="#F4F4F4"/>
<path d="M180.491 296.809V292.226H188.21V279.242H181.496V274.699H193.034V292.226H199.868V296.809H180.491ZM190.22 271C189.202 271 188.398 270.746 187.808 270.237C187.218 269.701 186.924 268.99 186.924 268.106C186.924 267.221 187.218 266.525 187.808 266.015C188.398 265.479 189.202 265.211 190.22 265.211C191.238 265.211 192.043 265.479 192.632 266.015C193.222 266.525 193.517 267.221 193.517 268.106C193.517 268.99 193.222 269.701 192.632 270.237C192.043 270.746 191.238 271 190.22 271Z" fill="#F4F4F4"/>
<path d="M204.637 296.809V274.699H209.541V278.92H210.908L209.541 280.086C209.541 278.263 210.064 276.843 211.109 275.824C212.181 274.806 213.642 274.297 215.491 274.297C217.662 274.297 219.39 275.02 220.677 276.468C221.99 277.915 222.647 279.858 222.647 282.297V296.809H217.621V282.819C217.621 281.479 217.273 280.448 216.576 279.724C215.879 279 214.901 278.639 213.642 278.639C212.409 278.639 211.43 279.014 210.707 279.764C210.01 280.515 209.662 281.587 209.662 282.98V296.809H204.637Z" fill="#F4F4F4"/>
<path d="M240.118 296.809C238.001 296.809 236.339 296.22 235.133 295.041C233.954 293.861 233.365 292.24 233.365 290.176V279.242H227.375V274.699H233.365V268.468H238.43V274.699H246.912V279.242H238.43V290.176C238.43 291.57 239.113 292.267 240.48 292.267H246.51V296.809H240.118Z" fill="#F4F4F4"/>
<path d="M252.806 296.809V292.226H260.525V279.242H253.811V274.699H265.349V292.226H272.183V296.809H252.806ZM262.535 271C261.516 271 260.712 270.746 260.123 270.237C259.533 269.701 259.238 268.99 259.238 268.106C259.238 267.221 259.533 266.525 260.123 266.015C260.712 265.479 261.516 265.211 262.535 265.211C263.553 265.211 264.357 265.479 264.947 266.015C265.536 266.525 265.831 267.221 265.831 268.106C265.831 268.99 265.536 269.701 264.947 270.237C264.357 270.746 263.553 271 262.535 271Z" fill="#F4F4F4"/>
<path d="M289.293 296.809C287.846 296.809 286.573 296.515 285.474 295.925C284.402 295.335 283.558 294.505 282.941 293.433C282.325 292.334 282.017 291.074 282.017 289.654V272.005H274.941V267.463H287.042V289.654C287.042 290.458 287.269 291.101 287.725 291.583C288.207 292.039 288.851 292.267 289.655 292.267H296.328V296.809H289.293Z" fill="#F4F4F4"/>
<path d="M313.398 296.809C311.951 296.809 310.678 296.515 309.579 295.925C308.507 295.335 307.662 294.505 307.046 293.433C306.43 292.334 306.121 291.074 306.121 289.654V272.005H299.046V267.463H311.147V289.654C311.147 290.458 311.374 291.101 311.83 291.583C312.312 292.039 312.956 292.267 313.76 292.267H320.433V296.809H313.398Z" fill="#F4F4F4"/>
<path d="M331.674 297.211C329.395 297.211 327.6 296.608 326.287 295.402C324.973 294.196 324.317 292.575 324.317 290.538C324.317 288.367 325.04 286.692 326.488 285.513C327.935 284.334 329.985 283.744 332.638 283.744H338.146V281.855C338.146 280.783 337.797 279.952 337.101 279.362C336.404 278.746 335.452 278.438 334.246 278.438C333.148 278.438 332.236 278.679 331.513 279.161C330.789 279.644 330.36 280.3 330.226 281.131H325.322C325.563 279.041 326.501 277.379 328.136 276.146C329.771 274.913 331.861 274.297 334.407 274.297C337.114 274.297 339.245 274.98 340.799 276.347C342.38 277.687 343.171 279.51 343.171 281.814V296.809H338.307V292.95H337.503L338.307 291.865C338.307 293.5 337.704 294.799 336.498 295.764C335.292 296.729 333.684 297.211 331.674 297.211ZM333.322 293.433C334.742 293.433 335.895 293.071 336.779 292.347C337.69 291.623 338.146 290.685 338.146 289.533V286.84H332.719C331.7 286.84 330.883 287.134 330.266 287.724C329.65 288.314 329.342 289.091 329.342 290.056C329.342 291.101 329.69 291.932 330.387 292.548C331.111 293.138 332.089 293.433 333.322 293.433Z" fill="#F4F4F4"/>
<path d="M349.949 296.809V274.699H354.693V278.92H355.939L354.452 281.493C354.452 279.108 354.988 277.312 356.06 276.106C357.132 274.9 358.713 274.297 360.804 274.297C363.189 274.297 365.065 275.034 366.432 276.508C367.799 277.982 368.482 280.019 368.482 282.618V284.226H363.216V282.98C363.216 281.56 362.84 280.461 362.09 279.684C361.366 278.907 360.361 278.518 359.075 278.518C357.762 278.518 356.743 278.907 356.02 279.684C355.323 280.461 354.974 281.56 354.974 282.98V296.809H349.949Z" fill="#F4F4F4"/>
<path d="M165.144 329.211V317.531H166.584V322.523H170.328V317.531H171.768V329.211H170.328V323.835H166.584V329.211H165.144ZM177.282 329.371C176.354 329.371 175.623 329.137 175.09 328.667C174.557 328.187 174.29 327.542 174.29 326.731C174.29 325.91 174.557 325.265 175.09 324.795C175.623 324.326 176.343 324.091 177.25 324.091H179.97V323.211C179.97 322.667 179.805 322.251 179.474 321.963C179.154 321.665 178.695 321.515 178.098 321.515C177.575 321.515 177.138 321.627 176.786 321.851C176.434 322.065 176.231 322.358 176.178 322.731H174.738C174.834 321.974 175.191 321.371 175.81 320.923C176.429 320.475 177.202 320.251 178.13 320.251C179.143 320.251 179.943 320.513 180.53 321.035C181.117 321.558 181.41 322.267 181.41 323.163V329.211H180.002V327.531H179.762L180.002 327.291C180.002 327.931 179.751 328.438 179.25 328.811C178.759 329.185 178.103 329.371 177.282 329.371ZM177.634 328.235C178.317 328.235 178.877 328.065 179.314 327.723C179.751 327.382 179.97 326.945 179.97 326.411V325.163H177.282C176.802 325.163 176.423 325.297 176.146 325.563C175.869 325.83 175.73 326.193 175.73 326.651C175.73 327.142 175.895 327.531 176.226 327.819C176.567 328.097 177.037 328.235 177.634 328.235ZM187.708 329.371C187.004 329.371 186.385 329.238 185.852 328.971C185.329 328.705 184.924 328.321 184.636 327.819C184.348 327.307 184.204 326.705 184.204 326.011V323.611C184.204 322.907 184.348 322.305 184.636 321.803C184.924 321.302 185.329 320.918 185.852 320.651C186.385 320.385 187.004 320.251 187.708 320.251C188.721 320.251 189.537 320.523 190.156 321.067C190.774 321.611 191.1 322.353 191.132 323.291H189.692C189.66 322.726 189.468 322.294 189.116 321.995C188.774 321.686 188.305 321.531 187.708 321.531C187.078 321.531 186.577 321.713 186.204 322.075C185.83 322.427 185.644 322.934 185.644 323.595V326.011C185.644 326.673 185.83 327.185 186.204 327.547C186.577 327.91 187.078 328.091 187.708 328.091C188.305 328.091 188.774 327.937 189.116 327.627C189.468 327.318 189.66 326.886 189.692 326.331H191.132C191.1 327.27 190.774 328.011 190.156 328.555C189.537 329.099 188.721 329.371 187.708 329.371ZM193.957 329.211V317.531H195.397V324.043H197.093L199.653 320.411H201.301L198.341 324.603L201.349 329.211H199.669L197.109 325.291H195.397V329.211H193.957ZM203.391 329.211V327.899H206.511V321.723H203.791V320.411H207.951V327.899H210.911V329.211H203.391ZM207.071 318.827C206.719 318.827 206.442 318.737 206.239 318.555C206.036 318.374 205.935 318.129 205.935 317.819C205.935 317.499 206.036 317.249 206.239 317.067C206.442 316.875 206.719 316.779 207.071 316.779C207.423 316.779 207.7 316.875 207.903 317.067C208.106 317.249 208.207 317.499 208.207 317.819C208.207 318.129 208.106 318.374 207.903 318.555C207.7 318.737 207.423 318.827 207.071 318.827ZM213.097 329.211V320.411H214.537V322.091H214.841L214.537 322.427C214.537 321.734 214.745 321.201 215.161 320.827C215.577 320.443 216.153 320.251 216.889 320.251C217.774 320.251 218.478 320.523 219.001 321.067C219.524 321.611 219.785 322.353 219.785 323.291V329.211H218.345V323.451C218.345 322.822 218.174 322.342 217.833 322.011C217.502 321.67 217.049 321.499 216.473 321.499C215.876 321.499 215.401 321.681 215.049 322.043C214.708 322.406 214.537 322.929 214.537 323.611V329.211H213.097ZM223.795 332.091V330.779H226.595C227.043 330.779 227.368 330.678 227.571 330.475C227.784 330.273 227.891 329.958 227.891 329.531V328.411L227.923 326.811H227.635L227.907 326.571C227.907 327.211 227.693 327.718 227.267 328.091C226.84 328.465 226.269 328.651 225.555 328.651C224.648 328.651 223.933 328.358 223.411 327.771C222.888 327.174 222.627 326.374 222.627 325.371V323.515C222.627 322.513 222.888 321.718 223.411 321.131C223.933 320.545 224.648 320.251 225.555 320.251C226.269 320.251 226.84 320.438 227.267 320.811C227.693 321.185 227.907 321.691 227.907 322.331L227.635 322.091H227.907V320.411H229.331V329.531C229.331 330.321 229.085 330.945 228.595 331.403C228.115 331.862 227.443 332.091 226.579 332.091H223.795ZM225.987 327.403C226.584 327.403 227.053 327.217 227.395 326.843C227.736 326.47 227.907 325.953 227.907 325.291V323.611C227.907 322.95 227.736 322.433 227.395 322.059C227.053 321.686 226.584 321.499 225.987 321.499C225.379 321.499 224.904 321.681 224.563 322.043C224.232 322.406 224.067 322.929 224.067 323.611V325.291C224.067 325.974 224.232 326.497 224.563 326.859C224.904 327.222 225.379 327.403 225.987 327.403ZM241.878 329.211V317.531H245.638C246.363 317.531 246.993 317.675 247.526 317.963C248.059 318.241 248.47 318.635 248.758 319.147C249.057 319.659 249.206 320.267 249.206 320.971C249.206 321.665 249.057 322.273 248.758 322.795C248.47 323.307 248.059 323.707 247.526 323.995C246.993 324.273 246.363 324.411 245.638 324.411H243.318V329.211H241.878ZM243.318 323.115H245.638C246.267 323.115 246.769 322.923 247.142 322.539C247.526 322.145 247.718 321.622 247.718 320.971C247.718 320.31 247.526 319.787 247.142 319.403C246.769 319.019 246.267 318.827 245.638 318.827H243.318V323.115ZM256 329.211C255.488 329.211 255.04 329.11 254.656 328.907C254.272 328.705 253.973 328.417 253.76 328.043C253.547 327.67 253.44 327.233 253.44 326.731V318.843H250.48V317.531H254.88V326.731C254.88 327.094 254.981 327.382 255.184 327.595C255.387 327.798 255.659 327.899 256 327.899H258.8V329.211H256ZM263.626 329.371C262.698 329.371 261.967 329.137 261.434 328.667C260.9 328.187 260.634 327.542 260.634 326.731C260.634 325.91 260.9 325.265 261.434 324.795C261.967 324.326 262.687 324.091 263.594 324.091H266.314V323.211C266.314 322.667 266.148 322.251 265.818 321.963C265.498 321.665 265.039 321.515 264.442 321.515C263.919 321.515 263.482 321.627 263.13 321.851C262.778 322.065 262.575 322.358 262.522 322.731H261.082C261.178 321.974 261.535 321.371 262.154 320.923C262.772 320.475 263.546 320.251 264.474 320.251C265.487 320.251 266.287 320.513 266.874 321.035C267.46 321.558 267.754 322.267 267.754 323.163V329.211H266.346V327.531H266.106L266.346 327.291C266.346 327.931 266.095 328.438 265.594 328.811C265.103 329.185 264.447 329.371 263.626 329.371ZM263.978 328.235C264.66 328.235 265.22 328.065 265.658 327.723C266.095 327.382 266.314 326.945 266.314 326.411V325.163H263.626C263.146 325.163 262.767 325.297 262.49 325.563C262.212 325.83 262.074 326.193 262.074 326.651C262.074 327.142 262.239 327.531 262.57 327.819C262.911 328.097 263.38 328.235 263.978 328.235ZM272.035 332.091L273.331 328.667L270.067 320.411H271.667L273.715 325.851C273.79 326.033 273.859 326.251 273.923 326.507C273.987 326.753 274.041 326.961 274.083 327.131C274.126 326.961 274.179 326.753 274.243 326.507C274.307 326.251 274.371 326.033 274.435 325.851L276.355 320.411H277.907L273.571 332.091H272.035ZM281.357 332.091V330.779H284.157C284.605 330.779 284.93 330.678 285.133 330.475C285.346 330.273 285.453 329.958 285.453 329.531V328.411L285.485 326.811H285.197L285.469 326.571C285.469 327.211 285.256 327.718 284.829 328.091C284.402 328.465 283.832 328.651 283.117 328.651C282.21 328.651 281.496 328.358 280.973 327.771C280.45 327.174 280.189 326.374 280.189 325.371V323.515C280.189 322.513 280.45 321.718 280.973 321.131C281.496 320.545 282.21 320.251 283.117 320.251C283.832 320.251 284.402 320.438 284.829 320.811C285.256 321.185 285.469 321.691 285.469 322.331L285.197 322.091H285.469V320.411H286.893V329.531C286.893 330.321 286.648 330.945 286.157 331.403C285.677 331.862 285.005 332.091 284.141 332.091H281.357ZM283.549 327.403C284.146 327.403 284.616 327.217 284.957 326.843C285.298 326.47 285.469 325.953 285.469 325.291V323.611C285.469 322.95 285.298 322.433 284.957 322.059C284.616 321.686 284.146 321.499 283.549 321.499C282.941 321.499 282.466 321.681 282.125 322.043C281.794 322.406 281.629 322.929 281.629 323.611V325.291C281.629 325.974 281.794 326.497 282.125 326.859C282.466 327.222 282.941 327.403 283.549 327.403ZM290.151 329.211V320.411H291.559V322.091H291.895L291.431 323.131C291.431 322.182 291.634 321.467 292.039 320.987C292.455 320.497 293.068 320.251 293.879 320.251C294.807 320.251 295.543 320.545 296.087 321.131C296.642 321.707 296.919 322.491 296.919 323.483V324.011H295.479V323.611C295.479 322.918 295.308 322.39 294.967 322.027C294.636 321.654 294.162 321.467 293.543 321.467C292.935 321.467 292.455 321.654 292.103 322.027C291.762 322.401 291.591 322.929 291.591 323.611V329.211H290.151ZM302.769 329.339C302.065 329.339 301.457 329.206 300.945 328.939C300.433 328.673 300.033 328.289 299.745 327.787C299.467 327.275 299.329 326.673 299.329 325.979V323.643C299.329 322.939 299.467 322.337 299.745 321.835C300.033 321.334 300.433 320.95 300.945 320.683C301.457 320.417 302.065 320.283 302.769 320.283C303.473 320.283 304.081 320.417 304.593 320.683C305.105 320.95 305.499 321.334 305.777 321.835C306.065 322.337 306.209 322.934 306.209 323.627V325.979C306.209 326.673 306.065 327.275 305.777 327.787C305.499 328.289 305.105 328.673 304.593 328.939C304.081 329.206 303.473 329.339 302.769 329.339ZM302.769 328.059C303.398 328.059 303.889 327.883 304.241 327.531C304.593 327.179 304.769 326.662 304.769 325.979V323.643C304.769 322.961 304.593 322.443 304.241 322.091C303.889 321.739 303.398 321.563 302.769 321.563C302.15 321.563 301.659 321.739 301.297 322.091C300.945 322.443 300.769 322.961 300.769 323.643V325.979C300.769 326.662 300.945 327.179 301.297 327.531C301.659 327.883 302.15 328.059 302.769 328.059ZM312.346 329.371C311.333 329.371 310.522 329.073 309.914 328.475C309.306 327.867 309.002 327.046 309.002 326.011V320.411H310.442V326.011C310.442 326.673 310.613 327.19 310.954 327.563C311.296 327.926 311.76 328.107 312.346 328.107C312.944 328.107 313.413 327.926 313.754 327.563C314.106 327.19 314.282 326.673 314.282 326.011V320.411H315.722V326.011C315.722 327.046 315.413 327.867 314.794 328.475C314.176 329.073 313.36 329.371 312.346 329.371ZM318.628 329.211V320.411H320.068V322.091H320.372L320.068 322.427C320.068 321.734 320.276 321.201 320.692 320.827C321.108 320.443 321.684 320.251 322.42 320.251C323.305 320.251 324.009 320.523 324.532 321.067C325.055 321.611 325.316 322.353 325.316 323.291V329.211H323.876V323.451C323.876 322.822 323.705 322.342 323.364 322.011C323.033 321.67 322.58 321.499 322.004 321.499C321.407 321.499 320.932 321.681 320.58 322.043C320.239 322.406 320.068 322.929 320.068 323.611V329.211H318.628ZM331.038 329.371C330.163 329.371 329.454 329.078 328.91 328.491C328.377 327.905 328.11 327.11 328.11 326.107V323.531C328.11 322.518 328.377 321.718 328.91 321.131C329.443 320.545 330.153 320.251 331.038 320.251C331.763 320.251 332.345 320.449 332.782 320.843C333.219 321.238 333.438 321.766 333.438 322.427L333.15 322.091H333.47L333.438 320.091V317.531H334.878V329.211H333.438V327.531H333.15L333.438 327.195C333.438 327.867 333.219 328.401 332.782 328.795C332.345 329.179 331.763 329.371 331.038 329.371ZM331.518 328.123C332.115 328.123 332.585 327.937 332.926 327.563C333.267 327.19 333.438 326.673 333.438 326.011V323.611C333.438 322.95 333.267 322.433 332.926 322.059C332.585 321.686 332.115 321.499 331.518 321.499C330.91 321.499 330.43 321.681 330.078 322.043C329.726 322.406 329.55 322.929 329.55 323.611V326.011C329.55 326.694 329.726 327.217 330.078 327.579C330.43 327.942 330.91 328.123 331.518 328.123Z" fill="#F4F4F4"/>
</svg>
