<svg width="500" height="500" viewBox="0 0 500 500" fill="none" xmlns="http://www.w3.org/2000/svg">
<rect width="500" height="500" fill="#F4F4F4"/>
<g clip-path="url(#clip0_104_813)">
<path d="M187.248 56.1774C248.138 21.0223 325.999 41.8849 361.153 102.775C396.309 163.665 375.446 241.526 314.556 276.681C253.665 311.836 175.805 290.973 140.65 230.083C105.495 169.193 126.358 91.3324 187.248 56.1774Z" fill="#0D0D0D"/>
<path fill-rule="evenodd" clip-rule="evenodd" d="M328.899 180.792L226.159 218.785L169.924 213.189L193.189 161.678L277.734 91.5498L322.548 124.888L328.899 180.792ZM278.508 95.8055L319.774 126.505L325.622 177.981L283.966 147.178L278.508 95.8055Z" fill="#F4F4F4"/>
<path d="M338.442 115.764L307.115 92.459L300.308 96.3893L304.911 135.123L336.262 158.664L342.881 154.842L338.442 115.764Z" fill="#F4F4F4"/>
</g>
<path d="M138.58 372.551C133.801 372.551 129.843 371.14 126.706 368.319C123.568 365.477 122 361.908 122 357.613H128.158C128.158 360.287 129.127 362.466 131.064 364.15C133.022 365.835 135.527 366.677 138.58 366.677C141.444 366.677 143.791 366.003 145.623 364.656C147.476 363.287 148.402 361.529 148.402 359.382C148.402 358.139 148.107 357.066 147.518 356.16C146.928 355.234 146.139 354.497 145.149 353.95C144.16 353.381 143.023 352.886 141.738 352.465C140.454 352.044 139.096 351.655 137.664 351.297C136.233 350.939 134.801 350.56 133.369 350.16C131.959 349.76 130.611 349.255 129.327 348.644C128.043 348.012 126.906 347.275 125.916 346.433C124.927 345.591 124.137 344.486 123.547 343.117C122.958 341.749 122.663 340.18 122.663 338.412C122.663 334.811 124.084 331.843 126.927 329.506C129.79 327.168 133.39 326 137.727 326C142.549 326 146.328 327.305 149.065 329.916C151.802 332.506 153.171 335.748 153.171 339.643H146.791C146.728 337.39 145.844 335.538 144.138 334.085C142.433 332.611 140.233 331.874 137.538 331.874C134.948 331.874 132.832 332.485 131.19 333.706C129.548 334.906 128.727 336.475 128.727 338.412C128.727 339.527 129.022 340.506 129.611 341.349C130.201 342.17 130.99 342.833 131.98 343.338C132.99 343.823 134.138 344.254 135.422 344.633C136.727 345.012 138.096 345.38 139.528 345.738C140.959 346.075 142.381 346.454 143.791 346.875C145.223 347.275 146.581 347.812 147.865 348.486C149.17 349.139 150.318 349.918 151.308 350.823C152.318 351.728 153.118 352.918 153.708 354.392C154.297 355.844 154.592 357.508 154.592 359.382C154.592 363.192 153.076 366.34 150.044 368.825C147.013 371.309 143.191 372.551 138.58 372.551ZM179.479 339.706C182.299 339.706 184.89 340.433 187.246 341.885C189.605 343.338 191.469 345.328 192.838 347.854C194.205 350.381 194.891 353.139 194.891 356.129C194.891 359.119 194.205 361.877 192.838 364.403C191.469 366.93 189.605 368.919 187.246 370.372C184.89 371.825 182.299 372.551 179.479 372.551C176.762 372.551 174.383 371.951 172.341 370.751C170.32 369.53 168.72 367.803 167.541 365.572V383.352H161.508V340.37H167.541V346.686C168.72 344.454 170.32 342.738 172.341 341.538C174.383 340.317 176.762 339.706 179.479 339.706ZM178.278 366.866C181.268 366.866 183.793 365.835 185.857 363.771C187.943 361.687 188.985 359.139 188.985 356.129C188.985 353.118 187.943 350.581 185.857 348.518C183.793 346.433 181.268 345.391 178.278 345.391C175.183 345.391 172.615 346.412 170.572 348.455C168.551 350.476 167.541 353.034 167.541 356.129C167.541 359.224 168.551 361.792 170.572 363.835C172.615 365.856 175.183 366.866 178.278 366.866ZM222.082 340.37H228.493L210.459 383.447H204.049L209.606 370.814L196.88 340.37H203.259L212.639 363.898L222.082 340.37ZM257.864 340.37H263.832V370.814C263.832 375.172 262.348 378.657 259.379 381.268C256.431 383.878 252.631 385.184 247.978 385.184C246.211 385.184 244.472 384.973 242.767 384.552C241.063 384.131 239.43 383.489 237.872 382.626C236.335 381.783 235.061 380.604 234.052 379.089C233.061 377.594 232.524 375.867 232.441 373.909H238.346C238.43 375.804 239.377 377.32 241.188 378.457C243 379.615 245.2 380.194 247.789 380.194C250.673 380.194 253.073 379.352 254.989 377.667C256.906 375.983 257.864 373.783 257.864 371.067V364.877C256.684 367.109 255.064 368.835 253 370.056C250.958 371.256 248.567 371.856 245.831 371.856C241.578 371.856 237.957 370.288 234.966 367.151C231.999 364.014 230.513 360.213 230.513 355.75C230.513 352.823 231.188 350.128 232.535 347.665C233.904 345.202 235.757 343.265 238.094 341.854C240.452 340.422 243.03 339.706 245.831 339.706C248.567 339.706 250.958 340.306 253 341.507C255.064 342.707 256.684 344.412 257.864 346.623V340.37ZM247.063 366.298C250.178 366.298 252.758 365.308 254.8 363.329C256.842 361.329 257.864 358.803 257.864 355.75C257.864 352.739 256.842 350.244 254.8 348.265C252.758 346.265 250.178 345.265 247.063 345.265C244.072 345.265 241.536 346.286 239.452 348.328C237.366 350.37 236.324 352.844 236.324 355.75C236.324 358.697 237.366 361.192 239.452 363.235C241.536 365.277 244.072 366.298 247.063 366.298ZM278.138 326.632V371.919H272.107V326.632H278.138ZM311.299 340.37H317.268V371.919H311.299V365.445C310.121 367.74 308.51 369.498 306.468 370.719C304.426 371.941 302.026 372.551 299.267 372.551C295.014 372.551 291.392 370.962 288.403 367.782C285.433 364.582 283.95 360.698 283.95 356.129C283.95 351.56 285.433 347.686 288.403 344.507C291.392 341.307 295.014 339.706 299.267 339.706C302.026 339.706 304.426 340.317 306.468 341.538C308.51 342.759 310.121 344.517 311.299 346.812V340.37ZM300.498 366.866C303.615 366.866 306.193 365.856 308.235 363.835C310.279 361.813 311.299 359.245 311.299 356.129C311.299 353.013 310.279 350.444 308.235 348.423C306.193 346.402 303.615 345.391 300.498 345.391C297.509 345.391 294.972 346.433 292.887 348.518C290.803 350.602 289.761 353.139 289.761 356.129C289.761 359.119 290.803 361.655 292.887 363.74C294.972 365.824 297.509 366.866 300.498 366.866ZM336.595 372.551C332.891 372.551 329.827 371.625 327.406 369.772C325.005 367.919 323.647 365.403 323.333 362.224H329.047C329.238 363.782 329.995 365.035 331.322 365.982C332.67 366.93 334.344 367.403 336.344 367.403C338.301 367.403 339.87 366.993 341.048 366.172C342.228 365.33 342.818 364.245 342.818 362.919C342.818 361.866 342.47 361.003 341.776 360.329C341.081 359.655 340.186 359.161 339.092 358.845C337.995 358.508 336.775 358.213 335.428 357.96C334.101 357.708 332.764 357.413 331.417 357.076C330.091 356.718 328.88 356.255 327.786 355.687C326.691 355.118 325.795 354.276 325.1 353.16C324.405 352.023 324.058 350.644 324.058 349.023C324.058 346.307 325.122 344.075 327.247 342.328C329.375 340.58 332.175 339.706 335.648 339.706C338.912 339.706 341.712 340.559 344.049 342.264C346.387 343.949 347.745 346.265 348.123 349.212H342.092C341.901 347.928 341.196 346.865 339.976 346.023C338.775 345.18 337.281 344.759 335.492 344.759C333.828 344.759 332.47 345.107 331.417 345.802C330.386 346.496 329.869 347.423 329.869 348.581C329.869 349.591 330.217 350.412 330.911 351.044C331.606 351.655 332.5 352.107 333.595 352.402C334.691 352.697 335.901 352.96 337.228 353.192C338.575 353.423 339.912 353.729 341.239 354.107C342.587 354.465 343.807 354.95 344.901 355.56C345.998 356.171 346.892 357.087 347.587 358.308C348.282 359.529 348.629 361.024 348.629 362.792C348.629 365.593 347.481 367.919 345.187 369.772C342.892 371.625 340.028 372.551 336.595 372.551ZM365.966 372.551C362.261 372.551 359.199 371.625 356.777 369.772C354.377 367.919 353.018 365.403 352.702 362.224H358.419C358.608 363.782 359.366 365.035 360.693 365.982C362.041 366.93 363.714 367.403 365.714 367.403C367.672 367.403 369.241 366.993 370.419 366.172C371.6 365.33 372.189 364.245 372.189 362.919C372.189 361.866 371.841 361.003 371.147 360.329C370.452 359.655 369.556 359.161 368.461 358.845C367.367 358.508 366.146 358.213 364.799 357.96C363.472 357.708 362.135 357.413 360.788 357.076C359.461 356.718 358.251 356.255 357.155 355.687C356.06 355.118 355.166 354.276 354.471 353.16C353.776 352.023 353.429 350.644 353.429 349.023C353.429 346.307 354.493 344.075 356.619 342.328C358.746 340.58 361.546 339.706 365.019 339.706C368.283 339.706 371.083 340.559 373.42 342.264C375.758 343.949 377.114 346.265 377.495 349.212H371.461C371.272 347.928 370.567 346.865 369.347 346.023C368.147 345.18 366.652 344.759 364.861 344.759C363.199 344.759 361.841 345.107 360.788 345.802C359.755 346.496 359.241 347.423 359.241 348.581C359.241 349.591 359.588 350.412 360.282 351.044C360.977 351.655 361.872 352.107 362.966 352.402C364.061 352.697 365.272 352.96 366.599 353.192C367.947 353.423 369.283 353.729 370.609 354.107C371.956 354.465 373.178 354.95 374.272 355.56C375.367 356.171 376.262 357.087 376.958 358.308C377.653 359.529 378 361.024 378 362.792C378 365.593 376.853 367.919 374.558 369.772C372.261 371.625 369.399 372.551 365.966 372.551Z" fill="#0D0D0D"/>
<path d="M100.144 409.184V397.984H104.976C106.224 397.984 107.19 398.234 107.872 398.736C108.566 399.237 108.912 399.946 108.912 400.864C108.912 401.472 108.768 401.984 108.48 402.4C108.203 402.816 107.819 403.13 107.328 403.344C106.848 403.557 106.32 403.664 105.744 403.664L106.016 403.28C106.731 403.28 107.344 403.392 107.856 403.616C108.379 403.829 108.784 404.154 109.072 404.592C109.36 405.018 109.504 405.552 109.504 406.192C109.504 407.141 109.152 407.877 108.448 408.4C107.755 408.922 106.704 409.184 105.296 409.184H100.144ZM101.328 408.208H105.28C106.262 408.208 107.014 408.042 107.536 407.712C108.059 407.37 108.32 406.832 108.32 406.096C108.32 405.37 108.059 404.842 107.536 404.512C107.014 404.17 106.262 404 105.28 404H101.2V403.024H104.896C105.792 403.024 106.486 402.853 106.976 402.512C107.478 402.17 107.728 401.664 107.728 400.992C107.728 400.309 107.478 399.802 106.976 399.472C106.486 399.13 105.792 398.96 104.896 398.96H101.328V408.208ZM111.967 409.184V397.312H113.103V409.184H111.967ZM119.688 409.264C118.877 409.264 118.146 409.082 117.496 408.72C116.856 408.346 116.349 407.84 115.976 407.2C115.602 406.549 115.416 405.808 115.416 404.976C115.416 404.133 115.602 403.392 115.976 402.752C116.349 402.112 116.856 401.61 117.496 401.248C118.136 400.885 118.866 400.704 119.688 400.704C120.52 400.704 121.256 400.885 121.896 401.248C122.546 401.61 123.053 402.112 123.416 402.752C123.789 403.392 123.976 404.133 123.976 404.976C123.976 405.808 123.789 406.549 123.416 407.2C123.053 407.84 122.546 408.346 121.896 408.72C121.245 409.082 120.509 409.264 119.688 409.264ZM119.688 408.256C120.296 408.256 120.834 408.122 121.304 407.856C121.773 407.578 122.141 407.194 122.408 406.704C122.685 406.202 122.824 405.626 122.824 404.976C122.824 404.314 122.685 403.738 122.408 403.248C122.141 402.757 121.773 402.378 121.304 402.112C120.834 401.834 120.301 401.696 119.704 401.696C119.106 401.696 118.573 401.834 118.104 402.112C117.634 402.378 117.261 402.757 116.984 403.248C116.706 403.738 116.568 404.314 116.568 404.976C116.568 405.626 116.706 406.202 116.984 406.704C117.261 407.194 117.634 407.578 118.104 407.856C118.573 408.122 119.101 408.256 119.688 408.256ZM129.783 409.264C128.951 409.264 128.204 409.082 127.543 408.72C126.892 408.346 126.38 407.84 126.007 407.2C125.634 406.549 125.447 405.808 125.447 404.976C125.447 404.133 125.634 403.392 126.007 402.752C126.38 402.112 126.892 401.61 127.543 401.248C128.204 400.885 128.951 400.704 129.783 400.704C130.498 400.704 131.143 400.842 131.719 401.12C132.295 401.397 132.748 401.813 133.079 402.368L132.231 402.944C131.943 402.517 131.586 402.202 131.159 402C130.732 401.797 130.268 401.696 129.767 401.696C129.17 401.696 128.631 401.834 128.151 402.112C127.671 402.378 127.292 402.757 127.015 403.248C126.738 403.738 126.599 404.314 126.599 404.976C126.599 405.637 126.738 406.213 127.015 406.704C127.292 407.194 127.671 407.578 128.151 407.856C128.631 408.122 129.17 408.256 129.767 408.256C130.268 408.256 130.732 408.154 131.159 407.952C131.586 407.749 131.943 407.44 132.231 407.024L133.079 407.6C132.748 408.144 132.295 408.56 131.719 408.848C131.143 409.125 130.498 409.264 129.783 409.264ZM136.082 407.008L136.114 405.552L141.346 400.784H142.738L139.042 404.32L138.402 404.864L136.082 407.008ZM135.186 409.184V397.312H136.322V409.184H135.186ZM141.698 409.184L138.194 404.816L138.93 403.936L143.09 409.184H141.698ZM147.955 409.264C147.123 409.264 146.376 409.082 145.715 408.72C145.064 408.346 144.552 407.84 144.179 407.2C143.805 406.549 143.619 405.808 143.619 404.976C143.619 404.133 143.805 403.392 144.179 402.752C144.552 402.112 145.064 401.61 145.715 401.248C146.376 400.885 147.123 400.704 147.955 400.704C148.669 400.704 149.315 400.842 149.891 401.12C150.467 401.397 150.92 401.813 151.251 402.368L150.403 402.944C150.115 402.517 149.757 402.202 149.331 402C148.904 401.797 148.44 401.696 147.939 401.696C147.341 401.696 146.803 401.834 146.323 402.112C145.843 402.378 145.464 402.757 145.187 403.248C144.909 403.738 144.771 404.314 144.771 404.976C144.771 405.637 144.909 406.213 145.187 406.704C145.464 407.194 145.843 407.578 146.323 407.856C146.803 408.122 147.341 408.256 147.939 408.256C148.44 408.256 148.904 408.154 149.331 407.952C149.757 407.749 150.115 407.44 150.403 407.024L151.251 407.6C150.92 408.144 150.467 408.56 149.891 408.848C149.315 409.125 148.669 409.264 147.955 409.264ZM157.645 400.704C158.328 400.704 158.925 400.837 159.437 401.104C159.96 401.36 160.365 401.754 160.653 402.288C160.952 402.821 161.101 403.493 161.101 404.304V409.184H159.965V404.416C159.965 403.53 159.741 402.864 159.293 402.416C158.856 401.957 158.237 401.728 157.437 401.728C156.84 401.728 156.317 401.85 155.869 402.096C155.432 402.33 155.091 402.677 154.845 403.136C154.611 403.584 154.493 404.128 154.493 404.768V409.184H153.357V397.312H154.493V403.088L154.269 402.656C154.536 402.048 154.963 401.573 155.549 401.232C156.136 400.88 156.835 400.704 157.645 400.704ZM169.434 409.184V407.328L169.386 407.024V403.92C169.386 403.205 169.183 402.656 168.778 402.272C168.383 401.888 167.791 401.696 167.002 401.696C166.458 401.696 165.941 401.786 165.45 401.968C164.959 402.149 164.543 402.389 164.202 402.688L163.69 401.84C164.117 401.477 164.629 401.2 165.226 401.008C165.823 400.805 166.453 400.704 167.114 400.704C168.202 400.704 169.039 400.976 169.626 401.52C170.223 402.053 170.522 402.869 170.522 403.968V409.184H169.434ZM166.538 409.264C165.909 409.264 165.359 409.162 164.89 408.96C164.431 408.746 164.079 408.458 163.834 408.096C163.589 407.722 163.466 407.296 163.466 406.816C163.466 406.378 163.567 405.984 163.77 405.632C163.983 405.269 164.325 404.981 164.794 404.768C165.274 404.544 165.914 404.432 166.714 404.432H169.61V405.28H166.746C165.935 405.28 165.37 405.424 165.05 405.712C164.741 406 164.586 406.357 164.586 406.784C164.586 407.264 164.773 407.648 165.146 407.936C165.519 408.224 166.042 408.368 166.714 408.368C167.354 408.368 167.903 408.224 168.362 407.936C168.831 407.637 169.173 407.21 169.386 406.656L169.642 407.44C169.429 407.994 169.055 408.437 168.522 408.768C167.999 409.098 167.338 409.264 166.538 409.264ZM173.607 409.184V400.784H174.743V409.184H173.607ZM174.183 398.928C173.949 398.928 173.751 398.848 173.591 398.688C173.431 398.528 173.351 398.336 173.351 398.112C173.351 397.888 173.431 397.701 173.591 397.552C173.751 397.392 173.949 397.312 174.183 397.312C174.418 397.312 174.615 397.386 174.775 397.536C174.935 397.685 175.015 397.872 175.015 398.096C175.015 398.33 174.935 398.528 174.775 398.688C174.626 398.848 174.429 398.928 174.183 398.928ZM182.192 400.704C182.875 400.704 183.472 400.837 183.984 401.104C184.507 401.36 184.912 401.754 185.2 402.288C185.499 402.821 185.648 403.493 185.648 404.304V409.184H184.512V404.416C184.512 403.53 184.288 402.864 183.84 402.416C183.403 401.957 182.784 401.728 181.984 401.728C181.387 401.728 180.864 401.85 180.416 402.096C179.979 402.33 179.638 402.677 179.392 403.136C179.158 403.584 179.04 404.128 179.04 404.768V409.184H177.904V400.784H178.992V403.088L178.816 402.656C179.083 402.048 179.51 401.573 180.096 401.232C180.683 400.88 181.382 400.704 182.192 400.704ZM195.32 409.184V399.008H191.384V397.984H200.44V399.008H196.504V409.184H195.32ZM201.873 409.184V400.784H202.961V403.072L202.849 402.672C203.084 402.032 203.478 401.546 204.033 401.216C204.588 400.874 205.276 400.704 206.097 400.704V401.808C206.054 401.808 206.012 401.808 205.969 401.808C205.926 401.797 205.884 401.792 205.841 401.792C204.956 401.792 204.262 402.064 203.761 402.608C203.26 403.141 203.009 403.904 203.009 404.896V409.184H201.873ZM212.809 409.184V407.328L212.761 407.024V403.92C212.761 403.205 212.558 402.656 212.153 402.272C211.758 401.888 211.166 401.696 210.377 401.696C209.833 401.696 209.316 401.786 208.825 401.968C208.334 402.149 207.918 402.389 207.577 402.688L207.065 401.84C207.492 401.477 208.004 401.2 208.601 401.008C209.198 400.805 209.828 400.704 210.489 400.704C211.577 400.704 212.414 400.976 213.001 401.52C213.598 402.053 213.897 402.869 213.897 403.968V409.184H212.809ZM209.913 409.264C209.284 409.264 208.734 409.162 208.265 408.96C207.806 408.746 207.454 408.458 207.209 408.096C206.964 407.722 206.841 407.296 206.841 406.816C206.841 406.378 206.942 405.984 207.145 405.632C207.358 405.269 207.7 404.981 208.169 404.768C208.649 404.544 209.289 404.432 210.089 404.432H212.985V405.28H210.121C209.31 405.28 208.745 405.424 208.425 405.712C208.116 406 207.961 406.357 207.961 406.784C207.961 407.264 208.148 407.648 208.521 407.936C208.894 408.224 209.417 408.368 210.089 408.368C210.729 408.368 211.278 408.224 211.737 407.936C212.206 407.637 212.548 407.21 212.761 406.656L213.017 407.44C212.804 407.994 212.43 408.437 211.897 408.768C211.374 409.098 210.713 409.264 209.913 409.264ZM221.27 400.704C221.953 400.704 222.55 400.837 223.062 401.104C223.585 401.36 223.99 401.754 224.278 402.288C224.577 402.821 224.726 403.493 224.726 404.304V409.184H223.59V404.416C223.59 403.53 223.366 402.864 222.918 402.416C222.481 401.957 221.862 401.728 221.062 401.728C220.465 401.728 219.942 401.85 219.494 402.096C219.057 402.33 218.716 402.677 218.47 403.136C218.236 403.584 218.118 404.128 218.118 404.768V409.184H216.982V400.784H218.07V403.088L217.894 402.656C218.161 402.048 218.588 401.573 219.174 401.232C219.761 400.88 220.46 400.704 221.27 400.704ZM230.051 409.264C229.358 409.264 228.702 409.168 228.083 408.976C227.464 408.773 226.979 408.522 226.627 408.224L227.139 407.328C227.48 407.584 227.918 407.808 228.451 408C228.984 408.181 229.544 408.272 230.131 408.272C230.931 408.272 231.507 408.149 231.859 407.904C232.211 407.648 232.387 407.312 232.387 406.896C232.387 406.586 232.286 406.346 232.083 406.176C231.891 405.994 231.635 405.861 231.315 405.776C230.995 405.68 230.638 405.6 230.243 405.536C229.848 405.472 229.454 405.397 229.059 405.312C228.675 405.226 228.323 405.104 228.003 404.944C227.683 404.773 227.422 404.544 227.219 404.256C227.027 403.968 226.931 403.584 226.931 403.104C226.931 402.645 227.059 402.234 227.315 401.872C227.571 401.509 227.944 401.226 228.435 401.024C228.936 400.81 229.544 400.704 230.259 400.704C230.803 400.704 231.347 400.778 231.891 400.928C232.435 401.066 232.883 401.253 233.235 401.488L232.739 402.4C232.366 402.144 231.966 401.962 231.539 401.856C231.112 401.738 230.686 401.68 230.259 401.68C229.502 401.68 228.942 401.813 228.579 402.08C228.227 402.336 228.051 402.666 228.051 403.072C228.051 403.392 228.147 403.642 228.339 403.824C228.542 404.005 228.803 404.149 229.123 404.256C229.454 404.352 229.811 404.432 230.195 404.496C230.59 404.56 230.979 404.64 231.363 404.736C231.758 404.821 232.115 404.944 232.435 405.104C232.766 405.253 233.027 405.472 233.219 405.76C233.422 406.037 233.523 406.405 233.523 406.864C233.523 407.354 233.384 407.781 233.107 408.144C232.84 408.496 232.446 408.773 231.923 408.976C231.411 409.168 230.787 409.264 230.051 409.264ZM240.871 409.184V407.328L240.823 407.024V403.92C240.823 403.205 240.621 402.656 240.215 402.272C239.821 401.888 239.229 401.696 238.439 401.696C237.895 401.696 237.378 401.786 236.887 401.968C236.397 402.149 235.981 402.389 235.639 402.688L235.127 401.84C235.554 401.477 236.066 401.2 236.663 401.008C237.261 400.805 237.89 400.704 238.551 400.704C239.639 400.704 240.477 400.976 241.063 401.52C241.661 402.053 241.959 402.869 241.959 403.968V409.184H240.871ZM237.975 409.264C237.346 409.264 236.797 409.162 236.327 408.96C235.869 408.746 235.517 408.458 235.271 408.096C235.026 407.722 234.903 407.296 234.903 406.816C234.903 406.378 235.005 405.984 235.207 405.632C235.421 405.269 235.762 404.981 236.231 404.768C236.711 404.544 237.351 404.432 238.151 404.432H241.047V405.28H238.183C237.373 405.28 236.807 405.424 236.487 405.712C236.178 406 236.023 406.357 236.023 406.784C236.023 407.264 236.21 407.648 236.583 407.936C236.957 408.224 237.479 408.368 238.151 408.368C238.791 408.368 239.341 408.224 239.799 407.936C240.269 407.637 240.61 407.21 240.823 406.656L241.079 407.44C240.866 407.994 240.493 408.437 239.959 408.768C239.437 409.098 238.775 409.264 237.975 409.264ZM248.533 409.264C247.701 409.264 246.954 409.082 246.293 408.72C245.642 408.346 245.13 407.84 244.757 407.2C244.384 406.549 244.197 405.808 244.197 404.976C244.197 404.133 244.384 403.392 244.757 402.752C245.13 402.112 245.642 401.61 246.293 401.248C246.954 400.885 247.701 400.704 248.533 400.704C249.248 400.704 249.893 400.842 250.469 401.12C251.045 401.397 251.498 401.813 251.829 402.368L250.981 402.944C250.693 402.517 250.336 402.202 249.909 402C249.482 401.797 249.018 401.696 248.517 401.696C247.92 401.696 247.381 401.834 246.901 402.112C246.421 402.378 246.042 402.757 245.765 403.248C245.488 403.738 245.349 404.314 245.349 404.976C245.349 405.637 245.488 406.213 245.765 406.704C246.042 407.194 246.421 407.578 246.901 407.856C247.381 408.122 247.92 408.256 248.517 408.256C249.018 408.256 249.482 408.154 249.909 407.952C250.336 407.749 250.693 407.44 250.981 407.024L251.829 407.6C251.498 408.144 251.045 408.56 250.469 408.848C249.893 409.125 249.248 409.264 248.533 409.264ZM256.81 409.264C256.021 409.264 255.413 409.05 254.986 408.624C254.56 408.197 254.346 407.594 254.346 406.816V398.928H255.482V406.752C255.482 407.242 255.605 407.621 255.85 407.888C256.106 408.154 256.469 408.288 256.938 408.288C257.44 408.288 257.856 408.144 258.186 407.856L258.586 408.672C258.362 408.874 258.09 409.024 257.77 409.12C257.461 409.216 257.141 409.264 256.81 409.264ZM252.842 401.728V400.784H258.042V401.728H252.842ZM260.654 409.184V400.784H261.79V409.184H260.654ZM261.23 398.928C260.996 398.928 260.798 398.848 260.638 398.688C260.478 398.528 260.398 398.336 260.398 398.112C260.398 397.888 260.478 397.701 260.638 397.552C260.798 397.392 260.996 397.312 261.23 397.312C261.465 397.312 261.662 397.386 261.822 397.536C261.982 397.685 262.062 397.872 262.062 398.096C262.062 398.33 261.982 398.528 261.822 398.688C261.673 398.848 261.476 398.928 261.23 398.928ZM268.375 409.264C267.565 409.264 266.834 409.082 266.183 408.72C265.543 408.346 265.037 407.84 264.663 407.2C264.29 406.549 264.103 405.808 264.103 404.976C264.103 404.133 264.29 403.392 264.663 402.752C265.037 402.112 265.543 401.61 266.183 401.248C266.823 400.885 267.554 400.704 268.375 400.704C269.207 400.704 269.943 400.885 270.583 401.248C271.234 401.61 271.741 402.112 272.103 402.752C272.477 403.392 272.663 404.133 272.663 404.976C272.663 405.808 272.477 406.549 272.103 407.2C271.741 407.84 271.234 408.346 270.583 408.72C269.933 409.082 269.197 409.264 268.375 409.264ZM268.375 408.256C268.983 408.256 269.522 408.122 269.991 407.856C270.461 407.578 270.829 407.194 271.095 406.704C271.373 406.202 271.511 405.626 271.511 404.976C271.511 404.314 271.373 403.738 271.095 403.248C270.829 402.757 270.461 402.378 269.991 402.112C269.522 401.834 268.989 401.696 268.391 401.696C267.794 401.696 267.261 401.834 266.791 402.112C266.322 402.378 265.949 402.757 265.671 403.248C265.394 403.738 265.255 404.314 265.255 404.976C265.255 405.626 265.394 406.202 265.671 406.704C265.949 407.194 266.322 407.578 266.791 407.856C267.261 408.122 267.789 408.256 268.375 408.256ZM279.27 400.704C279.953 400.704 280.55 400.837 281.062 401.104C281.585 401.36 281.99 401.754 282.278 402.288C282.577 402.821 282.726 403.493 282.726 404.304V409.184H281.59V404.416C281.59 403.53 281.366 402.864 280.918 402.416C280.481 401.957 279.862 401.728 279.062 401.728C278.465 401.728 277.942 401.85 277.494 402.096C277.057 402.33 276.716 402.677 276.47 403.136C276.236 403.584 276.118 404.128 276.118 404.768V409.184H274.982V400.784H276.07V403.088L275.894 402.656C276.161 402.048 276.588 401.573 277.174 401.232C277.761 400.88 278.46 400.704 279.27 400.704ZM292.398 409.184V399.008H288.462V397.984H297.518V399.008H293.582V409.184H292.398ZM298.951 409.184V400.784H300.039V403.072L299.927 402.672C300.162 402.032 300.557 401.546 301.111 401.216C301.666 400.874 302.354 400.704 303.175 400.704V401.808C303.133 401.808 303.09 401.808 303.047 401.808C303.005 401.797 302.962 401.792 302.919 401.792C302.034 401.792 301.341 402.064 300.839 402.608C300.338 403.141 300.087 403.904 300.087 404.896V409.184H298.951ZM309.887 409.184V407.328L309.839 407.024V403.92C309.839 403.205 309.636 402.656 309.231 402.272C308.836 401.888 308.244 401.696 307.455 401.696C306.911 401.696 306.394 401.786 305.903 401.968C305.412 402.149 304.996 402.389 304.655 402.688L304.143 401.84C304.57 401.477 305.082 401.2 305.679 401.008C306.276 400.805 306.906 400.704 307.567 400.704C308.655 400.704 309.492 400.976 310.079 401.52C310.676 402.053 310.975 402.869 310.975 403.968V409.184H309.887ZM306.991 409.264C306.362 409.264 305.812 409.162 305.343 408.96C304.884 408.746 304.532 408.458 304.287 408.096C304.042 407.722 303.919 407.296 303.919 406.816C303.919 406.378 304.02 405.984 304.223 405.632C304.436 405.269 304.778 404.981 305.247 404.768C305.727 404.544 306.367 404.432 307.167 404.432H310.063V405.28H307.199C306.388 405.28 305.823 405.424 305.503 405.712C305.194 406 305.039 406.357 305.039 406.784C305.039 407.264 305.226 407.648 305.599 407.936C305.972 408.224 306.495 408.368 307.167 408.368C307.807 408.368 308.356 408.224 308.815 407.936C309.284 407.637 309.626 407.21 309.839 406.656L310.095 407.44C309.882 407.994 309.508 408.437 308.975 408.768C308.452 409.098 307.791 409.264 306.991 409.264ZM317.549 409.264C316.717 409.264 315.97 409.082 315.309 408.72C314.658 408.346 314.146 407.84 313.773 407.2C313.399 406.549 313.213 405.808 313.213 404.976C313.213 404.133 313.399 403.392 313.773 402.752C314.146 402.112 314.658 401.61 315.309 401.248C315.97 400.885 316.717 400.704 317.549 400.704C318.263 400.704 318.909 400.842 319.485 401.12C320.061 401.397 320.514 401.813 320.845 402.368L319.997 402.944C319.709 402.517 319.351 402.202 318.925 402C318.498 401.797 318.034 401.696 317.533 401.696C316.935 401.696 316.397 401.834 315.917 402.112C315.437 402.378 315.058 402.757 314.781 403.248C314.503 403.738 314.365 404.314 314.365 404.976C314.365 405.637 314.503 406.213 314.781 406.704C315.058 407.194 315.437 407.578 315.917 407.856C316.397 408.122 316.935 408.256 317.533 408.256C318.034 408.256 318.498 408.154 318.925 407.952C319.351 407.749 319.709 407.44 319.997 407.024L320.845 407.6C320.514 408.144 320.061 408.56 319.485 408.848C318.909 409.125 318.263 409.264 317.549 409.264ZM326.504 409.264C325.629 409.264 324.861 409.082 324.2 408.72C323.538 408.346 323.021 407.84 322.648 407.2C322.274 406.549 322.088 405.808 322.088 404.976C322.088 404.144 322.264 403.408 322.616 402.768C322.978 402.128 323.469 401.626 324.088 401.264C324.717 400.89 325.421 400.704 326.2 400.704C326.989 400.704 327.688 400.885 328.296 401.248C328.914 401.6 329.4 402.101 329.752 402.752C330.104 403.392 330.28 404.133 330.28 404.976C330.28 405.029 330.274 405.088 330.264 405.152C330.264 405.205 330.264 405.264 330.264 405.328H322.952V404.48H329.656L329.208 404.816C329.208 404.208 329.074 403.669 328.808 403.2C328.552 402.72 328.2 402.346 327.752 402.08C327.304 401.813 326.786 401.68 326.2 401.68C325.624 401.68 325.106 401.813 324.648 402.08C324.189 402.346 323.832 402.72 323.576 403.2C323.32 403.68 323.192 404.229 323.192 404.848V405.024C323.192 405.664 323.33 406.229 323.608 406.72C323.896 407.2 324.29 407.578 324.792 407.856C325.304 408.122 325.885 408.256 326.536 408.256C327.048 408.256 327.522 408.165 327.96 407.984C328.408 407.802 328.792 407.525 329.112 407.152L329.752 407.888C329.378 408.336 328.909 408.677 328.344 408.912C327.789 409.146 327.176 409.264 326.504 409.264ZM338.075 402.992H343.995V404H338.075V402.992ZM338.203 408.16H344.939V409.184H337.019V397.984H344.699V399.008H338.203V408.16ZM345.968 409.184L349.52 404.576L349.504 405.136L346.128 400.784H347.408L350.176 404.384L349.696 404.368L352.464 400.784H353.712L350.304 405.184L350.32 404.576L353.904 409.184H352.608L349.68 405.344L350.128 405.408L347.248 409.184H345.968ZM360.131 409.264C359.406 409.264 358.75 409.098 358.163 408.768C357.576 408.426 357.107 407.941 356.755 407.312C356.414 406.672 356.243 405.893 356.243 404.976C356.243 404.058 356.414 403.285 356.755 402.656C357.096 402.016 357.56 401.53 358.147 401.2C358.734 400.869 359.395 400.704 360.131 400.704C360.931 400.704 361.646 400.885 362.275 401.248C362.915 401.6 363.416 402.101 363.779 402.752C364.142 403.392 364.323 404.133 364.323 404.976C364.323 405.829 364.142 406.576 363.779 407.216C363.416 407.856 362.915 408.357 362.275 408.72C361.646 409.082 360.931 409.264 360.131 409.264ZM355.795 412.288V400.784H356.883V403.312L356.771 404.992L356.931 406.688V412.288H355.795ZM360.051 408.256C360.648 408.256 361.182 408.122 361.651 407.856C362.12 407.578 362.494 407.194 362.771 406.704C363.048 406.202 363.187 405.626 363.187 404.976C363.187 404.325 363.048 403.754 362.771 403.264C362.494 402.773 362.12 402.389 361.651 402.112C361.182 401.834 360.648 401.696 360.051 401.696C359.454 401.696 358.915 401.834 358.435 402.112C357.966 402.389 357.592 402.773 357.315 403.264C357.048 403.754 356.915 404.325 356.915 404.976C356.915 405.626 357.048 406.202 357.315 406.704C357.592 407.194 357.966 407.578 358.435 407.856C358.915 408.122 359.454 408.256 360.051 408.256ZM366.639 409.184V397.312H367.775V409.184H366.639ZM374.36 409.264C373.549 409.264 372.818 409.082 372.168 408.72C371.528 408.346 371.021 407.84 370.648 407.2C370.274 406.549 370.088 405.808 370.088 404.976C370.088 404.133 370.274 403.392 370.648 402.752C371.021 402.112 371.528 401.61 372.168 401.248C372.808 400.885 373.538 400.704 374.36 400.704C375.192 400.704 375.928 400.885 376.568 401.248C377.218 401.61 377.725 402.112 378.088 402.752C378.461 403.392 378.648 404.133 378.648 404.976C378.648 405.808 378.461 406.549 378.088 407.2C377.725 407.84 377.218 408.346 376.568 408.72C375.917 409.082 375.181 409.264 374.36 409.264ZM374.36 408.256C374.968 408.256 375.506 408.122 375.976 407.856C376.445 407.578 376.813 407.194 377.08 406.704C377.357 406.202 377.496 405.626 377.496 404.976C377.496 404.314 377.357 403.738 377.08 403.248C376.813 402.757 376.445 402.378 375.976 402.112C375.506 401.834 374.973 401.696 374.376 401.696C373.778 401.696 373.245 401.834 372.776 402.112C372.306 402.378 371.933 402.757 371.656 403.248C371.378 403.738 371.24 404.314 371.24 404.976C371.24 405.626 371.378 406.202 371.656 406.704C371.933 407.194 372.306 407.578 372.776 407.856C373.245 408.122 373.773 408.256 374.36 408.256ZM380.967 409.184V400.784H382.055V403.072L381.943 402.672C382.177 402.032 382.572 401.546 383.127 401.216C383.681 400.874 384.369 400.704 385.191 400.704V401.808C385.148 401.808 385.105 401.808 385.063 401.808C385.02 401.797 384.977 401.792 384.935 401.792C384.049 401.792 383.356 402.064 382.855 402.608C382.353 403.141 382.103 403.904 382.103 404.896V409.184H380.967ZM390.754 409.264C389.879 409.264 389.111 409.082 388.45 408.72C387.788 408.346 387.271 407.84 386.898 407.2C386.524 406.549 386.338 405.808 386.338 404.976C386.338 404.144 386.514 403.408 386.866 402.768C387.228 402.128 387.719 401.626 388.338 401.264C388.967 400.89 389.671 400.704 390.45 400.704C391.239 400.704 391.938 400.885 392.546 401.248C393.164 401.6 393.65 402.101 394.002 402.752C394.354 403.392 394.53 404.133 394.53 404.976C394.53 405.029 394.524 405.088 394.514 405.152C394.514 405.205 394.514 405.264 394.514 405.328H387.202V404.48H393.906L393.458 404.816C393.458 404.208 393.324 403.669 393.058 403.2C392.802 402.72 392.45 402.346 392.002 402.08C391.554 401.813 391.036 401.68 390.45 401.68C389.874 401.68 389.356 401.813 388.898 402.08C388.439 402.346 388.082 402.72 387.826 403.2C387.57 403.68 387.442 404.229 387.442 404.848V405.024C387.442 405.664 387.58 406.229 387.858 406.72C388.146 407.2 388.54 407.578 389.042 407.856C389.554 408.122 390.135 408.256 390.786 408.256C391.298 408.256 391.772 408.165 392.21 407.984C392.658 407.802 393.042 407.525 393.362 407.152L394.002 407.888C393.628 408.336 393.159 408.677 392.594 408.912C392.039 409.146 391.426 409.264 390.754 409.264ZM396.842 409.184V400.784H397.93V403.072L397.818 402.672C398.052 402.032 398.447 401.546 399.002 401.216C399.556 400.874 400.244 400.704 401.066 400.704V401.808C401.023 401.808 400.98 401.808 400.938 401.808C400.895 401.797 400.852 401.792 400.81 401.792C399.924 401.792 399.231 402.064 398.73 402.608C398.228 403.141 397.978 403.904 397.978 404.896V409.184H396.842Z" fill="#282828"/>
<defs>
<clipPath id="clip0_104_813">
<rect width="256" height="256" fill="white" transform="translate(122 38)"/>
</clipPath>
</defs>
</svg>
